<?xml version="1.0" standalone="no"?>
<svg width="567.429" height="383.055" viewBox="0 0 567.429 383.055" xmlns="http://www.w3.org/2000/svg" shape-rendering="crispEdges">
<title>
/mnt/c/Users/Masahiro/OneDrive/YMAP/ROOT2020/ROOT2020/yoshimoto/svg_root/normal_dist.svg
</title>
<desc>
Creator: ROOT Version 6.20/04
CreationDate: Sun May 17 22:10:40 2020</desc>
<defs>
</defs>
<rect x="0.5" y="0" width="566.929" height="382.555" fill="white" fill-opacity="0.0"/>
<rect x="68.5315" y="45.9066" width="413.858" height="290.742" fill="white"/>
<rect x="68.5315" y="45.9066" width="413.858" height="290.742" fill="none" stroke="black"/>
<rect x="68.5315" y="45.9066" width="413.858" height="290.742" fill="white"/>
<rect x="68.5315" y="45.9066" width="413.858" height="290.742" fill="none" stroke="black"/>
<path d="M68.5315,336.649h 413.858" fill="none" stroke="black" stroke-width="2"/>
<path d="M68.5315,328.271v 8.37796" fill="none" stroke="black" stroke-width="2"/>
<path d="M76.8087,332.46v 4.18898" fill="none" stroke="black" stroke-width="2"/>
<path d="M85.0858,332.46v 4.18898" fill="none" stroke="black" stroke-width="2"/>
<path d="M93.363,332.46v 4.18898" fill="none" stroke="black" stroke-width="2"/>
<path d="M101.64,332.46v 4.18898" fill="none" stroke="black" stroke-width="2"/>
<path d="M109.917,328.271v 8.37796" fill="none" stroke="black" stroke-width="2"/>
<path d="M118.194,332.46v 4.18898" fill="none" stroke="black" stroke-width="2"/>
<path d="M126.472,332.46v 4.18898" fill="none" stroke="black" stroke-width="2"/>
<path d="M134.749,332.46v 4.18898" fill="none" stroke="black" stroke-width="2"/>
<path d="M143.026,332.46v 4.18898" fill="none" stroke="black" stroke-width="2"/>
<path d="M151.303,328.271v 8.37796" fill="none" stroke="black" stroke-width="2"/>
<path d="M159.58,332.46v 4.18898" fill="none" stroke="black" stroke-width="2"/>
<path d="M167.857,332.46v 4.18898" fill="none" stroke="black" stroke-width="2"/>
<path d="M176.135,332.46v 4.18898" fill="none" stroke="black" stroke-width="2"/>
<path d="M184.412,332.46v 4.18898" fill="none" stroke="black" stroke-width="2"/>
<path d="M192.689,328.271v 8.37796" fill="none" stroke="black" stroke-width="2"/>
<path d="M200.966,332.46v 4.18898" fill="none" stroke="black" stroke-width="2"/>
<path d="M209.243,332.46v 4.18898" fill="none" stroke="black" stroke-width="2"/>
<path d="M217.52,332.46v 4.18898" fill="none" stroke="black" stroke-width="2"/>
<path d="M225.798,332.46v 4.18898" fill="none" stroke="black" stroke-width="2"/>
<path d="M234.075,328.271v 8.37796" fill="none" stroke="black" stroke-width="2"/>
<path d="M242.352,332.46v 4.18898" fill="none" stroke="black" stroke-width="2"/>
<path d="M250.629,332.46v 4.18898" fill="none" stroke="black" stroke-width="2"/>
<path d="M258.906,332.46v 4.18898" fill="none" stroke="black" stroke-width="2"/>
<path d="M267.183,332.46v 4.18898" fill="none" stroke="black" stroke-width="2"/>
<path d="M275.461,328.271v 8.37796" fill="none" stroke="black" stroke-width="2"/>
<path d="M283.738,332.46v 4.18898" fill="none" stroke="black" stroke-width="2"/>
<path d="M292.015,332.46v 4.18898" fill="none" stroke="black" stroke-width="2"/>
<path d="M300.292,332.46v 4.18898" fill="none" stroke="black" stroke-width="2"/>
<path d="M308.569,332.46v 4.18898" fill="none" stroke="black" stroke-width="2"/>
<path d="M316.846,328.271v 8.37796" fill="none" stroke="black" stroke-width="2"/>
<path d="M325.124,332.46v 4.18898" fill="none" stroke="black" stroke-width="2"/>
<path d="M333.401,332.46v 4.18898" fill="none" stroke="black" stroke-width="2"/>
<path d="M341.678,332.46v 4.18898" fill="none" stroke="black" stroke-width="2"/>
<path d="M349.955,332.46v 4.18898" fill="none" stroke="black" stroke-width="2"/>
<path d="M358.232,328.271v 8.37796" fill="none" stroke="black" stroke-width="2"/>
<path d="M366.509,332.46v 4.18898" fill="none" stroke="black" stroke-width="2"/>
<path d="M374.787,332.46v 4.18898" fill="none" stroke="black" stroke-width="2"/>
<path d="M383.064,332.46v 4.18898" fill="none" stroke="black" stroke-width="2"/>
<path d="M391.341,332.46v 4.18898" fill="none" stroke="black" stroke-width="2"/>
<path d="M399.618,328.271v 8.37796" fill="none" stroke="black" stroke-width="2"/>
<path d="M407.895,332.46v 4.18898" fill="none" stroke="black" stroke-width="2"/>
<path d="M416.172,332.46v 4.18898" fill="none" stroke="black" stroke-width="2"/>
<path d="M424.45,332.46v 4.18898" fill="none" stroke="black" stroke-width="2"/>
<path d="M432.727,332.46v 4.18898" fill="none" stroke="black" stroke-width="2"/>
<path d="M441.004,328.271v 8.37796" fill="none" stroke="black" stroke-width="2"/>
<path d="M449.281,332.46v 4.18898" fill="none" stroke="black" stroke-width="2"/>
<path d="M457.558,332.46v 4.18898" fill="none" stroke="black" stroke-width="2"/>
<path d="M465.835,332.46v 4.18898" fill="none" stroke="black" stroke-width="2"/>
<path d="M474.113,332.46v 4.18898" fill="none" stroke="black" stroke-width="2"/>
<path d="M482.39,328.271v 8.37796" fill="none" stroke="black" stroke-width="2"/>
<text xml:space="preserve" x="67.102" y="352.503" fill="black" font-size="14.5387" font-family="Helvetica">5</text>
<text xml:space="preserve" x="59.792" y="352.503" fill="black" font-size="14.5387" font-family="Times">&#8722;</text>
<text xml:space="preserve" x="108.525" y="352.503" fill="black" font-size="14.5387" font-family="Helvetica">4</text>
<text xml:space="preserve" x="101.215" y="352.503" fill="black" font-size="14.5387" font-family="Times">&#8722;</text>
<text xml:space="preserve" x="149.948" y="352.503" fill="black" font-size="14.5387" font-family="Helvetica">3</text>
<text xml:space="preserve" x="142.638" y="352.503" fill="black" font-size="14.5387" font-family="Times">&#8722;</text>
<text xml:space="preserve" x="191.372" y="352.503" fill="black" font-size="14.5387" font-family="Helvetica">2</text>
<text xml:space="preserve" x="184.062" y="352.503" fill="black" font-size="14.5387" font-family="Times">&#8722;</text>
<text xml:space="preserve" x="234.419" y="352.503" fill="black" font-size="14.5387" font-family="Helvetica">1</text>
<text xml:space="preserve" x="226.297" y="352.503" fill="black" font-size="14.5387" font-family="Times">&#8722;</text>
<text xml:space="preserve" x="270.969" y="352.503" fill="black" font-size="14.5387" font-family="Helvetica">0</text>
<text xml:space="preserve" x="313.204" y="352.503" fill="black" font-size="14.5387" font-family="Helvetica">1</text>
<text xml:space="preserve" x="353.815" y="352.503" fill="black" font-size="14.5387" font-family="Helvetica">2</text>
<text xml:space="preserve" x="395.239" y="352.503" fill="black" font-size="14.5387" font-family="Helvetica">3</text>
<text xml:space="preserve" x="436.662" y="352.503" fill="black" font-size="14.5387" font-family="Helvetica">4</text>
<text xml:space="preserve" x="478.085" y="352.503" fill="black" font-size="14.5387" font-family="Helvetica">5</text>
<text xml:space="preserve" x="474.836" y="372.809" fill="black" font-size="14.5387" font-family="Helvetica">x</text>
<path d="M68.5315,45.9066h 413.858" fill="none" stroke="black" stroke-width="2"/>
<path d="M68.5315,54.2846v -8.37796" fill="none" stroke="black" stroke-width="2"/>
<path d="M76.8087,50.0956v -4.18898" fill="none" stroke="black" stroke-width="2"/>
<path d="M85.0858,50.0956v -4.18898" fill="none" stroke="black" stroke-width="2"/>
<path d="M93.363,50.0956v -4.18898" fill="none" stroke="black" stroke-width="2"/>
<path d="M101.64,50.0956v -4.18898" fill="none" stroke="black" stroke-width="2"/>
<path d="M109.917,54.2846v -8.37796" fill="none" stroke="black" stroke-width="2"/>
<path d="M118.194,50.0956v -4.18898" fill="none" stroke="black" stroke-width="2"/>
<path d="M126.472,50.0956v -4.18898" fill="none" stroke="black" stroke-width="2"/>
<path d="M134.749,50.0956v -4.18898" fill="none" stroke="black" stroke-width="2"/>
<path d="M143.026,50.0956v -4.18898" fill="none" stroke="black" stroke-width="2"/>
<path d="M151.303,54.2846v -8.37796" fill="none" stroke="black" stroke-width="2"/>
<path d="M159.58,50.0956v -4.18898" fill="none" stroke="black" stroke-width="2"/>
<path d="M167.857,50.0956v -4.18898" fill="none" stroke="black" stroke-width="2"/>
<path d="M176.135,50.0956v -4.18898" fill="none" stroke="black" stroke-width="2"/>
<path d="M184.412,50.0956v -4.18898" fill="none" stroke="black" stroke-width="2"/>
<path d="M192.689,54.2846v -8.37796" fill="none" stroke="black" stroke-width="2"/>
<path d="M200.966,50.0956v -4.18898" fill="none" stroke="black" stroke-width="2"/>
<path d="M209.243,50.0956v -4.18898" fill="none" stroke="black" stroke-width="2"/>
<path d="M217.52,50.0956v -4.18898" fill="none" stroke="black" stroke-width="2"/>
<path d="M225.798,50.0956v -4.18898" fill="none" stroke="black" stroke-width="2"/>
<path d="M234.075,54.2846v -8.37796" fill="none" stroke="black" stroke-width="2"/>
<path d="M242.352,50.0956v -4.18898" fill="none" stroke="black" stroke-width="2"/>
<path d="M250.629,50.0956v -4.18898" fill="none" stroke="black" stroke-width="2"/>
<path d="M258.906,50.0956v -4.18898" fill="none" stroke="black" stroke-width="2"/>
<path d="M267.183,50.0956v -4.18898" fill="none" stroke="black" stroke-width="2"/>
<path d="M275.461,54.2846v -8.37796" fill="none" stroke="black" stroke-width="2"/>
<path d="M283.738,50.0956v -4.18898" fill="none" stroke="black" stroke-width="2"/>
<path d="M292.015,50.0956v -4.18898" fill="none" stroke="black" stroke-width="2"/>
<path d="M300.292,50.0956v -4.18898" fill="none" stroke="black" stroke-width="2"/>
<path d="M308.569,50.0956v -4.18898" fill="none" stroke="black" stroke-width="2"/>
<path d="M316.846,54.2846v -8.37796" fill="none" stroke="black" stroke-width="2"/>
<path d="M325.124,50.0956v -4.18898" fill="none" stroke="black" stroke-width="2"/>
<path d="M333.401,50.0956v -4.18898" fill="none" stroke="black" stroke-width="2"/>
<path d="M341.678,50.0956v -4.18898" fill="none" stroke="black" stroke-width="2"/>
<path d="M349.955,50.0956v -4.18898" fill="none" stroke="black" stroke-width="2"/>
<path d="M358.232,54.2846v -8.37796" fill="none" stroke="black" stroke-width="2"/>
<path d="M366.509,50.0956v -4.18898" fill="none" stroke="black" stroke-width="2"/>
<path d="M374.787,50.0956v -4.18898" fill="none" stroke="black" stroke-width="2"/>
<path d="M383.064,50.0956v -4.18898" fill="none" stroke="black" stroke-width="2"/>
<path d="M391.341,50.0956v -4.18898" fill="none" stroke="black" stroke-width="2"/>
<path d="M399.618,54.2846v -8.37796" fill="none" stroke="black" stroke-width="2"/>
<path d="M407.895,50.0956v -4.18898" fill="none" stroke="black" stroke-width="2"/>
<path d="M416.172,50.0956v -4.18898" fill="none" stroke="black" stroke-width="2"/>
<path d="M424.45,50.0956v -4.18898" fill="none" stroke="black" stroke-width="2"/>
<path d="M432.727,50.0956v -4.18898" fill="none" stroke="black" stroke-width="2"/>
<path d="M441.004,54.2846v -8.37796" fill="none" stroke="black" stroke-width="2"/>
<path d="M449.281,50.0956v -4.18898" fill="none" stroke="black" stroke-width="2"/>
<path d="M457.558,50.0956v -4.18898" fill="none" stroke="black" stroke-width="2"/>
<path d="M465.835,50.0956v -4.18898" fill="none" stroke="black" stroke-width="2"/>
<path d="M474.113,50.0956v -4.18898" fill="none" stroke="black" stroke-width="2"/>
<path d="M482.39,54.2846v -8.37796" fill="none" stroke="black" stroke-width="2"/>
<path d="M68.5315,336.649v -290.742" fill="none" stroke="black" stroke-width="2"/>
<path d="M81.4575,336.649h -12.926" fill="none" stroke="black" stroke-width="2"/>
<path d="M74.9945,330.023h -6.46299" fill="none" stroke="black" stroke-width="2"/>
<path d="M74.9945,323.398h -6.46299" fill="none" stroke="black" stroke-width="2"/>
<path d="M74.9945,316.773h -6.46299" fill="none" stroke="black" stroke-width="2"/>
<path d="M74.9945,310.147h -6.46299" fill="none" stroke="black" stroke-width="2"/>
<path d="M81.4575,303.522h -12.926" fill="none" stroke="black" stroke-width="2"/>
<path d="M74.9945,296.897h -6.46299" fill="none" stroke="black" stroke-width="2"/>
<path d="M74.9945,290.272h -6.46299" fill="none" stroke="black" stroke-width="2"/>
<path d="M74.9945,283.646h -6.46299" fill="none" stroke="black" stroke-width="2"/>
<path d="M74.9945,277.021h -6.46299" fill="none" stroke="black" stroke-width="2"/>
<path d="M81.4575,270.396h -12.926" fill="none" stroke="black" stroke-width="2"/>
<path d="M74.9945,263.77h -6.46299" fill="none" stroke="black" stroke-width="2"/>
<path d="M74.9945,257.145h -6.46299" fill="none" stroke="black" stroke-width="2"/>
<path d="M74.9945,250.52h -6.46299" fill="none" stroke="black" stroke-width="2"/>
<path d="M74.9945,243.895h -6.46299" fill="none" stroke="black" stroke-width="2"/>
<path d="M81.4575,237.269h -12.926" fill="none" stroke="black" stroke-width="2"/>
<path d="M74.9945,230.644h -6.46299" fill="none" stroke="black" stroke-width="2"/>
<path d="M74.9945,224.019h -6.46299" fill="none" stroke="black" stroke-width="2"/>
<path d="M74.9945,217.393h -6.46299" fill="none" stroke="black" stroke-width="2"/>
<path d="M74.9945,210.768h -6.46299" fill="none" stroke="black" stroke-width="2"/>
<path d="M81.4575,204.143h -12.926" fill="none" stroke="black" stroke-width="2"/>
<path d="M74.9945,197.517h -6.46299" fill="none" stroke="black" stroke-width="2"/>
<path d="M74.9945,190.892h -6.46299" fill="none" stroke="black" stroke-width="2"/>
<path d="M74.9945,184.267h -6.46299" fill="none" stroke="black" stroke-width="2"/>
<path d="M74.9945,177.642h -6.46299" fill="none" stroke="black" stroke-width="2"/>
<path d="M81.4575,171.016h -12.926" fill="none" stroke="black" stroke-width="2"/>
<path d="M74.9945,164.391h -6.46299" fill="none" stroke="black" stroke-width="2"/>
<path d="M74.9945,157.766h -6.46299" fill="none" stroke="black" stroke-width="2"/>
<path d="M74.9945,151.14h -6.46299" fill="none" stroke="black" stroke-width="2"/>
<path d="M74.9945,144.515h -6.46299" fill="none" stroke="black" stroke-width="2"/>
<path d="M81.4575,137.89h -12.926" fill="none" stroke="black" stroke-width="2"/>
<path d="M74.9945,131.265h -6.46299" fill="none" stroke="black" stroke-width="2"/>
<path d="M74.9945,124.639h -6.46299" fill="none" stroke="black" stroke-width="2"/>
<path d="M74.9945,118.014h -6.46299" fill="none" stroke="black" stroke-width="2"/>
<path d="M74.9945,111.389h -6.46299" fill="none" stroke="black" stroke-width="2"/>
<path d="M81.4575,104.763h -12.926" fill="none" stroke="black" stroke-width="2"/>
<path d="M74.9945,98.1381h -6.46299" fill="none" stroke="black" stroke-width="2"/>
<path d="M74.9945,91.5128h -6.46299" fill="none" stroke="black" stroke-width="2"/>
<path d="M74.9945,84.8875h -6.46299" fill="none" stroke="black" stroke-width="2"/>
<path d="M74.9945,78.2622h -6.46299" fill="none" stroke="black" stroke-width="2"/>
<path d="M81.4575,71.6369h -12.926" fill="none" stroke="black" stroke-width="2"/>
<path d="M81.4575,71.6369h -12.926" fill="none" stroke="black" stroke-width="2"/>
<path d="M74.9945,65.0116h -6.46299" fill="none" stroke="black" stroke-width="2"/>
<path d="M74.9945,58.3863h -6.46299" fill="none" stroke="black" stroke-width="2"/>
<path d="M74.9945,51.761h -6.46299" fill="none" stroke="black" stroke-width="2"/>
<text xml:space="preserve" x="54.1065" y="341.944" fill="black" font-size="14.5387" font-family="Helvetica">0</text>
<text xml:space="preserve" x="33.801" y="308.643" fill="black" font-size="14.5387" font-family="Helvetica">0.05</text>
<text xml:space="preserve" x="44.3598" y="275.342" fill="black" font-size="14.5387" font-family="Helvetica">0.1</text>
<text xml:space="preserve" x="33.801" y="242.854" fill="black" font-size="14.5387" font-family="Helvetica">0.15</text>
<text xml:space="preserve" x="41.9232" y="209.553" fill="black" font-size="14.5387" font-family="Helvetica">0.2</text>
<text xml:space="preserve" x="33.801" y="176.252" fill="black" font-size="14.5387" font-family="Helvetica">0.25</text>
<text xml:space="preserve" x="41.9232" y="142.951" fill="black" font-size="14.5387" font-family="Helvetica">0.3</text>
<text xml:space="preserve" x="33.801" y="109.65" fill="black" font-size="14.5387" font-family="Helvetica">0.35</text>
<text xml:space="preserve" x="41.9232" y="77.1608" fill="black" font-size="14.5387" font-family="Helvetica">0.4</text>
<g transform="rotate(-90,24.8666,164.068)">
<text xml:space="preserve" x="24.8666" y="164.068" fill="black" font-size="14.5387" font-family="Helvetica">Probability density</text>
</g>
<path d="M482.39,336.649v -290.742" fill="none" stroke="black" stroke-width="2"/>
<path d="M469.464,336.649h 12.926" fill="none" stroke="black" stroke-width="2"/>
<path d="M475.927,330.023h 6.46299" fill="none" stroke="black" stroke-width="2"/>
<path d="M475.927,323.398h 6.46299" fill="none" stroke="black" stroke-width="2"/>
<path d="M475.927,316.773h 6.46299" fill="none" stroke="black" stroke-width="2"/>
<path d="M475.927,310.147h 6.46299" fill="none" stroke="black" stroke-width="2"/>
<path d="M469.464,303.522h 12.926" fill="none" stroke="black" stroke-width="2"/>
<path d="M475.927,296.897h 6.46299" fill="none" stroke="black" stroke-width="2"/>
<path d="M475.927,290.272h 6.46299" fill="none" stroke="black" stroke-width="2"/>
<path d="M475.927,283.646h 6.46299" fill="none" stroke="black" stroke-width="2"/>
<path d="M475.927,277.021h 6.46299" fill="none" stroke="black" stroke-width="2"/>
<path d="M469.464,270.396h 12.926" fill="none" stroke="black" stroke-width="2"/>
<path d="M475.927,263.77h 6.46299" fill="none" stroke="black" stroke-width="2"/>
<path d="M475.927,257.145h 6.46299" fill="none" stroke="black" stroke-width="2"/>
<path d="M475.927,250.52h 6.46299" fill="none" stroke="black" stroke-width="2"/>
<path d="M475.927,243.895h 6.46299" fill="none" stroke="black" stroke-width="2"/>
<path d="M469.464,237.269h 12.926" fill="none" stroke="black" stroke-width="2"/>
<path d="M475.927,230.644h 6.46299" fill="none" stroke="black" stroke-width="2"/>
<path d="M475.927,224.019h 6.46299" fill="none" stroke="black" stroke-width="2"/>
<path d="M475.927,217.393h 6.46299" fill="none" stroke="black" stroke-width="2"/>
<path d="M475.927,210.768h 6.46299" fill="none" stroke="black" stroke-width="2"/>
<path d="M469.464,204.143h 12.926" fill="none" stroke="black" stroke-width="2"/>
<path d="M475.927,197.517h 6.46299" fill="none" stroke="black" stroke-width="2"/>
<path d="M475.927,190.892h 6.46299" fill="none" stroke="black" stroke-width="2"/>
<path d="M475.927,184.267h 6.46299" fill="none" stroke="black" stroke-width="2"/>
<path d="M475.927,177.642h 6.46299" fill="none" stroke="black" stroke-width="2"/>
<path d="M469.464,171.016h 12.926" fill="none" stroke="black" stroke-width="2"/>
<path d="M475.927,164.391h 6.46299" fill="none" stroke="black" stroke-width="2"/>
<path d="M475.927,157.766h 6.46299" fill="none" stroke="black" stroke-width="2"/>
<path d="M475.927,151.14h 6.46299" fill="none" stroke="black" stroke-width="2"/>
<path d="M475.927,144.515h 6.46299" fill="none" stroke="black" stroke-width="2"/>
<path d="M469.464,137.89h 12.926" fill="none" stroke="black" stroke-width="2"/>
<path d="M475.927,131.265h 6.46299" fill="none" stroke="black" stroke-width="2"/>
<path d="M475.927,124.639h 6.46299" fill="none" stroke="black" stroke-width="2"/>
<path d="M475.927,118.014h 6.46299" fill="none" stroke="black" stroke-width="2"/>
<path d="M475.927,111.389h 6.46299" fill="none" stroke="black" stroke-width="2"/>
<path d="M469.464,104.763h 12.926" fill="none" stroke="black" stroke-width="2"/>
<path d="M475.927,98.1381h 6.46299" fill="none" stroke="black" stroke-width="2"/>
<path d="M475.927,91.5128h 6.46299" fill="none" stroke="black" stroke-width="2"/>
<path d="M475.927,84.8875h 6.46299" fill="none" stroke="black" stroke-width="2"/>
<path d="M475.927,78.2622h 6.46299" fill="none" stroke="black" stroke-width="2"/>
<path d="M469.464,71.6369h 12.926" fill="none" stroke="black" stroke-width="2"/>
<path d="M469.464,71.6369h 12.926" fill="none" stroke="black" stroke-width="2"/>
<path d="M475.927,65.0116h 6.46299" fill="none" stroke="black" stroke-width="2"/>
<path d="M475.927,58.3863h 6.46299" fill="none" stroke="black" stroke-width="2"/>
<path d="M475.927,51.761h 6.46299" fill="none" stroke="black" stroke-width="2"/>
<path d="M68.5315,336.649h 30.2117l 0.413858, -0.030298l 0.413858, -0.001317l 0.413858, -0.00137095l 0.413858, -0.00142696l 0.413858, -0.0014851l 0.413858, -0.00154544l 0.413858, -0.00160807l 0.413858, -0.00167306l 0.413858, -0.00174049l 0.413858,
 -0.00181045l 0.413858, -0.00188302l 0.413858, -0.00195829l 0.413858, -0.00203635l 0.413858, -0.00211731l 0.413858, -0.00220125l 0.413858, -0.00228827l 0.413858, -0.00237848l 0.413858, -0.00247199l 0.413858, -0.0025689l 0.413858, -0.00266933l
 0.413858, -0.00277339l 0.413858, -0.0028812l 0.413858, -0.00299288l 0.413858, -0.00310856l 0.413858, -0.00322838l 0.413858, -0.00335245l 0.413858, -0.00348092l 0.413858, -0.00361393l 0.413858, -0.00375163l 0.413858, -0.00389416l 0.413858,
 -0.00404167l 0.413858, -0.00419433l 0.413858, -0.00435228l 0.413858, -0.00451571l 0.413858, -0.00468477l 0.413858, -0.00485965l 0.413858, -0.00504051l 0.413858, -0.00522755l 0.413858, -0.00542096l 0.413858, -0.00562092l 0.413858, -0.00582763l
 0.413858, -0.0060413l 0.413858, -0.00626214l 0.413858, -0.00649036l 0.413858, -0.00672617l 0.413858, -0.00696981l 0.413858, -0.0072215l 0.413858, -0.00748148l 0.413858, -0.00775l 0.413858, -0.00802729l 0.413858, -0.00831361l 0.413858, -0.00860922l
 0.413858, -0.00891439l 0.413858, -0.00922939l 0.413858, -0.00955449l 0.413858, -0.00988999l 0.413858, -0.0102362l 0.413858, -0.0105933l 0.413858, -0.0109618l 0.413858, -0.0113418l 0.413858, -0.0117338l 0.413858, -0.012138l 0.413858, -0.0125547l
 0.413858, -0.0129844l 0.413858, -0.0134274l 0.413858, -0.0138839l 0.413858, -0.0143545l 0.413858, -0.0148394l 0.413858, -0.015339l 0.413858, -0.0158537l 0.413858, -0.016384l 0.413858, -0.0169301l 0.413858, -0.0174926l 0.413858, -0.0180718l 0.413858,
 -0.0186682l 0.413858, -0.0192821l 0.413858, -0.0199141l 0.413858, -0.0205646l 0.413858, -0.021234l 0.413858, -0.0219229l 0.413858, -0.0226316l 0.413858, -0.0233608l 0.413858, -0.0241108l 0.413858, -0.0248822l 0.413858, -0.0256755l 0.413858,
 -0.0264912l 0.413858, -0.0273299l 0.413858, -0.028192l 0.413858, -0.0290782l 0.413858, -0.029989l 0.413858, -0.0309249l 0.413858, -0.0318866l 0.413858, -0.0328746l 0.413858, -0.0338895l 0.413858, -0.034932l 0.413858, -0.0360026l 0.413858,
 -0.0371019l 0.413858, -0.0382307l 0.413858, -0.0393895l 0.413858, -0.0405789l 0.413858, -0.0417998l 0.413858, -0.0430526l 0.413858, -0.0443382l 0.413858, -0.0456571l 0.413858, -0.0470101l 0.413858, -0.0483979l 0.413858, -0.0498213l 0.413858,
 -0.0512808l 0.413858, -0.0527773l 0.413858, -0.0543115l 0.413858, -0.0558842l 0.413858, -0.0574961l 0.413858, -0.0591479l 0.413858, -0.0608406l 0.413858, -0.0625747l 0.413858, -0.0643512l 0.413858, -0.0661709l 0.413858, -0.0680345l 0.413858,
 -0.0699428l 0.413858, -0.0718967l 0.413858, -0.0738971l 0.413858, -0.0759447l 0.413858, -0.0780404l 0.413858, -0.080185l 0.413858, -0.0823794l 0.413858, -0.0846246l 0.413858, -0.0869212l 0.413858, -0.0892702l 0.413858, -0.0916726l 0.413858,
 -0.0941291l 0.413858, -0.0966407l 0.413858, -0.0992083l 0.413858, -0.101833l 0.413858, -0.104515l 0.413858, -0.107256l 0.413858, -0.110056l 0.413858, -0.112917l 0.413858, -0.11584l 0.413858, -0.118824l 0.413858, -0.121872l 0.413858, -0.124984l
 0.413858, -0.128162l 0.413858, -0.131405l 0.413858, -0.134715l 0.413858, -0.138093l 0.413858, -0.14154l 0.413858, -0.145056l 0.413858, -0.148644l 0.413858, -0.152302l 0.413858, -0.156033l 0.413858, -0.159838l 0.413858, -0.163716l 0.413858, -0.16767l
 0.413858, -0.1717l 0.413858, -0.175807l 0.413858, -0.179991l 0.413858, -0.184255l 0.413858, -0.188598l 0.413858, -0.193021l 0.413858, -0.197525l 0.413858, -0.202112l 0.413858, -0.206781l 0.413858, -0.211534l 0.413858, -0.216372l 0.413858, -0.221295l
 0.413858, -0.226304l 0.413858, -0.2314l 0.413858, -0.236584l 0.413858, -0.241855l 0.413858, -0.247216l 0.413858, -0.252667l 0.413858, -0.258208l 0.413858, -0.26384l 0.413858, -0.269564l 0.413858, -0.275381l 0.413858, -0.28129l 0.413858, -0.287293l
 0.413858, -0.29339l 0.413858, -0.299581l 0.413858, -0.305868l 0.413858, -0.31225l 0.413858, -0.318728l 0.413858, -0.325303l 0.413858, -0.331975l 0.413858, -0.338743l 0.413858, -0.34561l 0.413858, -0.352574l 0.413858, -0.359637l 0.413858, -0.366797l
 0.413858, -0.374057l 0.413858, -0.381415l 0.413858, -0.388872l 0.413858, -0.396428l 0.413858, -0.404083l 0.413858, -0.411838l 0.413858, -0.419691l 0.413858, -0.427643l 0.413858, -0.435695l 0.413858, -0.443845l 0.413858, -0.452093l 0.413858,
 -0.46044l 0.413858, -0.468885l 0.413858, -0.477428l 0.413858, -0.486068l 0.413858, -0.494805l 0.413858, -0.503639l 0.413858, -0.512569l 0.413858, -0.521594l 0.413858, -0.530714l 0.413858, -0.539928l 0.413858, -0.549235l 0.413858, -0.558635l
 0.413858, -0.568127l 0.413858, -0.57771l 0.413858, -0.587383l 0.413858, -0.597145l 0.413858, -0.606995l 0.413858, -0.616932l 0.413858, -0.626954l 0.413858, -0.637061l 0.413858, -0.647251l 0.413858, -0.657523l 0.413858, -0.667876l 0.413858,
 -0.678307l 0.413858, -0.688816l 0.413858, -0.6994l 0.413858, -0.710059l 0.413858, -0.72079l 0.413858, -0.731591l 0.413858, -0.742462l 0.413858, -0.753399l 0.413858, -0.764401l 0.413858, -0.775466l 0.413858, -0.786592l 0.413858, -0.797776l 0.413858,
 -0.809017l 0.413858, -0.820311l 0.413858, -0.831657l 0.413858, -0.843053l 0.413858, -0.854494l 0.413858, -0.86598l 0.413858, -0.877508l 0.413858, -0.889074l 0.413858, -0.900676l 0.413858, -0.912311l 0.413858, -0.923976l 0.413858, -0.935668l
 0.413858, -0.947385l 0.413858, -0.959122l 0.413858, -0.970877l 0.413858, -0.982647l 0.413858, -0.994429l 0.413858, -1.00622l 0.413858, -1.01801l 0.413858, -1.02981l 0.413858, -1.0416l 0.413858, -1.05338l 0.413858, -1.06516l 0.413858, -1.07692l
 0.413858, -1.08867l 0.413858, -1.10039l 0.413858, -1.11209l 0.413858, -1.12376l 0.413858, -1.1354l 0.413858, -1.147l 0.413858, -1.15856l 0.413858, -1.17007l 0.413858, -1.18154l 0.413858, -1.19295l 0.413858, -1.2043l 0.413858, -1.21559l 0.413858,
 -1.22681l 0.413858, -1.23796l 0.413858, -1.24904l 0.413858, -1.26003l 0.413858, -1.27094l 0.413858, -1.28176l 0.413858, -1.29249l 0.413858, -1.30311l 0.413858, -1.31364l 0.413858, -1.32405l 0.413858, -1.33435l 0.413858, -1.34454l 0.413858, -1.3546l
 0.413858, -1.36453l 0.413858, -1.37433l 0.413858, -1.384l 0.413858, -1.39352l 0.413858, -1.4029l 0.413858, -1.41212l 0.413858, -1.42119l 0.413858, -1.43009l 0.413858, -1.43883l 0.413858, -1.4474l 0.413858, -1.45579l 0.413858, -1.464l 0.413858,
 -1.47203l 0.413858, -1.47986l 0.413858, -1.4875l 0.413858, -1.49494l 0.413858, -1.50217l 0.413858, -1.50919l 0.413858, -1.516l 0.413858, -1.52258l 0.413858, -1.52895l 0.413858, -1.53508l 0.413858, -1.54098l 0.413858, -1.54664l 0.413858, -1.55206l
 0.413858, -1.55722l 0.413858, -1.56214l 0.413858, -1.5668l 0.413858, -1.5712l 0.413858, -1.57534l 0.413858, -1.5792l 0.413858, -1.58279l 0.413858, -1.58611l 0.413858, -1.58914l 0.413858, -1.59188l 0.413858, -1.59434l 0.413858, -1.5965l 0.413858,
 -1.59836l 0.413858, -1.59992l 0.413858, -1.60117l 0.413858, -1.60212l 0.413858, -1.60276l 0.413858, -1.60307l 0.413858, -1.60307l 0.413858, -1.60275l 0.413858, -1.6021l 0.413858, -1.60113l 0.413858, -1.59982l 0.413858, -1.59818l 0.413858, -1.5962l
 0.413858, -1.59388l 0.413858, -1.59122l 0.413858, -1.58822l 0.413858, -1.58487l 0.413858, -1.58117l 0.413858, -1.57712l 0.413858, -1.57272l 0.413858, -1.56797l 0.413858, -1.56286l 0.413858, -1.55739l 0.413858, -1.55156l 0.413858, -1.54538l 0.413858,
 -1.53883l 0.413858, -1.53192l 0.413858, -1.52465l 0.413858, -1.51701l 0.413858, -1.50901l 0.413858, -1.50065l 0.413858, -1.49192l 0.413858, -1.48282l 0.413858, -1.47337l 0.413858, -1.46354l 0.413858, -1.45336l 0.413858, -1.44281l 0.413858, -1.43189l
 0.413858, -1.42062l 0.413858, -1.40898l 0.413858, -1.39698l 0.413858, -1.38462l 0.413858, -1.37191l 0.413858, -1.35884l 0.413858, -1.34541l 0.413858, -1.33163l 0.413858, -1.3175l 0.413858, -1.30303l 0.413858, -1.2882l 0.413858, -1.27303l 0.413858,
 -1.25753l 0.413858, -1.24168l 0.413858, -1.22549l 0.413858, -1.20898l 0.413858, -1.19213l 0.413858, -1.17496l 0.413858, -1.15747l 0.413858, -1.13966l 0.413858, -1.12153l 0.413858, -1.10309l 0.413858, -1.08434l 0.413858, -1.06529l 0.413858, -1.04595l
 0.413858, -1.02631l 0.413858, -1.00638l 0.413858, -0.986161l 0.413858, -0.965666l 0.413858, -0.944896l 0.413858, -0.923858l 0.413858, -0.902555l 0.413858, -0.880993l 0.413858, -0.859178l 0.413858, -0.837116l 0.413858, -0.814812l 0.413858, -0.792272l
 0.413858, -0.769502l 0.413858, -0.746509l 0.413858, -0.723298l 0.413858, -0.699876l 0.413858, -0.676249l 0.413858, -0.652424l 0.413858, -0.628408l 0.413858, -0.604207l 0.413858, -0.579828l 0.413858, -0.555278l 0.413858, -0.530565l 0.413858,
 -0.505694l 0.413858, -0.480673l 0.413858, -0.45551l 0.413858, -0.430212l 0.413858, -0.404785l 0.413858, -0.379238l 0.413858, -0.353579l 0.413858, -0.327814l 0.413858, -0.301951l 0.413858, -0.275997l 0.413858, -0.249962l 0.413858, -0.223851l
 0.413858, -0.197674l 0.413858, -0.171437l 0.413858, -0.14515l 0.413858, -0.118818l 0.413858, -0.0924511l 0.413858, -0.0660563l 0.413858, -0.0396417l 0.413858, -0.0132152l 0.413858, 0.0132152l 0.413858, 0.0396417l 0.413858, 0.0660563l 0.413858,
 0.0924511l 0.413858, 0.118818l 0.413858, 0.14515l 0.413858, 0.171437l 0.413858, 0.197674l 0.413858, 0.223851l 0.413858, 0.249962l 0.413858, 0.275997l 0.413858, 0.301951l 0.413858, 0.327814l 0.413858, 0.353579l 0.413858, 0.379238l 0.413858, 0.404785l
 0.413858, 0.430212l 0.413858, 0.45551l 0.413858, 0.480673l 0.413858, 0.505694l 0.413858, 0.530565l 0.413858, 0.555278l 0.413858, 0.579828l 0.413858, 0.604207l 0.413858, 0.628408l 0.413858, 0.652424l 0.413858, 0.676249l 0.413858, 0.699876l 0.413858,
 0.723298l 0.413858, 0.746509l 0.413858, 0.769502l 0.413858, 0.792272l 0.413858, 0.814812l 0.413858, 0.837116l 0.413858, 0.859178l 0.413858, 0.880993l 0.413858, 0.902555l 0.413858, 0.923858l 0.413858, 0.944896l 0.413858, 0.965666l 0.413858, 0.986161l
 0.413858, 1.00638l 0.413858, 1.02631l 0.413858, 1.04595l 0.413858, 1.06529l 0.413858, 1.08434l 0.413858, 1.10309l 0.413858, 1.12153l 0.413858, 1.13966l 0.413858, 1.15747l 0.413858, 1.17496l 0.413858, 1.19213l 0.413858, 1.20898l 0.413858, 1.22549l
 0.413858, 1.24168l 0.413858, 1.25753l 0.413858, 1.27303l 0.413858, 1.2882l 0.413858, 1.30303l 0.413858, 1.3175l 0.413858, 1.33163l 0.413858, 1.34541l 0.413858, 1.35884l 0.413858, 1.37191l 0.413858, 1.38462l 0.413858, 1.39698l 0.413858, 1.40898l
 0.413858, 1.42062l 0.413858, 1.43189l 0.413858, 1.44281l 0.413858, 1.45336l 0.413858, 1.46354l 0.413858, 1.47337l 0.413858, 1.48282l 0.413858, 1.49192l 0.413858, 1.50065l 0.413858, 1.50901l 0.413858, 1.51701l 0.413858, 1.52465l 0.413858, 1.53192l
 0.413858, 1.53883l 0.413858, 1.54538l 0.413858, 1.55156l 0.413858, 1.55739l 0.413858, 1.56286l 0.413858, 1.56797l 0.413858, 1.57272l 0.413858, 1.57712l 0.413858, 1.58117l 0.413858, 1.58487l 0.413858, 1.58822l 0.413858, 1.59122l 0.413858, 1.59388l
 0.413858, 1.5962l 0.413858, 1.59818l 0.413858, 1.59982l 0.413858, 1.60113l 0.413858, 1.6021l 0.413858, 1.60275l 0.413858, 1.60307l 0.413858, 1.60307l 0.413858, 1.60276l 0.413858, 1.60212l 0.413858, 1.60117l 0.413858, 1.59992l 0.413858, 1.59836l
 0.413858, 1.5965l 0.413858, 1.59434l 0.413858, 1.59188l 0.413858, 1.58914l 0.413858, 1.58611l 0.413858, 1.58279l 0.413858, 1.5792l 0.413858, 1.57534l 0.413858, 1.5712l 0.413858, 1.5668l 0.413858, 1.56214l 0.413858, 1.55722l 0.413858, 1.55206l
 0.413858, 1.54664l 0.413858, 1.54098l 0.413858, 1.53508l 0.413858, 1.52895l 0.413858, 1.52258l 0.413858, 1.516l 0.413858, 1.50919l 0.413858, 1.50217l 0.413858, 1.49494l 0.413858, 1.4875l 0.413858, 1.47986l 0.413858, 1.47203l 0.413858, 1.464l
 0.413858, 1.45579l 0.413858, 1.4474l 0.413858, 1.43883l 0.413858, 1.43009l 0.413858, 1.42119l 0.413858, 1.41212l 0.413858, 1.4029l 0.413858, 1.39352l 0.413858, 1.384l 0.413858, 1.37433l 0.413858, 1.36453l 0.413858, 1.3546l 0.413858, 1.34454l
 0.413858, 1.33435l 0.413858, 1.32405l 0.413858, 1.31364l 0.413858, 1.30311l 0.413858, 1.29249l 0.413858, 1.28176l 0.413858, 1.27094l 0.413858, 1.26003l 0.413858, 1.24904l 0.413858, 1.23796l 0.413858, 1.22681l 0.413858, 1.21559l 0.413858, 1.2043l
 0.413858, 1.19295l 0.413858, 1.18154l 0.413858, 1.17007l 0.413858, 1.15856l 0.413858, 1.147l 0.413858, 1.1354l 0.413858, 1.12376l 0.413858, 1.11209l 0.413858, 1.10039l 0.413858, 1.08867l 0.413858, 1.07692l 0.413858, 1.06516l 0.413858, 1.05338l
 0.413858, 1.0416l 0.413858, 1.02981l 0.413858, 1.01801l 0.413858, 1.00622l 0.413858, 0.994429l 0.413858, 0.982647l 0.413858, 0.970877l 0.413858, 0.959122l 0.413858, 0.947385l 0.413858, 0.935668l 0.413858, 0.923976l 0.413858, 0.912311l 0.413858,
 0.900676l 0.413858, 0.889074l 0.413858, 0.877508l 0.413858, 0.86598l 0.413858, 0.854494l 0.413858, 0.843053l 0.413858, 0.831657l 0.413858, 0.820311l 0.413858, 0.809017l 0.413858, 0.797776l 0.413858, 0.786592l 0.413858, 0.775466l 0.413858, 0.764401l
 0.413858, 0.753399l 0.413858, 0.742462l 0.413858, 0.731591l 0.413858, 0.72079l 0.413858, 0.710059l 0.413858, 0.6994l 0.413858, 0.688816l 0.413858, 0.678307l 0.413858, 0.667876l 0.413858, 0.657523l 0.413858, 0.647251l 0.413858, 0.637061l 0.413858,
 0.626954l 0.413858, 0.616932l 0.413858, 0.606995l 0.413858, 0.597145l 0.413858, 0.587383l 0.413858, 0.57771l 0.413858, 0.568127l 0.413858, 0.558635l 0.413858, 0.549235l 0.413858, 0.539928l 0.413858, 0.530714l 0.413858, 0.521594l 0.413858, 0.512569l
 0.413858, 0.503639l 0.413858, 0.494805l 0.413858, 0.486068l 0.413858, 0.477428l 0.413858, 0.468885l 0.413858, 0.46044l 0.413858, 0.452093l 0.413858, 0.443845l 0.413858, 0.435695l 0.413858, 0.427643l 0.413858, 0.419691l 0.413858, 0.411838l 0.413858,
 0.404083l 0.413858, 0.396428l 0.413858, 0.388872l 0.413858, 0.381415l 0.413858, 0.374057l 0.413858, 0.366797l 0.413858, 0.359637l 0.413858, 0.352574l 0.413858, 0.34561l 0.413858, 0.338743l 0.413858, 0.331975l 0.413858, 0.325303l 0.413858, 0.318728l
 0.413858, 0.31225l 0.413858, 0.305868l 0.413858, 0.299581l 0.413858, 0.29339l 0.413858, 0.287293l 0.413858, 0.28129l 0.413858, 0.275381l 0.413858, 0.269564l 0.413858, 0.26384l 0.413858, 0.258208l 0.413858, 0.252667l 0.413858, 0.247216l 0.413858,
 0.241855l 0.413858, 0.236584l 0.413858, 0.2314l 0.413858, 0.226304l 0.413858, 0.221295l 0.413858, 0.216372l 0.413858, 0.211534l 0.413858, 0.206781l 0.413858, 0.202112l 0.413858, 0.197525l 0.413858, 0.193021l 0.413858, 0.188598l 0.413858, 0.184255l
 0.413858, 0.179991l 0.413858, 0.175807l 0.413858, 0.1717l 0.413858, 0.16767l 0.413858, 0.163716l 0.413858, 0.159838l 0.413858, 0.156033l 0.413858, 0.152302l 0.413858, 0.148644l 0.413858, 0.145056l 0.413858, 0.14154l 0.413858, 0.138093l 0.413858,
 0.134715l 0.413858, 0.131405l 0.413858, 0.128162l 0.413858, 0.124984l 0.413858, 0.121872l 0.413858, 0.118824l 0.413858, 0.11584l 0.413858, 0.112917l 0.413858, 0.110056l 0.413858, 0.107256l 0.413858, 0.104515l 0.413858, 0.101833l 0.413858, 0.0992083l
 0.413858, 0.0966407l 0.413858, 0.0941291l 0.413858, 0.0916726l 0.413858, 0.0892702l 0.413858, 0.0869212l 0.413858, 0.0846246l 0.413858, 0.0823794l 0.413858, 0.080185l 0.413858, 0.0780404l 0.413858, 0.0759447l 0.413858, 0.0738971l 0.413858,
 0.0718967l 0.413858, 0.0699428l 0.413858, 0.0680345l 0.413858, 0.0661709l 0.413858, 0.0643512l 0.413858, 0.0625747l 0.413858, 0.0608406l 0.413858, 0.0591479l 0.413858, 0.0574961l 0.413858, 0.0558842l 0.413858, 0.0543115l 0.413858, 0.0527773l
 0.413858, 0.0512808l 0.413858, 0.0498213l 0.413858, 0.0483979l 0.413858, 0.0470101l 0.413858, 0.0456571l 0.413858, 0.0443382l 0.413858, 0.0430526l 0.413858, 0.0417998l 0.413858, 0.0405789l 0.413858, 0.0393895l 0.413858, 0.0382307l 0.413858,
 0.0371019l 0.413858, 0.0360026l 0.413858, 0.034932l 0.413858, 0.0338895l 0.413858, 0.0328746l 0.413858, 0.0318866l 0.413858, 0.0309249l 0.413858, 0.029989l 0.413858, 0.0290782l 0.413858, 0.028192l 0.413858, 0.0273299l 0.413858, 0.0264912l 0.413858,
 0.0256755l 0.413858, 0.0248822l 0.413858, 0.0241108l 0.413858, 0.0233608l 0.413858, 0.0226316l 0.413858, 0.0219229l 0.413858, 0.021234l 0.413858, 0.0205646l 0.413858, 0.0199141l 0.413858, 0.0192821l 0.413858, 0.0186682l 0.413858, 0.0180718l
 0.413858, 0.0174926l 0.413858, 0.0169301l 0.413858, 0.016384l 0.413858, 0.0158537l 0.413858, 0.015339l 0.413858, 0.0148394l 0.413858, 0.0143545l 0.413858, 0.0138839l 0.413858, 0.0134274l 0.413858, 0.0129844l 0.413858, 0.0125547l 0.413858, 0.012138l
 0.413858, 0.0117338l 0.413858, 0.0113418l 0.413858, 0.0109618l 0.413858, 0.0105933l 0.413858, 0.0102362l 0.413858, 0.00988999l 0.413858, 0.00955449l 0.413858, 0.00922939l 0.413858, 0.00891439l 0.413858, 0.00860922l 0.413858, 0.00831361l 0.413858,
 0.00802729l 0.413858, 0.00775l 0.413858, 0.00748148l 0.413858, 0.0072215l 0.413858, 0.00696981l 0.413858, 0.00672617l 0.413858, 0.00649036l 0.413858, 0.00626214l 0.413858, 0.0060413l 0.413858, 0.00582763l 0.413858, 0.00562092l 0.413858, 0.00542096l
 0.413858, 0.00522755l 0.413858, 0.00504051l 0.413858, 0.00485965l 0.413858, 0.00468477l 0.413858, 0.00451571l 0.413858, 0.00435228l 0.413858, 0.00419433l 0.413858, 0.00404167l 0.413858, 0.00389416l 0.413858, 0.00375163l 0.413858, 0.00361393l
 0.413858, 0.00348092l 0.413858, 0.00335245l 0.413858, 0.00322838l 0.413858, 0.00310856l 0.413858, 0.00299288l 0.413858, 0.0028812l 0.413858, 0.00277339l 0.413858, 0.00266933l 0.413858, 0.0025689l 0.413858, 0.00247199l 0.413858, 0.00237848l 0.413858,
 0.00228827l 0.413858, 0.00220125l 0.413858, 0.00211731l 0.413858, 0.00203635l 0.413858, 0.00195829l 0.413858, 0.00188302l 0.413858, 0.00181045l 0.413858, 0.00174049l 0.413858, 0.00167306l 0.413858, 0.00160807l 0.413858, 0.00154544l 0.413858,
 0.0014851l 0.413858, 0.00142696l 0.413858, 0.00137095l 0.413858, 0.001317l 0.413858, 0.030298h 29.7978" fill="none" stroke="black" stroke-width="2"/></svg>
