<?xml version="1.0" standalone="no"?>
<svg width="567.429" height="383.055" viewBox="0 0 567.429 383.055" xmlns="http://www.w3.org/2000/svg" shape-rendering="crispEdges">
<title>
/mnt/c/Users/Masahiro/OneDrive/YMAP/ROOT2020/ROOT2020/yoshimoto/svg_root/normal_dist3.svg
</title>
<desc>
Creator: ROOT Version 6.20/04
CreationDate: Sun May 17 21:46:41 2020</desc>
<defs>
</defs>
<rect x="0.5" y="0" width="566.929" height="382.555" fill="white" fill-opacity="0.0"/>
<rect x="68.5315" y="45.9066" width="413.858" height="290.742" fill="white"/>
<rect x="68.5315" y="45.9066" width="413.858" height="290.742" fill="none" stroke="black"/>
<rect x="68.5315" y="45.9066" width="413.858" height="290.742" fill="white"/>
<rect x="68.5315" y="45.9066" width="413.858" height="290.742" fill="none" stroke="black"/>
<path d="M68.5315,336.649h 413.858" fill="none" stroke="black" stroke-width="2"/>
<path d="M68.5315,328.271v 8.37796" fill="none" stroke="black" stroke-width="2"/>
<path d="M76.8087,332.46v 4.18898" fill="none" stroke="black" stroke-width="2"/>
<path d="M85.0858,332.46v 4.18898" fill="none" stroke="black" stroke-width="2"/>
<path d="M93.363,332.46v 4.18898" fill="none" stroke="black" stroke-width="2"/>
<path d="M101.64,332.46v 4.18898" fill="none" stroke="black" stroke-width="2"/>
<path d="M109.917,328.271v 8.37796" fill="none" stroke="black" stroke-width="2"/>
<path d="M118.194,332.46v 4.18898" fill="none" stroke="black" stroke-width="2"/>
<path d="M126.472,332.46v 4.18898" fill="none" stroke="black" stroke-width="2"/>
<path d="M134.749,332.46v 4.18898" fill="none" stroke="black" stroke-width="2"/>
<path d="M143.026,332.46v 4.18898" fill="none" stroke="black" stroke-width="2"/>
<path d="M151.303,328.271v 8.37796" fill="none" stroke="black" stroke-width="2"/>
<path d="M159.58,332.46v 4.18898" fill="none" stroke="black" stroke-width="2"/>
<path d="M167.857,332.46v 4.18898" fill="none" stroke="black" stroke-width="2"/>
<path d="M176.135,332.46v 4.18898" fill="none" stroke="black" stroke-width="2"/>
<path d="M184.412,332.46v 4.18898" fill="none" stroke="black" stroke-width="2"/>
<path d="M192.689,328.271v 8.37796" fill="none" stroke="black" stroke-width="2"/>
<path d="M200.966,332.46v 4.18898" fill="none" stroke="black" stroke-width="2"/>
<path d="M209.243,332.46v 4.18898" fill="none" stroke="black" stroke-width="2"/>
<path d="M217.52,332.46v 4.18898" fill="none" stroke="black" stroke-width="2"/>
<path d="M225.798,332.46v 4.18898" fill="none" stroke="black" stroke-width="2"/>
<path d="M234.075,328.271v 8.37796" fill="none" stroke="black" stroke-width="2"/>
<path d="M242.352,332.46v 4.18898" fill="none" stroke="black" stroke-width="2"/>
<path d="M250.629,332.46v 4.18898" fill="none" stroke="black" stroke-width="2"/>
<path d="M258.906,332.46v 4.18898" fill="none" stroke="black" stroke-width="2"/>
<path d="M267.183,332.46v 4.18898" fill="none" stroke="black" stroke-width="2"/>
<path d="M275.461,328.271v 8.37796" fill="none" stroke="black" stroke-width="2"/>
<path d="M283.738,332.46v 4.18898" fill="none" stroke="black" stroke-width="2"/>
<path d="M292.015,332.46v 4.18898" fill="none" stroke="black" stroke-width="2"/>
<path d="M300.292,332.46v 4.18898" fill="none" stroke="black" stroke-width="2"/>
<path d="M308.569,332.46v 4.18898" fill="none" stroke="black" stroke-width="2"/>
<path d="M316.846,328.271v 8.37796" fill="none" stroke="black" stroke-width="2"/>
<path d="M325.124,332.46v 4.18898" fill="none" stroke="black" stroke-width="2"/>
<path d="M333.401,332.46v 4.18898" fill="none" stroke="black" stroke-width="2"/>
<path d="M341.678,332.46v 4.18898" fill="none" stroke="black" stroke-width="2"/>
<path d="M349.955,332.46v 4.18898" fill="none" stroke="black" stroke-width="2"/>
<path d="M358.232,328.271v 8.37796" fill="none" stroke="black" stroke-width="2"/>
<path d="M366.509,332.46v 4.18898" fill="none" stroke="black" stroke-width="2"/>
<path d="M374.787,332.46v 4.18898" fill="none" stroke="black" stroke-width="2"/>
<path d="M383.064,332.46v 4.18898" fill="none" stroke="black" stroke-width="2"/>
<path d="M391.341,332.46v 4.18898" fill="none" stroke="black" stroke-width="2"/>
<path d="M399.618,328.271v 8.37796" fill="none" stroke="black" stroke-width="2"/>
<path d="M407.895,332.46v 4.18898" fill="none" stroke="black" stroke-width="2"/>
<path d="M416.172,332.46v 4.18898" fill="none" stroke="black" stroke-width="2"/>
<path d="M424.45,332.46v 4.18898" fill="none" stroke="black" stroke-width="2"/>
<path d="M432.727,332.46v 4.18898" fill="none" stroke="black" stroke-width="2"/>
<path d="M441.004,328.271v 8.37796" fill="none" stroke="black" stroke-width="2"/>
<path d="M449.281,332.46v 4.18898" fill="none" stroke="black" stroke-width="2"/>
<path d="M457.558,332.46v 4.18898" fill="none" stroke="black" stroke-width="2"/>
<path d="M465.835,332.46v 4.18898" fill="none" stroke="black" stroke-width="2"/>
<path d="M474.113,332.46v 4.18898" fill="none" stroke="black" stroke-width="2"/>
<path d="M482.39,328.271v 8.37796" fill="none" stroke="black" stroke-width="2"/>
<text xml:space="preserve" x="67.102" y="352.503" fill="black" font-size="14.5387" font-family="Helvetica">5</text>
<text xml:space="preserve" x="59.792" y="352.503" fill="black" font-size="14.5387" font-family="Times">&#8722;</text>
<text xml:space="preserve" x="108.525" y="352.503" fill="black" font-size="14.5387" font-family="Helvetica">4</text>
<text xml:space="preserve" x="101.215" y="352.503" fill="black" font-size="14.5387" font-family="Times">&#8722;</text>
<text xml:space="preserve" x="149.948" y="352.503" fill="black" font-size="14.5387" font-family="Helvetica">3</text>
<text xml:space="preserve" x="142.638" y="352.503" fill="black" font-size="14.5387" font-family="Times">&#8722;</text>
<text xml:space="preserve" x="191.372" y="352.503" fill="black" font-size="14.5387" font-family="Helvetica">2</text>
<text xml:space="preserve" x="184.062" y="352.503" fill="black" font-size="14.5387" font-family="Times">&#8722;</text>
<text xml:space="preserve" x="234.419" y="352.503" fill="black" font-size="14.5387" font-family="Helvetica">1</text>
<text xml:space="preserve" x="226.297" y="352.503" fill="black" font-size="14.5387" font-family="Times">&#8722;</text>
<text xml:space="preserve" x="270.969" y="352.503" fill="black" font-size="14.5387" font-family="Helvetica">0</text>
<text xml:space="preserve" x="313.204" y="352.503" fill="black" font-size="14.5387" font-family="Helvetica">1</text>
<text xml:space="preserve" x="353.815" y="352.503" fill="black" font-size="14.5387" font-family="Helvetica">2</text>
<text xml:space="preserve" x="395.239" y="352.503" fill="black" font-size="14.5387" font-family="Helvetica">3</text>
<text xml:space="preserve" x="436.662" y="352.503" fill="black" font-size="14.5387" font-family="Helvetica">4</text>
<text xml:space="preserve" x="478.085" y="352.503" fill="black" font-size="14.5387" font-family="Helvetica">5</text>
<text xml:space="preserve" x="474.836" y="372.809" fill="black" font-size="14.5387" font-family="Helvetica">x</text>
<path d="M68.5315,45.9066h 413.858" fill="none" stroke="black" stroke-width="2"/>
<path d="M68.5315,54.2846v -8.37796" fill="none" stroke="black" stroke-width="2"/>
<path d="M76.8087,50.0956v -4.18898" fill="none" stroke="black" stroke-width="2"/>
<path d="M85.0858,50.0956v -4.18898" fill="none" stroke="black" stroke-width="2"/>
<path d="M93.363,50.0956v -4.18898" fill="none" stroke="black" stroke-width="2"/>
<path d="M101.64,50.0956v -4.18898" fill="none" stroke="black" stroke-width="2"/>
<path d="M109.917,54.2846v -8.37796" fill="none" stroke="black" stroke-width="2"/>
<path d="M118.194,50.0956v -4.18898" fill="none" stroke="black" stroke-width="2"/>
<path d="M126.472,50.0956v -4.18898" fill="none" stroke="black" stroke-width="2"/>
<path d="M134.749,50.0956v -4.18898" fill="none" stroke="black" stroke-width="2"/>
<path d="M143.026,50.0956v -4.18898" fill="none" stroke="black" stroke-width="2"/>
<path d="M151.303,54.2846v -8.37796" fill="none" stroke="black" stroke-width="2"/>
<path d="M159.58,50.0956v -4.18898" fill="none" stroke="black" stroke-width="2"/>
<path d="M167.857,50.0956v -4.18898" fill="none" stroke="black" stroke-width="2"/>
<path d="M176.135,50.0956v -4.18898" fill="none" stroke="black" stroke-width="2"/>
<path d="M184.412,50.0956v -4.18898" fill="none" stroke="black" stroke-width="2"/>
<path d="M192.689,54.2846v -8.37796" fill="none" stroke="black" stroke-width="2"/>
<path d="M200.966,50.0956v -4.18898" fill="none" stroke="black" stroke-width="2"/>
<path d="M209.243,50.0956v -4.18898" fill="none" stroke="black" stroke-width="2"/>
<path d="M217.52,50.0956v -4.18898" fill="none" stroke="black" stroke-width="2"/>
<path d="M225.798,50.0956v -4.18898" fill="none" stroke="black" stroke-width="2"/>
<path d="M234.075,54.2846v -8.37796" fill="none" stroke="black" stroke-width="2"/>
<path d="M242.352,50.0956v -4.18898" fill="none" stroke="black" stroke-width="2"/>
<path d="M250.629,50.0956v -4.18898" fill="none" stroke="black" stroke-width="2"/>
<path d="M258.906,50.0956v -4.18898" fill="none" stroke="black" stroke-width="2"/>
<path d="M267.183,50.0956v -4.18898" fill="none" stroke="black" stroke-width="2"/>
<path d="M275.461,54.2846v -8.37796" fill="none" stroke="black" stroke-width="2"/>
<path d="M283.738,50.0956v -4.18898" fill="none" stroke="black" stroke-width="2"/>
<path d="M292.015,50.0956v -4.18898" fill="none" stroke="black" stroke-width="2"/>
<path d="M300.292,50.0956v -4.18898" fill="none" stroke="black" stroke-width="2"/>
<path d="M308.569,50.0956v -4.18898" fill="none" stroke="black" stroke-width="2"/>
<path d="M316.846,54.2846v -8.37796" fill="none" stroke="black" stroke-width="2"/>
<path d="M325.124,50.0956v -4.18898" fill="none" stroke="black" stroke-width="2"/>
<path d="M333.401,50.0956v -4.18898" fill="none" stroke="black" stroke-width="2"/>
<path d="M341.678,50.0956v -4.18898" fill="none" stroke="black" stroke-width="2"/>
<path d="M349.955,50.0956v -4.18898" fill="none" stroke="black" stroke-width="2"/>
<path d="M358.232,54.2846v -8.37796" fill="none" stroke="black" stroke-width="2"/>
<path d="M366.509,50.0956v -4.18898" fill="none" stroke="black" stroke-width="2"/>
<path d="M374.787,50.0956v -4.18898" fill="none" stroke="black" stroke-width="2"/>
<path d="M383.064,50.0956v -4.18898" fill="none" stroke="black" stroke-width="2"/>
<path d="M391.341,50.0956v -4.18898" fill="none" stroke="black" stroke-width="2"/>
<path d="M399.618,54.2846v -8.37796" fill="none" stroke="black" stroke-width="2"/>
<path d="M407.895,50.0956v -4.18898" fill="none" stroke="black" stroke-width="2"/>
<path d="M416.172,50.0956v -4.18898" fill="none" stroke="black" stroke-width="2"/>
<path d="M424.45,50.0956v -4.18898" fill="none" stroke="black" stroke-width="2"/>
<path d="M432.727,50.0956v -4.18898" fill="none" stroke="black" stroke-width="2"/>
<path d="M441.004,54.2846v -8.37796" fill="none" stroke="black" stroke-width="2"/>
<path d="M449.281,50.0956v -4.18898" fill="none" stroke="black" stroke-width="2"/>
<path d="M457.558,50.0956v -4.18898" fill="none" stroke="black" stroke-width="2"/>
<path d="M465.835,50.0956v -4.18898" fill="none" stroke="black" stroke-width="2"/>
<path d="M474.113,50.0956v -4.18898" fill="none" stroke="black" stroke-width="2"/>
<path d="M482.39,54.2846v -8.37796" fill="none" stroke="black" stroke-width="2"/>
<path d="M68.5315,336.649v -290.742" fill="none" stroke="black" stroke-width="2"/>
<path d="M81.4575,336.649h -12.926" fill="none" stroke="black" stroke-width="2"/>
<path d="M74.9945,323.398h -6.46299" fill="none" stroke="black" stroke-width="2"/>
<path d="M74.9945,310.148h -6.46299" fill="none" stroke="black" stroke-width="2"/>
<path d="M74.9945,296.897h -6.46299" fill="none" stroke="black" stroke-width="2"/>
<path d="M81.4575,283.646h -12.926" fill="none" stroke="black" stroke-width="2"/>
<path d="M74.9945,270.396h -6.46299" fill="none" stroke="black" stroke-width="2"/>
<path d="M74.9945,257.145h -6.46299" fill="none" stroke="black" stroke-width="2"/>
<path d="M74.9945,243.895h -6.46299" fill="none" stroke="black" stroke-width="2"/>
<path d="M81.4575,230.644h -12.926" fill="none" stroke="black" stroke-width="2"/>
<path d="M74.9945,217.393h -6.46299" fill="none" stroke="black" stroke-width="2"/>
<path d="M74.9945,204.143h -6.46299" fill="none" stroke="black" stroke-width="2"/>
<path d="M74.9945,190.892h -6.46299" fill="none" stroke="black" stroke-width="2"/>
<path d="M81.4575,177.642h -12.926" fill="none" stroke="black" stroke-width="2"/>
<path d="M74.9945,164.391h -6.46299" fill="none" stroke="black" stroke-width="2"/>
<path d="M74.9945,151.14h -6.46299" fill="none" stroke="black" stroke-width="2"/>
<path d="M74.9945,137.89h -6.46299" fill="none" stroke="black" stroke-width="2"/>
<path d="M81.4575,124.639h -12.926" fill="none" stroke="black" stroke-width="2"/>
<path d="M74.9945,111.389h -6.46299" fill="none" stroke="black" stroke-width="2"/>
<path d="M74.9945,98.1381h -6.46299" fill="none" stroke="black" stroke-width="2"/>
<path d="M74.9945,84.8876h -6.46299" fill="none" stroke="black" stroke-width="2"/>
<path d="M81.4575,71.637h -12.926" fill="none" stroke="black" stroke-width="2"/>
<path d="M81.4575,71.637h -12.926" fill="none" stroke="black" stroke-width="2"/>
<path d="M74.9945,58.3864h -6.46299" fill="none" stroke="black" stroke-width="2"/>
<text xml:space="preserve" x="54.1065" y="341.944" fill="black" font-size="14.5387" font-family="Helvetica">0</text>
<text xml:space="preserve" x="41.9232" y="289.15" fill="black" font-size="14.5387" font-family="Helvetica">0.2</text>
<text xml:space="preserve" x="41.9232" y="235.544" fill="black" font-size="14.5387" font-family="Helvetica">0.4</text>
<text xml:space="preserve" x="41.9232" y="182.749" fill="black" font-size="14.5387" font-family="Helvetica">0.6</text>
<text xml:space="preserve" x="41.9232" y="129.955" fill="black" font-size="14.5387" font-family="Helvetica">0.8</text>
<text xml:space="preserve" x="56.5431" y="77.1608" fill="black" font-size="14.5387" font-family="Helvetica">1</text>
<g transform="rotate(-90,24.8666,164.068)">
<text xml:space="preserve" x="24.8666" y="164.068" fill="black" font-size="14.5387" font-family="Helvetica">Probability density</text>
</g>
<path d="M482.39,336.649v -290.742" fill="none" stroke="black" stroke-width="2"/>
<path d="M469.464,336.649h 12.926" fill="none" stroke="black" stroke-width="2"/>
<path d="M475.927,323.398h 6.46299" fill="none" stroke="black" stroke-width="2"/>
<path d="M475.927,310.148h 6.46299" fill="none" stroke="black" stroke-width="2"/>
<path d="M475.927,296.897h 6.46299" fill="none" stroke="black" stroke-width="2"/>
<path d="M469.464,283.646h 12.926" fill="none" stroke="black" stroke-width="2"/>
<path d="M475.927,270.396h 6.46299" fill="none" stroke="black" stroke-width="2"/>
<path d="M475.927,257.145h 6.46299" fill="none" stroke="black" stroke-width="2"/>
<path d="M475.927,243.895h 6.46299" fill="none" stroke="black" stroke-width="2"/>
<path d="M469.464,230.644h 12.926" fill="none" stroke="black" stroke-width="2"/>
<path d="M475.927,217.393h 6.46299" fill="none" stroke="black" stroke-width="2"/>
<path d="M475.927,204.143h 6.46299" fill="none" stroke="black" stroke-width="2"/>
<path d="M475.927,190.892h 6.46299" fill="none" stroke="black" stroke-width="2"/>
<path d="M469.464,177.642h 12.926" fill="none" stroke="black" stroke-width="2"/>
<path d="M475.927,164.391h 6.46299" fill="none" stroke="black" stroke-width="2"/>
<path d="M475.927,151.14h 6.46299" fill="none" stroke="black" stroke-width="2"/>
<path d="M475.927,137.89h 6.46299" fill="none" stroke="black" stroke-width="2"/>
<path d="M469.464,124.639h 12.926" fill="none" stroke="black" stroke-width="2"/>
<path d="M475.927,111.389h 6.46299" fill="none" stroke="black" stroke-width="2"/>
<path d="M475.927,98.1381h 6.46299" fill="none" stroke="black" stroke-width="2"/>
<path d="M475.927,84.8876h 6.46299" fill="none" stroke="black" stroke-width="2"/>
<path d="M469.464,71.637h 12.926" fill="none" stroke="black" stroke-width="2"/>
<path d="M469.464,71.637h 12.926" fill="none" stroke="black" stroke-width="2"/>
<path d="M475.927,58.3864h 6.46299" fill="none" stroke="black" stroke-width="2"/>
<path d="M68.5315,336.649h 198.238l 0.413858, -0.031615l 0.413858, -0.00353305l 0.413858, -0.00390346l 0.413858, -0.00430986l 0.413858, -0.00475543l 0.413858, -0.0052436l 0.413858, -0.00577806l 0.413858, -0.00636277l 0.413858, -0.00700202l 0.413858,
 -0.00770039l 0.413858, -0.0084628l 0.413858, -0.00929451l 0.413858, -0.0102012l 0.413858, -0.0111889l 0.413858, -0.012264l 0.413858, -0.0134336l 0.413858, -0.0147048l 0.413858, -0.0160856l 0.413858, -0.0175844l 0.413858, -0.0192099l 0.413858,
 -0.0209717l 0.413858, -0.0228797l 0.413858, -0.0249447l 0.413858, -0.0271778l 0.413858, -0.0295909l 0.413858, -0.0321966l 0.413858, -0.0350083l 0.413858, -0.0380399l 0.413858, -0.0413063l 0.413858, -0.0448228l 0.413858, -0.0486059l 0.413858,
 -0.0526727l 0.413858, -0.0570412l 0.413858, -0.0617302l 0.413858, -0.0667593l 0.413858, -0.0721492l 0.413858, -0.0779214l 0.413858, -0.084098l 0.413858, -0.0907025l 0.413858, -0.0977589l 0.413858, -0.105292l 0.413858, -0.113329l 0.413858, -0.121895l
 0.413858, -0.13102l 0.413858, -0.14073l 0.413858, -0.151056l 0.413858, -0.162029l 0.413858, -0.173678l 0.413858, -0.186037l 0.413858, -0.199138l 0.413858, -0.213013l 0.413858, -0.227697l 0.413858, -0.243224l 0.413858, -0.259629l 0.413858, -0.276948l
 0.413858, -0.295215l 0.413858, -0.314467l 0.413858, -0.33474l 0.413858, -0.356069l 0.413858, -0.378491l 0.413858, -0.402042l 0.413858, -0.426755l 0.413858, -0.452668l 0.413858, -0.479812l 0.413858, -0.508223l 0.413858, -0.537933l 0.413858,
 -0.568972l 0.413858, -0.601371l 0.413858, -0.635159l 0.413858, -0.670362l 0.413858, -0.707006l 0.413858, -0.745112l 0.413858, -0.784703l 0.413858, -0.825797l 0.413858, -0.868407l 0.413858, -0.912548l 0.413858, -0.958229l 0.413858, -1.00545l
 0.413858, -1.05423l 0.413858, -1.10455l 0.413858, -1.15641l 0.413858, -1.2098l 0.413858, -1.26471l 0.413858, -1.32111l 0.413858, -1.37899l 0.413858, -1.43831l 0.413858, -1.49905l 0.413858, -1.56115l 0.413858, -1.62457l 0.413858, -1.68927l 0.413858,
 -1.75518l 0.413858, -1.82225l 0.413858, -1.89039l 0.413858, -1.95954l 0.413858, -2.02962l 0.413858, -2.10052l 0.413858, -2.17217l 0.413858, -2.24445l 0.413858, -2.31725l 0.413858, -2.39047l 0.413858, -2.46398l 0.413858, -2.53766l 0.413858, -2.61136l
 0.413858, -2.68495l 0.413858, -2.75829l 0.413858, -2.83122l 0.413858, -2.90358l 0.413858, -2.97522l 0.413858, -3.04596l 0.413858, -3.11564l 0.413858, -3.18408l 0.413858, -3.25111l 0.413858, -3.31653l 0.413858, -3.38017l 0.413858, -3.44183l 0.413858,
 -3.50133l 0.413858, -3.55849l 0.413858, -3.61309l 0.413858, -3.66497l 0.413858, -3.71391l 0.413858, -3.75974l 0.413858, -3.80227l 0.413858, -3.84131l 0.413858, -3.87667l 0.413858, -3.90819l 0.413858, -3.93567l 0.413858, -3.95896l 0.413858, -3.9779l
 0.413858, -3.99231l 0.413858, -4.00205l 0.413858, -4.00699l 0.413858, -4.00698l 0.413858, -4.0019l 0.413858, -3.99163l 0.413858, -3.97607l 0.413858, -3.95513l 0.413858, -3.92872l 0.413858, -3.89678l 0.413858, -3.85923l 0.413858, -3.81605l 0.413858,
 -3.76718l 0.413858, -3.71263l 0.413858, -3.65238l 0.413858, -3.58644l 0.413858, -3.51483l 0.413858, -3.43761l 0.413858, -3.35481l 0.413858, -3.2665l 0.413858, -3.17278l 0.413858, -3.07374l 0.413858, -2.9695l 0.413858, -2.86017l 0.413858, -2.74591l
 0.413858, -2.62687l 0.413858, -2.50322l 0.413858, -2.37514l 0.413858, -2.24283l 0.413858, -2.1065l 0.413858, -1.96638l 0.413858, -1.82268l 0.413858, -1.67567l 0.413858, -1.52559l 0.413858, -1.3727l 0.413858, -1.21728l 0.413858, -1.0596l 0.413858,
 -0.899951l 0.413858, -0.738628l 0.413858, -0.575926l 0.413858, -0.412148l 0.413858, -0.247598l 0.413858, -0.0825843l 0.413858, 0.0825843l 0.413858, 0.247598l 0.413858, 0.412148l 0.413858, 0.575926l 0.413858, 0.738628l 0.413858, 0.899951l 0.413858,
 1.0596l 0.413858, 1.21728l 0.413858, 1.3727l 0.413858, 1.52559l 0.413858, 1.67567l 0.413858, 1.82268l 0.413858, 1.96638l 0.413858, 2.1065l 0.413858, 2.24283l 0.413858, 2.37514l 0.413858, 2.50322l 0.413858, 2.62687l 0.413858, 2.74591l 0.413858,
 2.86017l 0.413858, 2.9695l 0.413858, 3.07374l 0.413858, 3.17278l 0.413858, 3.2665l 0.413858, 3.35481l 0.413858, 3.43761l 0.413858, 3.51483l 0.413858, 3.58644l 0.413858, 3.65238l 0.413858, 3.71263l 0.413858, 3.76718l 0.413858, 3.81605l 0.413858,
 3.85923l 0.413858, 3.89678l 0.413858, 3.92872l 0.413858, 3.95513l 0.413858, 3.97607l 0.413858, 3.99163l 0.413858, 4.0019l 0.413858, 4.00698l 0.413858, 4.00699l 0.413858, 4.00205l 0.413858, 3.99231l 0.413858, 3.9779l 0.413858, 3.95896l 0.413858,
 3.93567l 0.413858, 3.90819l 0.413858, 3.87667l 0.413858, 3.84131l 0.413858, 3.80227l 0.413858, 3.75974l 0.413858, 3.71391l 0.413858, 3.66497l 0.413858, 3.61309l 0.413858, 3.55849l 0.413858, 3.50133l 0.413858, 3.44183l 0.413858, 3.38017l 0.413858,
 3.31653l 0.413858, 3.25111l 0.413858, 3.18408l 0.413858, 3.11564l 0.413858, 3.04596l 0.413858, 2.97522l 0.413858, 2.90358l 0.413858, 2.83122l 0.413858, 2.75829l 0.413858, 2.68495l 0.413858, 2.61136l 0.413858, 2.53766l 0.413858, 2.46398l 0.413858,
 2.39047l 0.413858, 2.31725l 0.413858, 2.24445l 0.413858, 2.17217l 0.413858, 2.10052l 0.413858, 2.02962l 0.413858, 1.95954l 0.413858, 1.89039l 0.413858, 1.82225l 0.413858, 1.75518l 0.413858, 1.68927l 0.413858, 1.62457l 0.413858, 1.56115l 0.413858,
 1.49905l 0.413858, 1.43831l 0.413858, 1.37899l 0.413858, 1.32111l 0.413858, 1.26471l 0.413858, 1.2098l 0.413858, 1.15641l 0.413858, 1.10455l 0.413858, 1.05423l 0.413858, 1.00545l 0.413858, 0.958229l 0.413858, 0.912548l 0.413858, 0.868407l 0.413858,
 0.825797l 0.413858, 0.784703l 0.413858, 0.745112l 0.413858, 0.707006l 0.413858, 0.670362l 0.413858, 0.635159l 0.413858, 0.601371l 0.413858, 0.568972l 0.413858, 0.537933l 0.413858, 0.508223l 0.413858, 0.479812l 0.413858, 0.452668l 0.413858, 0.426755l
 0.413858, 0.402042l 0.413858, 0.378491l 0.413858, 0.356069l 0.413858, 0.33474l 0.413858, 0.314467l 0.413858, 0.295215l 0.413858, 0.276948l 0.413858, 0.259629l 0.413858, 0.243224l 0.413858, 0.227697l 0.413858, 0.213013l 0.413858, 0.199138l 0.413858,
 0.186037l 0.413858, 0.173678l 0.413858, 0.162029l 0.413858, 0.151056l 0.413858, 0.14073l 0.413858, 0.13102l 0.413858, 0.121895l 0.413858, 0.113329l 0.413858, 0.105292l 0.413858, 0.0977589l 0.413858, 0.0907025l 0.413858, 0.084098l 0.413858,
 0.0779214l 0.413858, 0.0721492l 0.413858, 0.0667593l 0.413858, 0.0617302l 0.413858, 0.0570412l 0.413858, 0.0526727l 0.413858, 0.0486059l 0.413858, 0.0448228l 0.413858, 0.0413063l 0.413858, 0.0380399l 0.413858, 0.0350083l 0.413858, 0.0321966l
 0.413858, 0.0295909l 0.413858, 0.0271778l 0.413858, 0.0249447l 0.413858, 0.0228797l 0.413858, 0.0209717l 0.413858, 0.0192099l 0.413858, 0.0175844l 0.413858, 0.0160856l 0.413858, 0.0147048l 0.413858, 0.0134336l 0.413858, 0.012264l 0.413858,
 0.0111889l 0.413858, 0.0102012l 0.413858, 0.00929451l 0.413858, 0.0084628l 0.413858, 0.00770039l 0.413858, 0.00700202l 0.413858, 0.00636277l 0.413858, 0.00577806l 0.413858, 0.0052436l 0.413858, 0.00475543l 0.413858, 0.00430986l 0.413858, 0.00390346l
 0.413858, 0.00353305l 0.413858, 0.031615h 73.6668" fill="none" stroke="#ff0000" stroke-width="2"/>
<path d="M68.5315,336.649h 39.3165l 0.413858, -0.0301985l 0.413858, -0.00124343l 0.413858, -0.00129135l 0.413858, -0.00134098l 0.413858, -0.00139237l 0.413858, -0.00144557l 0.413858, -0.00150065l 0.413858, -0.00155766l 0.413858, -0.00161667l
 0.413858, -0.00167773l 0.413858, -0.00174091l 0.413858, -0.00180628l 0.413858, -0.00187391l 0.413858, -0.00194386l 0.413858, -0.0020162l 0.413858, -0.00209102l 0.413858, -0.00216838l 0.413858, -0.00224837l 0.413858, -0.00233105l 0.413858,
 -0.00241652l 0.413858, -0.00250485l 0.413858, -0.00259614l 0.413858, -0.00269047l 0.413858, -0.00278792l 0.413858, -0.0028886l 0.413858, -0.00299259l 0.413858, -0.0031l 0.413858, -0.00321091l 0.413858, -0.00332544l 0.413858, -0.00344369l 0.413858,
 -0.00356575l 0.413858, -0.00369175l 0.413858, -0.0038218l 0.413858, -0.00395599l 0.413858, -0.00409447l 0.413858, -0.00423733l 0.413858, -0.00438471l 0.413858, -0.00453672l 0.413858, -0.00469351l 0.413858, -0.00485519l 0.413858, -0.00502189l
 0.413858, -0.00519377l 0.413858, -0.00537095l 0.413858, -0.00555358l 0.413858, -0.00574179l 0.413858, -0.00593575l 0.413858, -0.0061356l 0.413858, -0.00634149l 0.413858, -0.00655359l 0.413858, -0.00677205l 0.413858, -0.00699703l 0.413858,
 -0.00722871l 0.413858, -0.00746726l 0.413858, -0.00771284l 0.413858, -0.00796564l 0.413858, -0.00822584l 0.413858, -0.00849361l 0.413858, -0.00876915l 0.413858, -0.00905266l 0.413858, -0.00934431l 0.413858, -0.00964432l 0.413858, -0.00995288l
 0.413858, -0.0102702l 0.413858, -0.0105965l 0.413858, -0.0109319l 0.413858, -0.0112768l 0.413858, -0.0116313l 0.413858, -0.0119956l 0.413858, -0.01237l 0.413858, -0.0127546l 0.413858, -0.0131498l 0.413858, -0.0135558l 0.413858, -0.0139728l 0.413858,
 -0.014401l 0.413858, -0.0148408l 0.413858, -0.0152923l 0.413858, -0.0157558l 0.413858, -0.0162316l 0.413858, -0.0167199l 0.413858, -0.017221l 0.413858, -0.0177353l 0.413858, -0.0182628l 0.413858, -0.018804l 0.413858, -0.0193592l 0.413858,
 -0.0199285l 0.413858, -0.0205123l 0.413858, -0.0211109l 0.413858, -0.0217246l 0.413858, -0.0223537l 0.413858, -0.0229984l 0.413858, -0.0236592l 0.413858, -0.0243362l 0.413858, -0.0250299l 0.413858, -0.0257405l 0.413858, -0.0264683l 0.413858,
 -0.0272138l 0.413858, -0.0279771l 0.413858, -0.0287587l 0.413858, -0.0295588l 0.413858, -0.0303779l 0.413858, -0.0312161l 0.413858, -0.032074l 0.413858, -0.0329518l 0.413858, -0.0338498l 0.413858, -0.0347685l 0.413858, -0.0357081l 0.413858,
 -0.036669l 0.413858, -0.0376516l 0.413858, -0.0386563l 0.413858, -0.0396833l 0.413858, -0.0407331l 0.413858, -0.041806l 0.413858, -0.0429023l 0.413858, -0.0440225l 0.413858, -0.0451669l 0.413858, -0.0463358l 0.413858, -0.0475297l 0.413858,
 -0.0487489l 0.413858, -0.0499938l 0.413858, -0.0512647l 0.413858, -0.0525619l 0.413858, -0.053886l 0.413858, -0.0552372l 0.413858, -0.056616l 0.413858, -0.0580226l 0.413858, -0.0594574l 0.413858, -0.0609209l 0.413858, -0.0624133l 0.413858,
 -0.0639351l 0.413858, -0.0654865l 0.413858, -0.0670681l 0.413858, -0.06868l 0.413858, -0.0703227l 0.413858, -0.0719966l 0.413858, -0.0737019l 0.413858, -0.075439l 0.413858, -0.0772083l 0.413858, -0.07901l 0.413858, -0.0808446l 0.413858, -0.0827124l
 0.413858, -0.0846137l 0.413858, -0.0865487l 0.413858, -0.0885179l 0.413858, -0.0905216l 0.413858, -0.09256l 0.413858, -0.0946334l 0.413858, -0.0967421l 0.413858, -0.0988865l 0.413858, -0.101067l 0.413858, -0.103283l 0.413858, -0.105536l 0.413858,
 -0.107826l 0.413858, -0.110152l 0.413858, -0.112516l 0.413858, -0.114917l 0.413858, -0.117356l 0.413858, -0.119832l 0.413858, -0.122347l 0.413858, -0.1249l 0.413858, -0.127491l 0.413858, -0.130121l 0.413858, -0.13279l 0.413858, -0.135497l 0.413858,
 -0.138244l 0.413858, -0.14103l 0.413858, -0.143855l 0.413858, -0.146719l 0.413858, -0.149623l 0.413858, -0.152566l 0.413858, -0.155549l 0.413858, -0.158571l 0.413858, -0.161633l 0.413858, -0.164735l 0.413858, -0.167876l 0.413858, -0.171057l
 0.413858, -0.174278l 0.413858, -0.177538l 0.413858, -0.180837l 0.413858, -0.184176l 0.413858, -0.187554l 0.413858, -0.190971l 0.413858, -0.194427l 0.413858, -0.197922l 0.413858, -0.201455l 0.413858, -0.205027l 0.413858, -0.208637l 0.413858,
 -0.212285l 0.413858, -0.215971l 0.413858, -0.219694l 0.413858, -0.223454l 0.413858, -0.227251l 0.413858, -0.231084l 0.413858, -0.234953l 0.413858, -0.238858l 0.413858, -0.242798l 0.413858, -0.246773l 0.413858, -0.250782l 0.413858, -0.254824l
 0.413858, -0.2589l 0.413858, -0.263009l 0.413858, -0.26715l 0.413858, -0.271323l 0.413858, -0.275526l 0.413858, -0.27976l 0.413858, -0.284023l 0.413858, -0.288316l 0.413858, -0.292636l 0.413858, -0.296985l 0.413858, -0.30136l 0.413858, -0.30576l
 0.413858, -0.310186l 0.413858, -0.314637l 0.413858, -0.31911l 0.413858, -0.323607l 0.413858, -0.328124l 0.413858, -0.332663l 0.413858, -0.337221l 0.413858, -0.341798l 0.413858, -0.346392l 0.413858, -0.351003l 0.413858, -0.355629l 0.413858, -0.36027l
 0.413858, -0.364924l 0.413858, -0.36959l 0.413858, -0.374267l 0.413858, -0.378954l 0.413858, -0.383649l 0.413858, -0.388351l 0.413858, -0.393059l 0.413858, -0.397771l 0.413858, -0.402487l 0.413858, -0.407205l 0.413858, -0.411922l 0.413858,
 -0.416639l 0.413858, -0.421354l 0.413858, -0.426064l 0.413858, -0.430769l 0.413858, -0.435468l 0.413858, -0.440157l 0.413858, -0.444837l 0.413858, -0.449505l 0.413858, -0.45416l 0.413858, -0.4588l 0.413858, -0.463424l 0.413858, -0.468029l 0.413858,
 -0.472614l 0.413858, -0.477178l 0.413858, -0.481719l 0.413858, -0.486235l 0.413858, -0.490724l 0.413858, -0.495184l 0.413858, -0.499614l 0.413858, -0.504012l 0.413858, -0.508376l 0.413858, -0.512704l 0.413858, -0.516994l 0.413858, -0.521245l
 0.413858, -0.525454l 0.413858, -0.52962l 0.413858, -0.533741l 0.413858, -0.537814l 0.413858, -0.541839l 0.413858, -0.545813l 0.413858, -0.549733l 0.413858, -0.553599l 0.413858, -0.557408l 0.413858, -0.561159l 0.413858, -0.564848l 0.413858,
 -0.568475l 0.413858, -0.572038l 0.413858, -0.575533l 0.413858, -0.578961l 0.413858, -0.582317l 0.413858, -0.585602l 0.413858, -0.588811l 0.413858, -0.591945l 0.413858, -0.595l 0.413858, -0.597975l 0.413858, -0.600868l 0.413858, -0.603676l 0.413858,
 -0.606399l 0.413858, -0.609033l 0.413858, -0.611578l 0.413858, -0.614031l 0.413858, -0.616391l 0.413858, -0.618655l 0.413858, -0.620822l 0.413858, -0.62289l 0.413858, -0.624857l 0.413858, -0.626721l 0.413858, -0.628481l 0.413858, -0.630135l
 0.413858, -0.631681l 0.413858, -0.633117l 0.413858, -0.634442l 0.413858, -0.635654l 0.413858, -0.636752l 0.413858, -0.637734l 0.413858, -0.638598l 0.413858, -0.639343l 0.413858, -0.639967l 0.413858, -0.640469l 0.413858, -0.640848l 0.413858,
 -0.641102l 0.413858, -0.641229l 0.413858, -0.641229l 0.413858, -0.6411l 0.413858, -0.640841l 0.413858, -0.640451l 0.413858, -0.639928l 0.413858, -0.639271l 0.413858, -0.63848l 0.413858, -0.637553l 0.413858, -0.63649l 0.413858, -0.635288l 0.413858,
 -0.633948l 0.413858, -0.632469l 0.413858, -0.63085l 0.413858, -0.629089l 0.413858, -0.627187l 0.413858, -0.625143l 0.413858, -0.622955l 0.413858, -0.620625l 0.413858, -0.61815l 0.413858, -0.615531l 0.413858, -0.612767l 0.413858, -0.609858l 0.413858,
 -0.606804l 0.413858, -0.603604l 0.413858, -0.600259l 0.413858, -0.596767l 0.413858, -0.59313l 0.413858, -0.589346l 0.413858, -0.585417l 0.413858, -0.581343l 0.413858, -0.577122l 0.413858, -0.572757l 0.413858, -0.568246l 0.413858, -0.563591l
 0.413858, -0.558792l 0.413858, -0.553849l 0.413858, -0.548763l 0.413858, -0.543535l 0.413858, -0.538164l 0.413858, -0.532653l 0.413858, -0.527001l 0.413858, -0.52121l 0.413858, -0.515281l 0.413858, -0.509214l 0.413858, -0.50301l 0.413858, -0.496671l
 0.413858, -0.490197l 0.413858, -0.483591l 0.413858, -0.476853l 0.413858, -0.469985l 0.413858, -0.462987l 0.413858, -0.455862l 0.413858, -0.448611l 0.413858, -0.441235l 0.413858, -0.433737l 0.413858, -0.426118l 0.413858, -0.418379l 0.413858,
 -0.410522l 0.413858, -0.40255l 0.413858, -0.394464l 0.413858, -0.386266l 0.413858, -0.377958l 0.413858, -0.369543l 0.413858, -0.361022l 0.413858, -0.352397l 0.413858, -0.343671l 0.413858, -0.334846l 0.413858, -0.325925l 0.413858, -0.316909l
 0.413858, -0.307801l 0.413858, -0.298603l 0.413858, -0.289319l 0.413858, -0.27995l 0.413858, -0.2705l 0.413858, -0.26097l 0.413858, -0.251363l 0.413858, -0.241683l 0.413858, -0.231931l 0.413858, -0.222111l 0.413858, -0.212226l 0.413858, -0.202277l
 0.413858, -0.192269l 0.413858, -0.182204l 0.413858, -0.172085l 0.413858, -0.161914l 0.413858, -0.151695l 0.413858, -0.141431l 0.413858, -0.131125l 0.413858, -0.12078l 0.413858, -0.110399l 0.413858, -0.0999847l 0.413858, -0.0895406l 0.413858,
 -0.0790696l 0.413858, -0.068575l 0.413858, -0.0580598l 0.413858, -0.0475272l 0.413858, -0.0369804l 0.413858, -0.0264225l 0.413858, -0.0158567l 0.413858, -0.00528609l 0.413858, 0.00528609l 0.413858, 0.0158567l 0.413858, 0.0264225l 0.413858,
 0.0369804l 0.413858, 0.0475272l 0.413858, 0.0580598l 0.413858, 0.068575l 0.413858, 0.0790696l 0.413858, 0.0895406l 0.413858, 0.0999847l 0.413858, 0.110399l 0.413858, 0.12078l 0.413858, 0.131125l 0.413858, 0.141431l 0.413858, 0.151695l 0.413858,
 0.161914l 0.413858, 0.172085l 0.413858, 0.182204l 0.413858, 0.192269l 0.413858, 0.202277l 0.413858, 0.212226l 0.413858, 0.222111l 0.413858, 0.231931l 0.413858, 0.241683l 0.413858, 0.251363l 0.413858, 0.26097l 0.413858, 0.2705l 0.413858, 0.27995l
 0.413858, 0.289319l 0.413858, 0.298603l 0.413858, 0.307801l 0.413858, 0.316909l 0.413858, 0.325925l 0.413858, 0.334846l 0.413858, 0.343671l 0.413858, 0.352397l 0.413858, 0.361022l 0.413858, 0.369543l 0.413858, 0.377958l 0.413858, 0.386266l 0.413858,
 0.394464l 0.413858, 0.40255l 0.413858, 0.410522l 0.413858, 0.418379l 0.413858, 0.426118l 0.413858, 0.433737l 0.413858, 0.441235l 0.413858, 0.448611l 0.413858, 0.455862l 0.413858, 0.462987l 0.413858, 0.469985l 0.413858, 0.476853l 0.413858, 0.483591l
 0.413858, 0.490197l 0.413858, 0.496671l 0.413858, 0.50301l 0.413858, 0.509214l 0.413858, 0.515281l 0.413858, 0.52121l 0.413858, 0.527001l 0.413858, 0.532653l 0.413858, 0.538164l 0.413858, 0.543535l 0.413858, 0.548763l 0.413858, 0.553849l 0.413858,
 0.558792l 0.413858, 0.563591l 0.413858, 0.568246l 0.413858, 0.572757l 0.413858, 0.577122l 0.413858, 0.581343l 0.413858, 0.585417l 0.413858, 0.589346l 0.413858, 0.59313l 0.413858, 0.596767l 0.413858, 0.600259l 0.413858, 0.603604l 0.413858, 0.606804l
 0.413858, 0.609858l 0.413858, 0.612767l 0.413858, 0.615531l 0.413858, 0.61815l 0.413858, 0.620625l 0.413858, 0.622955l 0.413858, 0.625143l 0.413858, 0.627187l 0.413858, 0.629089l 0.413858, 0.63085l 0.413858, 0.632469l 0.413858, 0.633948l 0.413858,
 0.635288l 0.413858, 0.63649l 0.413858, 0.637553l 0.413858, 0.63848l 0.413858, 0.639271l 0.413858, 0.639928l 0.413858, 0.640451l 0.413858, 0.640841l 0.413858, 0.6411l 0.413858, 0.641229l 0.413858, 0.641229l 0.413858, 0.641102l 0.413858, 0.640848l
 0.413858, 0.640469l 0.413858, 0.639967l 0.413858, 0.639343l 0.413858, 0.638598l 0.413858, 0.637734l 0.413858, 0.636752l 0.413858, 0.635654l 0.413858, 0.634442l 0.413858, 0.633117l 0.413858, 0.631681l 0.413858, 0.630135l 0.413858, 0.628481l 0.413858,
 0.626721l 0.413858, 0.624857l 0.413858, 0.62289l 0.413858, 0.620822l 0.413858, 0.618655l 0.413858, 0.616391l 0.413858, 0.614031l 0.413858, 0.611578l 0.413858, 0.609033l 0.413858, 0.606399l 0.413858, 0.603676l 0.413858, 0.600868l 0.413858, 0.597975l
 0.413858, 0.595l 0.413858, 0.591945l 0.413858, 0.588811l 0.413858, 0.585602l 0.413858, 0.582317l 0.413858, 0.578961l 0.413858, 0.575533l 0.413858, 0.572038l 0.413858, 0.568475l 0.413858, 0.564848l 0.413858, 0.561159l 0.413858, 0.557408l 0.413858,
 0.553599l 0.413858, 0.549733l 0.413858, 0.545813l 0.413858, 0.541839l 0.413858, 0.537814l 0.413858, 0.533741l 0.413858, 0.52962l 0.413858, 0.525454l 0.413858, 0.521245l 0.413858, 0.516994l 0.413858, 0.512704l 0.413858, 0.508376l 0.413858, 0.504012l
 0.413858, 0.499614l 0.413858, 0.495184l 0.413858, 0.490724l 0.413858, 0.486235l 0.413858, 0.481719l 0.413858, 0.477178l 0.413858, 0.472614l 0.413858, 0.468029l 0.413858, 0.463424l 0.413858, 0.4588l 0.413858, 0.45416l 0.413858, 0.449505l 0.413858,
 0.444837l 0.413858, 0.440157l 0.413858, 0.435468l 0.413858, 0.430769l 0.413858, 0.426064l 0.413858, 0.421354l 0.413858, 0.416639l 0.413858, 0.411922l 0.413858, 0.407205l 0.413858, 0.402487l 0.413858, 0.397771l 0.413858, 0.393059l 0.413858, 0.388351l
 0.413858, 0.383649l 0.413858, 0.378954l 0.413858, 0.374267l 0.413858, 0.36959l 0.413858, 0.364924l 0.413858, 0.36027l 0.413858, 0.355629l 0.413858, 0.351003l 0.413858, 0.346392l 0.413858, 0.341798l 0.413858, 0.337221l 0.413858, 0.332663l 0.413858,
 0.328124l 0.413858, 0.323607l 0.413858, 0.31911l 0.413858, 0.314637l 0.413858, 0.310186l 0.413858, 0.30576l 0.413858, 0.30136l 0.413858, 0.296985l 0.413858, 0.292636l 0.413858, 0.288316l 0.413858, 0.284023l 0.413858, 0.27976l 0.413858, 0.275526l
 0.413858, 0.271323l 0.413858, 0.26715l 0.413858, 0.263009l 0.413858, 0.2589l 0.413858, 0.254824l 0.413858, 0.250782l 0.413858, 0.246773l 0.413858, 0.242798l 0.413858, 0.238858l 0.413858, 0.234953l 0.413858, 0.231084l 0.413858, 0.227251l 0.413858,
 0.223454l 0.413858, 0.219694l 0.413858, 0.215971l 0.413858, 0.212285l 0.413858, 0.208637l 0.413858, 0.205027l 0.413858, 0.201455l 0.413858, 0.197922l 0.413858, 0.194427l 0.413858, 0.190971l 0.413858, 0.187554l 0.413858, 0.184176l 0.413858, 0.180837l
 0.413858, 0.177538l 0.413858, 0.174278l 0.413858, 0.171057l 0.413858, 0.167876l 0.413858, 0.164735l 0.413858, 0.161633l 0.413858, 0.158571l 0.413858, 0.155549l 0.413858, 0.152566l 0.413858, 0.149623l 0.413858, 0.146719l 0.413858, 0.143855l 0.413858,
 0.14103l 0.413858, 0.138244l 0.413858, 0.135497l 0.413858, 0.13279l 0.413858, 0.130121l 0.413858, 0.127491l 0.413858, 0.1249l 0.413858, 0.122347l 0.413858, 0.119832l 0.413858, 0.117356l 0.413858, 0.114917l 0.413858, 0.112516l 0.413858, 0.110152l
 0.413858, 0.107826l 0.413858, 0.105536l 0.413858, 0.103283l 0.413858, 0.101067l 0.413858, 0.0988865l 0.413858, 0.0967421l 0.413858, 0.0946334l 0.413858, 0.09256l 0.413858, 0.0905216l 0.413858, 0.0885179l 0.413858, 0.0865487l 0.413858, 0.0846137l
 0.413858, 0.0827124l 0.413858, 0.0808446l 0.413858, 0.07901l 0.413858, 0.0772083l 0.413858, 0.075439l 0.413858, 0.0737019l 0.413858, 0.0719966l 0.413858, 0.0703227l 0.413858, 0.06868l 0.413858, 0.0670681l 0.413858, 0.0654865l 0.413858, 0.0639351l
 0.413858, 0.0624133l 0.413858, 0.0609209l 0.413858, 0.0594574l 0.413858, 0.0580226l 0.413858, 0.056616l 0.413858, 0.0552372l 0.413858, 0.053886l 0.413858, 0.0525619l 0.413858, 0.0512647l 0.413858, 0.0499938l 0.413858, 0.0487489l 0.413858, 0.0475297l
 0.413858, 0.0463358l 0.413858, 0.0451669l 0.413858, 0.0440225l 0.413858, 0.0429023l 0.413858, 0.041806l 0.413858, 0.0407331l 0.413858, 0.0396833l 0.413858, 0.0386563l 0.413858, 0.0376516l 0.413858, 0.036669l 0.413858, 0.0357081l 0.413858, 0.0347685l
 0.413858, 0.0338498l 0.413858, 0.0329518l 0.413858, 0.032074l 0.413858, 0.0312161l 0.413858, 0.0303779l 0.413858, 0.0295588l 0.413858, 0.0287587l 0.413858, 0.0279771l 0.413858, 0.0272138l 0.413858, 0.0264683l 0.413858, 0.0257405l 0.413858,
 0.0250299l 0.413858, 0.0243362l 0.413858, 0.0236592l 0.413858, 0.0229984l 0.413858, 0.0223537l 0.413858, 0.0217246l 0.413858, 0.0211109l 0.413858, 0.0205123l 0.413858, 0.0199285l 0.413858, 0.0193592l 0.413858, 0.018804l 0.413858, 0.0182628l
 0.413858, 0.0177353l 0.413858, 0.017221l 0.413858, 0.0167199l 0.413858, 0.0162316l 0.413858, 0.0157558l 0.413858, 0.0152923l 0.413858, 0.0148408l 0.413858, 0.014401l 0.413858, 0.0139728l 0.413858, 0.0135558l 0.413858, 0.0131498l 0.413858, 0.0127546l
 0.413858, 0.01237l 0.413858, 0.0119956l 0.413858, 0.0116313l 0.413858, 0.0112768l 0.413858, 0.0109319l 0.413858, 0.0105965l 0.413858, 0.0102702l 0.413858, 0.00995288l 0.413858, 0.00964432l 0.413858, 0.00934431l 0.413858, 0.00905266l 0.413858,
 0.00876915l 0.413858, 0.00849361l 0.413858, 0.00822584l 0.413858, 0.00796564l 0.413858, 0.00771284l 0.413858, 0.00746726l 0.413858, 0.00722871l 0.413858, 0.00699703l 0.413858, 0.00677205l 0.413858, 0.00655359l 0.413858, 0.00634149l 0.413858,
 0.0061356l 0.413858, 0.00593575l 0.413858, 0.00574179l 0.413858, 0.00555358l 0.413858, 0.00537095l 0.413858, 0.00519377l 0.413858, 0.00502189l 0.413858, 0.00485519l 0.413858, 0.00469351l 0.413858, 0.00453672l 0.413858, 0.00438471l 0.413858,
 0.00423733l 0.413858, 0.00409447l 0.413858, 0.00395599l 0.413858, 0.0038218l 0.413858, 0.00369175l 0.413858, 0.00356575l 0.413858, 0.00344369l 0.413858, 0.00332544l 0.413858, 0.00321091l 0.413858, 0.0031l 0.413858, 0.00299259l 0.413858, 0.0028886l
 0.413858, 0.00278792l 0.413858, 0.00269047l 0.413858, 0.00259614l 0.413858, 0.00250485l 0.413858, 0.00241652l 0.413858, 0.00233105l 0.413858, 0.00224837l 0.413858, 0.00216838l 0.413858, 0.00209102l 0.413858, 0.0020162l 0.413858, 0.00194386l
 0.413858, 0.00187391l 0.413858, 0.00180628l 0.413858, 0.00174091l 0.413858, 0.00167773l 0.413858, 0.00161667l 0.413858, 0.00155766l 0.413858, 0.00150065l 0.413858, 0.00144557l 0.413858, 0.00139237l 0.413858, 0.00134098l 0.413858, 0.00129135l
 0.413858, 0.00124343l 0.413858, 0.0301985h 38.9027" fill="none" stroke="black" stroke-width="2"/>
<path d="M68.5315,332.443l 0.413858, -0.047528l 0.413858, -0.0479576l 0.413858, -0.0483896l 0.413858, -0.048824l 0.413858, -0.0492609l 0.413858, -0.0497001l 0.413858, -0.0501418l 0.413858, -0.0505859l 0.413858, -0.0510324l 0.413858, -0.0514813l
 0.413858, -0.0519325l 0.413858, -0.0523862l 0.413858, -0.0528422l 0.413858, -0.0533005l 0.413858, -0.0537612l 0.413858, -0.0542243l 0.413858, -0.0546896l 0.413858, -0.0551573l 0.413858, -0.0556273l 0.413858, -0.0560997l 0.413858, -0.0565743l
 0.413858, -0.0570511l 0.413858, -0.0575303l 0.413858, -0.0580117l 0.413858, -0.0584954l 0.413858, -0.0589812l 0.413858, -0.0594693l 0.413858, -0.0599596l 0.413858, -0.0604521l 0.413858, -0.0609468l 0.413858, -0.0614437l 0.413858, -0.0619427l
 0.413858, -0.0624438l 0.413858, -0.062947l 0.413858, -0.0634524l 0.413858, -0.0639598l 0.413858, -0.0644693l 0.413858, -0.0649809l 0.413858, -0.0654945l 0.413858, -0.0660101l 0.413858, -0.0665277l 0.413858, -0.0670473l 0.413858, -0.0675689l
 0.413858, -0.0680924l 0.413858, -0.0686179l 0.413858, -0.0691452l 0.413858, -0.0696744l 0.413858, -0.0702055l 0.413858, -0.0707385l 0.413858, -0.0712732l 0.413858, -0.0718098l 0.413858, -0.0723481l 0.413858, -0.0728882l 0.413858, -0.07343l 0.413858,
 -0.0739735l 0.413858, -0.0745188l 0.413858, -0.0750656l 0.413858, -0.0756141l 0.413858, -0.0761642l 0.413858, -0.0767159l 0.413858, -0.0772692l 0.413858, -0.077824l 0.413858, -0.0783803l 0.413858, -0.0789381l 0.413858, -0.0794973l 0.413858,
 -0.0800579l 0.413858, -0.0806199l 0.413858, -0.0811833l 0.413858, -0.0817481l 0.413858, -0.0823141l 0.413858, -0.0828814l 0.413858, -0.08345l 0.413858, -0.0840198l 0.413858, -0.0845907l 0.413858, -0.0851628l 0.413858, -0.085736l 0.413858,
 -0.0863103l 0.413858, -0.0868857l 0.413858, -0.0874621l 0.413858, -0.0880394l 0.413858, -0.0886177l 0.413858, -0.089197l 0.413858, -0.0897771l 0.413858, -0.090358l 0.413858, -0.0909398l 0.413858, -0.0915223l 0.413858, -0.0921056l 0.413858,
 -0.0926895l 0.413858, -0.0932742l 0.413858, -0.0938594l 0.413858, -0.0944452l 0.413858, -0.0950316l 0.413858, -0.0956185l 0.413858, -0.0962059l 0.413858, -0.0967936l 0.413858, -0.0973818l 0.413858, -0.0979703l 0.413858, -0.0985591l 0.413858,
 -0.0991482l 0.413858, -0.0997375l 0.413858, -0.100327l 0.413858, -0.100917l 0.413858, -0.101506l 0.413858, -0.102096l 0.413858, -0.102686l 0.413858, -0.103275l 0.413858, -0.103865l 0.413858, -0.104455l 0.413858, -0.105044l 0.413858, -0.105633l
 0.413858, -0.106222l 0.413858, -0.10681l 0.413858, -0.107398l 0.413858, -0.107986l 0.413858, -0.108574l 0.413858, -0.10916l 0.413858, -0.109747l 0.413858, -0.110332l 0.413858, -0.110917l 0.413858, -0.111501l 0.413858, -0.112085l 0.413858, -0.112668l
 0.413858, -0.11325l 0.413858, -0.11383l 0.413858, -0.114411l 0.413858, -0.11499l 0.413858, -0.115567l 0.413858, -0.116144l 0.413858, -0.11672l 0.413858, -0.117294l 0.413858, -0.117868l 0.413858, -0.11844l 0.413858, -0.11901l 0.413858, -0.119579l
 0.413858, -0.120147l 0.413858, -0.120713l 0.413858, -0.121277l 0.413858, -0.12184l 0.413858, -0.122401l 0.413858, -0.122961l 0.413858, -0.123518l 0.413858, -0.124074l 0.413858, -0.124628l 0.413858, -0.125179l 0.413858, -0.125729l 0.413858,
 -0.126277l 0.413858, -0.126822l 0.413858, -0.127366l 0.413858, -0.127907l 0.413858, -0.128445l 0.413858, -0.128982l 0.413858, -0.129515l 0.413858, -0.130047l 0.413858, -0.130576l 0.413858, -0.131102l 0.413858, -0.131625l 0.413858, -0.132146l
 0.413858, -0.132664l 0.413858, -0.133179l 0.413858, -0.133691l 0.413858, -0.134201l 0.413858, -0.134707l 0.413858, -0.13521l 0.413858, -0.13571l 0.413858, -0.136206l 0.413858, -0.1367l 0.413858, -0.13719l 0.413858, -0.137677l 0.413858, -0.13816l
 0.413858, -0.13864l 0.413858, -0.139116l 0.413858, -0.139588l 0.413858, -0.140057l 0.413858, -0.140522l 0.413858, -0.140983l 0.413858, -0.141441l 0.413858, -0.141894l 0.413858, -0.142344l 0.413858, -0.142789l 0.413858, -0.14323l 0.413858, -0.143667l
 0.413858, -0.1441l 0.413858, -0.144528l 0.413858, -0.144952l 0.413858, -0.145372l 0.413858, -0.145787l 0.413858, -0.146197l 0.413858, -0.146603l 0.413858, -0.147005l 0.413858, -0.147401l 0.413858, -0.147793l 0.413858, -0.14818l 0.413858, -0.148562l
 0.413858, -0.148938l 0.413858, -0.14931l 0.413858, -0.149677l 0.413858, -0.150039l 0.413858, -0.150395l 0.413858, -0.150746l 0.413858, -0.151092l 0.413858, -0.151432l 0.413858, -0.151767l 0.413858, -0.152096l 0.413858, -0.15242l 0.413858, -0.152738l
 0.413858, -0.153051l 0.413858, -0.153357l 0.413858, -0.153658l 0.413858, -0.153953l 0.413858, -0.154242l 0.413858, -0.154525l 0.413858, -0.154802l 0.413858, -0.155073l 0.413858, -0.155338l 0.413858, -0.155596l 0.413858, -0.155849l 0.413858,
 -0.156094l 0.413858, -0.156334l 0.413858, -0.156567l 0.413858, -0.156794l 0.413858, -0.157014l 0.413858, -0.157227l 0.413858, -0.157434l 0.413858, -0.157634l 0.413858, -0.157827l 0.413858, -0.158013l 0.413858, -0.158193l 0.413858, -0.158366l
 0.413858, -0.158531l 0.413858, -0.15869l 0.413858, -0.158841l 0.413858, -0.158986l 0.413858, -0.159123l 0.413858, -0.159253l 0.413858, -0.159376l 0.413858, -0.159491l 0.413858, -0.159599l 0.413858, -0.1597l 0.413858, -0.159793l 0.413858, -0.159879l
 0.413858, -0.159957l 0.413858, -0.160027l 0.413858, -0.16009l 0.413858, -0.160145l 0.413858, -0.160192l 0.413858, -0.160232l 0.413858, -0.160264l 0.413858, -0.160287l 0.413858, -0.160303l 0.413858, -0.160311l 0.413858, -0.160311l 0.413858,
 -0.160303l 0.413858, -0.160287l 0.413858, -0.160263l 0.413858, -0.160231l 0.413858, -0.16019l 0.413858, -0.160141l 0.413858, -0.160084l 0.413858, -0.160019l 0.413858, -0.159945l 0.413858, -0.159863l 0.413858, -0.159773l 0.413858, -0.159674l
 0.413858, -0.159566l 0.413858, -0.15945l 0.413858, -0.159326l 0.413858, -0.159193l 0.413858, -0.159052l 0.413858, -0.158901l 0.413858, -0.158743l 0.413858, -0.158575l 0.413858, -0.158399l 0.413858, -0.158214l 0.413858, -0.15802l 0.413858, -0.157818l
 0.413858, -0.157607l 0.413858, -0.157387l 0.413858, -0.157158l 0.413858, -0.15692l 0.413858, -0.156673l 0.413858, -0.156418l 0.413858, -0.156153l 0.413858, -0.15588l 0.413858, -0.155598l 0.413858, -0.155306l 0.413858, -0.155006l 0.413858, -0.154697l
 0.413858, -0.154378l 0.413858, -0.154051l 0.413858, -0.153715l 0.413858, -0.153369l 0.413858, -0.153015l 0.413858, -0.152651l 0.413858, -0.152278l 0.413858, -0.151896l 0.413858, -0.151506l 0.413858, -0.151106l 0.413858, -0.150697l 0.413858,
 -0.150278l 0.413858, -0.149851l 0.413858, -0.149415l 0.413858, -0.148969l 0.413858, -0.148514l 0.413858, -0.148051l 0.413858, -0.147578l 0.413858, -0.147096l 0.413858, -0.146604l 0.413858, -0.146104l 0.413858, -0.145595l 0.413858, -0.145076l
 0.413858, -0.144549l 0.413858, -0.144012l 0.413858, -0.143467l 0.413858, -0.142912l 0.413858, -0.142348l 0.413858, -0.141775l 0.413858, -0.141193l 0.413858, -0.140602l 0.413858, -0.140002l 0.413858, -0.139394l 0.413858, -0.138776l 0.413858,
 -0.138149l 0.413858, -0.137513l 0.413858, -0.136868l 0.413858, -0.136215l 0.413858, -0.135552l 0.413858, -0.134881l 0.413858, -0.134201l 0.413858, -0.133512l 0.413858, -0.132814l 0.413858, -0.132108l 0.413858, -0.131393l 0.413858, -0.130669l
 0.413858, -0.129936l 0.413858, -0.129195l 0.413858, -0.128445l 0.413858, -0.127687l 0.413858, -0.12692l 0.413858, -0.126144l 0.413858, -0.12536l 0.413858, -0.124568l 0.413858, -0.123767l 0.413858, -0.122958l 0.413858, -0.122141l 0.413858, -0.121315l
 0.413858, -0.120481l 0.413858, -0.119638l 0.413858, -0.118788l 0.413858, -0.117929l 0.413858, -0.117063l 0.413858, -0.116188l 0.413858, -0.115305l 0.413858, -0.114415l 0.413858, -0.113516l 0.413858, -0.11261l 0.413858, -0.111696l 0.413858,
 -0.110774l 0.413858, -0.109844l 0.413858, -0.108907l 0.413858, -0.107962l 0.413858, -0.107009l 0.413858, -0.106049l 0.413858, -0.105082l 0.413858, -0.104107l 0.413858, -0.103125l 0.413858, -0.102136l 0.413858, -0.101139l 0.413858, -0.100136l
 0.413858, -0.0991249l 0.413858, -0.0981071l 0.413858, -0.0970824l 0.413858, -0.0960507l 0.413858, -0.0950122l 0.413858, -0.093967l 0.413858, -0.092915l 0.413858, -0.0918564l 0.413858, -0.0907913l 0.413858, -0.0897196l 0.413858, -0.0886415l 0.413858,
 -0.087557l 0.413858, -0.0864663l 0.413858, -0.0853693l 0.413858, -0.0842662l 0.413858, -0.0831569l 0.413858, -0.0820417l 0.413858, -0.0809206l 0.413858, -0.0797936l 0.413858, -0.0786607l 0.413858, -0.0775222l 0.413858, -0.0763781l 0.413858,
 -0.0752284l 0.413858, -0.0740733l 0.413858, -0.0729127l 0.413858, -0.0717468l 0.413858, -0.0705757l 0.413858, -0.0693994l 0.413858, -0.0682181l 0.413858, -0.0670317l 0.413858, -0.0658405l 0.413858, -0.0646444l 0.413858, -0.0634435l 0.413858,
 -0.062238l 0.413858, -0.061028l 0.413858, -0.0598134l 0.413858, -0.0585945l 0.413858, -0.0573712l 0.413858, -0.0561437l 0.413858, -0.054912l 0.413858, -0.0536763l 0.413858, -0.0524366l 0.413858, -0.051193l 0.413858, -0.0499457l 0.413858, -0.0486946l
 0.413858, -0.04744l 0.413858, -0.0461818l 0.413858, -0.0449202l 0.413858, -0.0436552l 0.413858, -0.042387l 0.413858, -0.0411157l 0.413858, -0.0398413l 0.413858, -0.038564l 0.413858, -0.0372837l 0.413858, -0.0360007l 0.413858, -0.034715l 0.413858,
 -0.0334267l 0.413858, -0.032136l 0.413858, -0.0308428l 0.413858, -0.0295473l 0.413858, -0.0282496l 0.413858, -0.0269498l 0.413858, -0.025648l 0.413858, -0.0243443l 0.413858, -0.0230388l 0.413858, -0.0217315l 0.413858, -0.0204226l 0.413858,
 -0.0191122l 0.413858, -0.0178003l 0.413858, -0.0164871l 0.413858, -0.0151727l 0.413858, -0.0138572l 0.413858, -0.0125406l 0.413858, -0.011223l 0.413858, -0.00990466l 0.413858, -0.00858554l 0.413858, -0.00726578l 0.413858, -0.00594547l 0.413858,
 -0.00462472l 0.413858, -0.00330362l 0.413858, -0.00198227l 0.413858, -0.000660773l 0.413858, 0.000660773l 0.413858, 0.00198227l 0.413858, 0.00330362l 0.413858, 0.00462472l 0.413858, 0.00594547l 0.413858, 0.00726578l 0.413858, 0.00858554l 0.413858,
 0.00990466l 0.413858, 0.011223l 0.413858, 0.0125406l 0.413858, 0.0138572l 0.413858, 0.0151727l 0.413858, 0.0164871l 0.413858, 0.0178003l 0.413858, 0.0191122l 0.413858, 0.0204226l 0.413858, 0.0217315l 0.413858, 0.0230388l 0.413858, 0.0243443l
 0.413858, 0.025648l 0.413858, 0.0269498l 0.413858, 0.0282496l 0.413858, 0.0295473l 0.413858, 0.0308428l 0.413858, 0.032136l 0.413858, 0.0334267l 0.413858, 0.034715l 0.413858, 0.0360007l 0.413858, 0.0372837l 0.413858, 0.038564l 0.413858, 0.0398413l
 0.413858, 0.0411157l 0.413858, 0.042387l 0.413858, 0.0436552l 0.413858, 0.0449202l 0.413858, 0.0461818l 0.413858, 0.04744l 0.413858, 0.0486946l 0.413858, 0.0499457l 0.413858, 0.051193l 0.413858, 0.0524366l 0.413858, 0.0536763l 0.413858, 0.054912l
 0.413858, 0.0561437l 0.413858, 0.0573712l 0.413858, 0.0585945l 0.413858, 0.0598134l 0.413858, 0.061028l 0.413858, 0.062238l 0.413858, 0.0634435l 0.413858, 0.0646444l 0.413858, 0.0658405l 0.413858, 0.0670317l 0.413858, 0.0682181l 0.413858, 0.0693994l
 0.413858, 0.0705757l 0.413858, 0.0717468l 0.413858, 0.0729127l 0.413858, 0.0740733l 0.413858, 0.0752284l 0.413858, 0.0763781l 0.413858, 0.0775222l 0.413858, 0.0786607l 0.413858, 0.0797936l 0.413858, 0.0809206l 0.413858, 0.0820417l 0.413858,
 0.0831569l 0.413858, 0.0842662l 0.413858, 0.0853693l 0.413858, 0.0864663l 0.413858, 0.087557l 0.413858, 0.0886415l 0.413858, 0.0897196l 0.413858, 0.0907913l 0.413858, 0.0918564l 0.413858, 0.092915l 0.413858, 0.093967l 0.413858, 0.0950122l 0.413858,
 0.0960507l 0.413858, 0.0970824l 0.413858, 0.0981071l 0.413858, 0.0991249l 0.413858, 0.100136l 0.413858, 0.101139l 0.413858, 0.102136l 0.413858, 0.103125l 0.413858, 0.104107l 0.413858, 0.105082l 0.413858, 0.106049l 0.413858, 0.107009l 0.413858,
 0.107962l 0.413858, 0.108907l 0.413858, 0.109844l 0.413858, 0.110774l 0.413858, 0.111696l 0.413858, 0.11261l 0.413858, 0.113516l 0.413858, 0.114415l 0.413858, 0.115305l 0.413858, 0.116188l 0.413858, 0.117063l 0.413858, 0.117929l 0.413858, 0.118788l
 0.413858, 0.119638l 0.413858, 0.120481l 0.413858, 0.121315l 0.413858, 0.122141l 0.413858, 0.122958l 0.413858, 0.123767l 0.413858, 0.124568l 0.413858, 0.12536l 0.413858, 0.126144l 0.413858, 0.12692l 0.413858, 0.127687l 0.413858, 0.128445l 0.413858,
 0.129195l 0.413858, 0.129936l 0.413858, 0.130669l 0.413858, 0.131393l 0.413858, 0.132108l 0.413858, 0.132814l 0.413858, 0.133512l 0.413858, 0.134201l 0.413858, 0.134881l 0.413858, 0.135552l 0.413858, 0.136215l 0.413858, 0.136868l 0.413858, 0.137513l
 0.413858, 0.138149l 0.413858, 0.138776l 0.413858, 0.139394l 0.413858, 0.140002l 0.413858, 0.140602l 0.413858, 0.141193l 0.413858, 0.141775l 0.413858, 0.142348l 0.413858, 0.142912l 0.413858, 0.143467l 0.413858, 0.144012l 0.413858, 0.144549l 0.413858,
 0.145076l 0.413858, 0.145595l 0.413858, 0.146104l 0.413858, 0.146604l 0.413858, 0.147096l 0.413858, 0.147578l 0.413858, 0.148051l 0.413858, 0.148514l 0.413858, 0.148969l 0.413858, 0.149415l 0.413858, 0.149851l 0.413858, 0.150278l 0.413858, 0.150697l
 0.413858, 0.151106l 0.413858, 0.151506l 0.413858, 0.151896l 0.413858, 0.152278l 0.413858, 0.152651l 0.413858, 0.153015l 0.413858, 0.153369l 0.413858, 0.153715l 0.413858, 0.154051l 0.413858, 0.154378l 0.413858, 0.154697l 0.413858, 0.155006l 0.413858,
 0.155306l 0.413858, 0.155598l 0.413858, 0.15588l 0.413858, 0.156153l 0.413858, 0.156418l 0.413858, 0.156673l 0.413858, 0.15692l 0.413858, 0.157158l 0.413858, 0.157387l 0.413858, 0.157607l 0.413858, 0.157818l 0.413858, 0.15802l 0.413858, 0.158214l
 0.413858, 0.158399l 0.413858, 0.158575l 0.413858, 0.158743l 0.413858, 0.158901l 0.413858, 0.159052l 0.413858, 0.159193l 0.413858, 0.159326l 0.413858, 0.15945l 0.413858, 0.159566l 0.413858, 0.159674l 0.413858, 0.159773l 0.413858, 0.159863l 0.413858,
 0.159945l 0.413858, 0.160019l 0.413858, 0.160084l 0.413858, 0.160141l 0.413858, 0.16019l 0.413858, 0.160231l 0.413858, 0.160263l 0.413858, 0.160287l 0.413858, 0.160303l 0.413858, 0.160311l 0.413858, 0.160311l 0.413858, 0.160303l 0.413858, 0.160287l
 0.413858, 0.160264l 0.413858, 0.160232l 0.413858, 0.160192l 0.413858, 0.160145l 0.413858, 0.16009l 0.413858, 0.160027l 0.413858, 0.159957l 0.413858, 0.159879l 0.413858, 0.159793l 0.413858, 0.1597l 0.413858, 0.159599l 0.413858, 0.159491l 0.413858,
 0.159376l 0.413858, 0.159253l 0.413858, 0.159123l 0.413858, 0.158986l 0.413858, 0.158841l 0.413858, 0.15869l 0.413858, 0.158531l 0.413858, 0.158366l 0.413858, 0.158193l 0.413858, 0.158013l 0.413858, 0.157827l 0.413858, 0.157634l 0.413858, 0.157434l
 0.413858, 0.157227l 0.413858, 0.157014l 0.413858, 0.156794l 0.413858, 0.156567l 0.413858, 0.156334l 0.413858, 0.156094l 0.413858, 0.155849l 0.413858, 0.155596l 0.413858, 0.155338l 0.413858, 0.155073l 0.413858, 0.154802l 0.413858, 0.154525l 0.413858,
 0.154242l 0.413858, 0.153953l 0.413858, 0.153658l 0.413858, 0.153357l 0.413858, 0.153051l 0.413858, 0.152738l 0.413858, 0.15242l 0.413858, 0.152096l 0.413858, 0.151767l 0.413858, 0.151432l 0.413858, 0.151092l 0.413858, 0.150746l 0.413858, 0.150395l
 0.413858, 0.150039l 0.413858, 0.149677l 0.413858, 0.14931l 0.413858, 0.148938l 0.413858, 0.148562l 0.413858, 0.14818l 0.413858, 0.147793l 0.413858, 0.147401l 0.413858, 0.147005l 0.413858, 0.146603l 0.413858, 0.146197l 0.413858, 0.145787l 0.413858,
 0.145372l 0.413858, 0.144952l 0.413858, 0.144528l 0.413858, 0.1441l 0.413858, 0.143667l 0.413858, 0.14323l 0.413858, 0.142789l 0.413858, 0.142344l 0.413858, 0.141894l 0.413858, 0.141441l 0.413858, 0.140983l 0.413858, 0.140522l 0.413858, 0.140057l
 0.413858, 0.139588l 0.413858, 0.139116l 0.413858, 0.13864l 0.413858, 0.13816l 0.413858, 0.137677l 0.413858, 0.13719l 0.413858, 0.1367l 0.413858, 0.136206l 0.413858, 0.13571l 0.413858, 0.13521l 0.413858, 0.134707l 0.413858, 0.134201l 0.413858,
 0.133691l 0.413858, 0.133179l 0.413858, 0.132664l 0.413858, 0.132146l 0.413858, 0.131625l 0.413858, 0.131102l 0.413858, 0.130576l 0.413858, 0.130047l 0.413858, 0.129515l 0.413858, 0.128982l 0.413858, 0.128445l 0.413858, 0.127907l 0.413858, 0.127366l
 0.413858, 0.126822l 0.413858, 0.126277l 0.413858, 0.125729l 0.413858, 0.125179l 0.413858, 0.124628l 0.413858, 0.124074l 0.413858, 0.123518l 0.413858, 0.122961l 0.413858, 0.122401l 0.413858, 0.12184l 0.413858, 0.121277l 0.413858, 0.120713l 0.413858,
 0.120147l 0.413858, 0.119579l 0.413858, 0.11901l 0.413858, 0.11844l 0.413858, 0.117868l 0.413858, 0.117294l 0.413858, 0.11672l 0.413858, 0.116144l 0.413858, 0.115567l 0.413858, 0.11499l 0.413858, 0.114411l 0.413858, 0.11383l 0.413858, 0.11325l
 0.413858, 0.112668l 0.413858, 0.112085l 0.413858, 0.111501l 0.413858, 0.110917l 0.413858, 0.110332l 0.413858, 0.109747l 0.413858, 0.10916l 0.413858, 0.108574l 0.413858, 0.107986l 0.413858, 0.107398l 0.413858, 0.10681l 0.413858, 0.106222l 0.413858,
 0.105633l 0.413858, 0.105044l 0.413858, 0.104455l 0.413858, 0.103865l 0.413858, 0.103275l 0.413858, 0.102686l 0.413858, 0.102096l 0.413858, 0.101506l 0.413858, 0.100917l 0.413858, 0.100327l 0.413858, 0.0997375l 0.413858, 0.0991482l 0.413858,
 0.0985591l 0.413858, 0.0979703l 0.413858, 0.0973818l 0.413858, 0.0967936l 0.413858, 0.0962059l 0.413858, 0.0956185l 0.413858, 0.0950316l 0.413858, 0.0944452l 0.413858, 0.0938594l 0.413858, 0.0932742l 0.413858, 0.0926895l 0.413858, 0.0921056l
 0.413858, 0.0915223l 0.413858, 0.0909398l 0.413858, 0.090358l 0.413858, 0.0897771l 0.413858, 0.089197l 0.413858, 0.0886177l 0.413858, 0.0880394l 0.413858, 0.0874621l 0.413858, 0.0868857l 0.413858, 0.0863103l 0.413858, 0.085736l 0.413858, 0.0851628l
 0.413858, 0.0845907l 0.413858, 0.0840198l 0.413858, 0.08345l 0.413858, 0.0828814l 0.413858, 0.0823141l 0.413858, 0.0817481l 0.413858, 0.0811833l 0.413858, 0.0806199l 0.413858, 0.0800579l 0.413858, 0.0794973l 0.413858, 0.0789381l 0.413858, 0.0783803l
 0.413858, 0.077824l 0.413858, 0.0772692l 0.413858, 0.0767159l 0.413858, 0.0761642l 0.413858, 0.0756141l 0.413858, 0.0750656l 0.413858, 0.0745188l 0.413858, 0.0739735l 0.413858, 0.07343l 0.413858, 0.0728882l 0.413858, 0.0723481l 0.413858, 0.0718098l
 0.413858, 0.0712732l 0.413858, 0.0707385l 0.413858, 0.0702055l 0.413858, 0.0696744l 0.413858, 0.0691452l 0.413858, 0.0686179l 0.413858, 0.0680924l 0.413858, 0.0675689l 0.413858, 0.0670473l 0.413858, 0.0665277l 0.413858, 0.0660101l 0.413858,
 0.0654945l 0.413858, 0.0649809l 0.413858, 0.0644693l 0.413858, 0.0639598l 0.413858, 0.0634524l 0.413858, 0.062947l 0.413858, 0.0624438l 0.413858, 0.0619427l 0.413858, 0.0614437l 0.413858, 0.0609468l 0.413858, 0.0604521l 0.413858, 0.0599596l
 0.413858, 0.0594693l 0.413858, 0.0589812l 0.413858, 0.0584954l 0.413858, 0.0580117l 0.413858, 0.0575303l 0.413858, 0.0570511l 0.413858, 0.0565743l 0.413858, 0.0560997l 0.413858, 0.0556273l 0.413858, 0.0551573l 0.413858, 0.0546896l 0.413858,
 0.0542243l 0.413858, 0.0537612l 0.413858, 0.0533005l 0.413858, 0.0528422l 0.413858, 0.0523862l 0.413858, 0.0519325l 0.413858, 0.0514813l 0.413858, 0.0510324l 0.413858, 0.0505859l 0.413858, 0.0501418l 0.413858, 0.0497001l 0.413858, 0.0492609l
 0.413858, 0.048824l 0.413858, 0.0483896l 0.413858, 0.0479576l 0.413858, 0.047528l 0.413858, 0.0471008l 0.413858, 0.0466762l 0.413858, 0.0462539l 0.413858, 0.0458341l 0.413858, 0.0454168l 0.413858, 0.0450019l 0.413858, 0.0445894l 0.413858, 0.0441795l
 0.413858, 0.043772l 0.413858, 0.0433669l 0.413858, 0.0429644l 0.413858, 0.0425643l 0.413858, 0.0421667l 0.413858, 0.0417715l 0.413858, 0.0413788l 0.413858, 0.0409887l 0.413858, 0.0406009l 0.413858, 0.0402157l 0.413858, 0.0398329l 0.413858,
 0.0394527l 0.413858, 0.0390749l 0.413858, 0.0386995l 0.413858, 0.0383267l 0.413858, 0.0379563l 0.413858, 0.0375884l 0.413858, 0.0372229l 0.413858, 0.03686l 0.413858, 0.0364995l 0.413858, 0.0361414l 0.413858, 0.0357859l 0.413858, 0.0354327l 0.413858,
 0.0350821l 0.413858, 0.0347338l 0.413858, 0.0343881l 0.413858, 0.0340448l 0.413858, 0.0337039l 0.413858, 0.0333654l 0.413858, 0.0330294l 0.413858, 0.0326959l 0.413858, 0.0323647l 0.413858, 0.032036l 0.413858, 0.0317096l 0.413858, 0.0313857l
 0.413858, 0.0310642l 0.413858, 0.0307451l 0.413858, 0.0304284l 0.413858, 0.0301141l 0.413858, 0.0298021l 0.413858, 0.0294926l 0.413858, 0.0291853l 0.413858, 0.0288805l 0.413858, 0.028578l 0.413858, 0.0282779l 0.413858, 0.0279801l 0.413858,
 0.0276846l 0.413858, 0.0273915l 0.413858, 0.0271007l 0.413858, 0.0268122l 0.413858, 0.026526l 0.413858, 0.0262421l 0.413858, 0.0259605l 0.413858, 0.0256811l 0.413858, 0.0254041l 0.413858, 0.0251293l 0.413858, 0.0248568l 0.413858, 0.0245865l
 0.413858, 0.0243184l 0.413858, 0.0240526l 0.413858, 0.023789l 0.413858, 0.0235277l 0.413858, 0.0232685l 0.413858, 0.0230115l 0.413858, 0.0227567l 0.413858, 0.0225041l 0.413858, 0.0222536l 0.413858, 0.0220053l 0.413858, 0.0217592l 0.413858,
 0.0215152l 0.413858, 0.0212733l 0.413858, 0.0210335l 0.413858, 0.0207959l 0.413858, 0.0205603l 0.413858, 0.0203269l 0.413858, 0.0200955l 0.413858, 0.0198661l 0.413858, 0.0196389l 0.413858, 0.0194137l 0.413858, 0.0191905l 0.413858, 0.0189693l
 0.413858, 0.0187502l 0.413858, 0.018533l 0.413858, 0.0183179l 0.413858, 0.0181047l 0.413858, 0.0178935l 0.413858, 0.0176843l 0.413858, 0.017477l 0.413858, 0.0172717l 0.413858, 0.0170683l 0.413858, 0.0168668" fill="none" stroke="#0000ff"
 stroke-width="2"/></svg>
