<?xml version="1.0" standalone="no"?>
<svg width="567.429" height="383.055" viewBox="0 0 567.429 383.055" xmlns="http://www.w3.org/2000/svg" shape-rendering="crispEdges">
<title>
/mnt/c/Users/Masahiro/OneDrive/YMAP/ROOT2020/ROOT2020/yoshimoto/svg_root/poly_fit_manual.svg
</title>
<desc>
Creator: ROOT Version 6.20/04
CreationDate: Sun May 17 17:06:54 2020</desc>
<defs>
</defs>
<rect x="0.5" y="0" width="566.929" height="382.555" fill="white" fill-opacity="1.0"/>
<rect x="68.5315" y="45.9066" width="413.858" height="290.742" fill="white"/>
<rect x="68.5315" y="45.9066" width="413.858" height="290.742" fill="none" stroke="black"/>
<rect x="68.5315" y="45.9066" width="413.858" height="290.742" fill="white"/>
<rect x="68.5315" y="45.9066" width="413.858" height="290.742" fill="none" stroke="black"/>
<path d="M68.5315,336.649h 413.858" fill="none" stroke="black" stroke-width="2"/>
<path d="M68.5315,328.271v 8.37796" fill="none" stroke="black" stroke-width="2"/>
<path d="M79.9483,332.46v 4.18898" fill="none" stroke="black" stroke-width="2"/>
<path d="M91.3651,332.46v 4.18898" fill="none" stroke="black" stroke-width="2"/>
<path d="M102.782,332.46v 4.18898" fill="none" stroke="black" stroke-width="2"/>
<path d="M114.199,332.46v 4.18898" fill="none" stroke="black" stroke-width="2"/>
<path d="M125.615,328.271v 8.37796" fill="none" stroke="black" stroke-width="2"/>
<path d="M137.032,332.46v 4.18898" fill="none" stroke="black" stroke-width="2"/>
<path d="M148.449,332.46v 4.18898" fill="none" stroke="black" stroke-width="2"/>
<path d="M159.866,332.46v 4.18898" fill="none" stroke="black" stroke-width="2"/>
<path d="M171.283,332.46v 4.18898" fill="none" stroke="black" stroke-width="2"/>
<path d="M182.699,328.271v 8.37796" fill="none" stroke="black" stroke-width="2"/>
<path d="M194.116,332.46v 4.18898" fill="none" stroke="black" stroke-width="2"/>
<path d="M205.533,332.46v 4.18898" fill="none" stroke="black" stroke-width="2"/>
<path d="M216.95,332.46v 4.18898" fill="none" stroke="black" stroke-width="2"/>
<path d="M228.366,332.46v 4.18898" fill="none" stroke="black" stroke-width="2"/>
<path d="M239.783,328.271v 8.37796" fill="none" stroke="black" stroke-width="2"/>
<path d="M251.2,332.46v 4.18898" fill="none" stroke="black" stroke-width="2"/>
<path d="M262.617,332.46v 4.18898" fill="none" stroke="black" stroke-width="2"/>
<path d="M274.034,332.46v 4.18898" fill="none" stroke="black" stroke-width="2"/>
<path d="M285.45,332.46v 4.18898" fill="none" stroke="black" stroke-width="2"/>
<path d="M296.867,328.271v 8.37796" fill="none" stroke="black" stroke-width="2"/>
<path d="M308.284,332.46v 4.18898" fill="none" stroke="black" stroke-width="2"/>
<path d="M319.701,332.46v 4.18898" fill="none" stroke="black" stroke-width="2"/>
<path d="M331.117,332.46v 4.18898" fill="none" stroke="black" stroke-width="2"/>
<path d="M342.534,332.46v 4.18898" fill="none" stroke="black" stroke-width="2"/>
<path d="M353.951,328.271v 8.37796" fill="none" stroke="black" stroke-width="2"/>
<path d="M365.368,332.46v 4.18898" fill="none" stroke="black" stroke-width="2"/>
<path d="M376.785,332.46v 4.18898" fill="none" stroke="black" stroke-width="2"/>
<path d="M388.201,332.46v 4.18898" fill="none" stroke="black" stroke-width="2"/>
<path d="M399.618,332.46v 4.18898" fill="none" stroke="black" stroke-width="2"/>
<path d="M411.035,328.271v 8.37796" fill="none" stroke="black" stroke-width="2"/>
<path d="M422.452,332.46v 4.18898" fill="none" stroke="black" stroke-width="2"/>
<path d="M433.868,332.46v 4.18898" fill="none" stroke="black" stroke-width="2"/>
<path d="M445.285,332.46v 4.18898" fill="none" stroke="black" stroke-width="2"/>
<path d="M456.702,332.46v 4.18898" fill="none" stroke="black" stroke-width="2"/>
<path d="M468.119,328.271v 8.37796" fill="none" stroke="black" stroke-width="2"/>
<path d="M468.119,328.271v 8.37796" fill="none" stroke="black" stroke-width="2"/>
<path d="M479.536,332.46v 4.18898" fill="none" stroke="black" stroke-width="2"/>
<text xml:space="preserve" x="63.8531" y="352.503" fill="black" font-size="14.5387" font-family="Helvetica">0</text>
<text xml:space="preserve" x="117.46" y="352.503" fill="black" font-size="14.5387" font-family="Helvetica">10</text>
<text xml:space="preserve" x="174.315" y="352.503" fill="black" font-size="14.5387" font-family="Helvetica">20</text>
<text xml:space="preserve" x="231.17" y="352.503" fill="black" font-size="14.5387" font-family="Helvetica">30</text>
<text xml:space="preserve" x="288.026" y="352.503" fill="black" font-size="14.5387" font-family="Helvetica">40</text>
<text xml:space="preserve" x="345.693" y="352.503" fill="black" font-size="14.5387" font-family="Helvetica">50</text>
<text xml:space="preserve" x="402.549" y="352.503" fill="black" font-size="14.5387" font-family="Helvetica">60</text>
<text xml:space="preserve" x="459.404" y="352.503" fill="black" font-size="14.5387" font-family="Helvetica">70</text>
<text xml:space="preserve" x="414.732" y="372.809" fill="black" font-size="14.5387" font-family="Helvetica">Time [day]</text>
<path d="M68.5315,45.9066h 413.858" fill="none" stroke="black" stroke-width="2"/>
<path d="M68.5315,54.2846v -8.37796" fill="none" stroke="black" stroke-width="2"/>
<path d="M79.9483,50.0956v -4.18898" fill="none" stroke="black" stroke-width="2"/>
<path d="M91.3651,50.0956v -4.18898" fill="none" stroke="black" stroke-width="2"/>
<path d="M102.782,50.0956v -4.18898" fill="none" stroke="black" stroke-width="2"/>
<path d="M114.199,50.0956v -4.18898" fill="none" stroke="black" stroke-width="2"/>
<path d="M125.615,54.2846v -8.37796" fill="none" stroke="black" stroke-width="2"/>
<path d="M137.032,50.0956v -4.18898" fill="none" stroke="black" stroke-width="2"/>
<path d="M148.449,50.0956v -4.18898" fill="none" stroke="black" stroke-width="2"/>
<path d="M159.866,50.0956v -4.18898" fill="none" stroke="black" stroke-width="2"/>
<path d="M171.283,50.0956v -4.18898" fill="none" stroke="black" stroke-width="2"/>
<path d="M182.699,54.2846v -8.37796" fill="none" stroke="black" stroke-width="2"/>
<path d="M194.116,50.0956v -4.18898" fill="none" stroke="black" stroke-width="2"/>
<path d="M205.533,50.0956v -4.18898" fill="none" stroke="black" stroke-width="2"/>
<path d="M216.95,50.0956v -4.18898" fill="none" stroke="black" stroke-width="2"/>
<path d="M228.366,50.0956v -4.18898" fill="none" stroke="black" stroke-width="2"/>
<path d="M239.783,54.2846v -8.37796" fill="none" stroke="black" stroke-width="2"/>
<path d="M251.2,50.0956v -4.18898" fill="none" stroke="black" stroke-width="2"/>
<path d="M262.617,50.0956v -4.18898" fill="none" stroke="black" stroke-width="2"/>
<path d="M274.034,50.0956v -4.18898" fill="none" stroke="black" stroke-width="2"/>
<path d="M285.45,50.0956v -4.18898" fill="none" stroke="black" stroke-width="2"/>
<path d="M296.867,54.2846v -8.37796" fill="none" stroke="black" stroke-width="2"/>
<path d="M308.284,50.0956v -4.18898" fill="none" stroke="black" stroke-width="2"/>
<path d="M319.701,50.0956v -4.18898" fill="none" stroke="black" stroke-width="2"/>
<path d="M331.117,50.0956v -4.18898" fill="none" stroke="black" stroke-width="2"/>
<path d="M342.534,50.0956v -4.18898" fill="none" stroke="black" stroke-width="2"/>
<path d="M353.951,54.2846v -8.37796" fill="none" stroke="black" stroke-width="2"/>
<path d="M365.368,50.0956v -4.18898" fill="none" stroke="black" stroke-width="2"/>
<path d="M376.785,50.0956v -4.18898" fill="none" stroke="black" stroke-width="2"/>
<path d="M388.201,50.0956v -4.18898" fill="none" stroke="black" stroke-width="2"/>
<path d="M399.618,50.0956v -4.18898" fill="none" stroke="black" stroke-width="2"/>
<path d="M411.035,54.2846v -8.37796" fill="none" stroke="black" stroke-width="2"/>
<path d="M422.452,50.0956v -4.18898" fill="none" stroke="black" stroke-width="2"/>
<path d="M433.868,50.0956v -4.18898" fill="none" stroke="black" stroke-width="2"/>
<path d="M445.285,50.0956v -4.18898" fill="none" stroke="black" stroke-width="2"/>
<path d="M456.702,50.0956v -4.18898" fill="none" stroke="black" stroke-width="2"/>
<path d="M468.119,54.2846v -8.37796" fill="none" stroke="black" stroke-width="2"/>
<path d="M468.119,54.2846v -8.37796" fill="none" stroke="black" stroke-width="2"/>
<path d="M479.536,50.0956v -4.18898" fill="none" stroke="black" stroke-width="2"/>
<path d="M68.5315,336.649v -290.742" fill="none" stroke="black" stroke-width="2"/>
<path d="M81.4575,336.649h -12.926" fill="none" stroke="black" stroke-width="2"/>
<path d="M74.9945,329.38h -6.46299" fill="none" stroke="black" stroke-width="2"/>
<path d="M74.9945,322.112h -6.46299" fill="none" stroke="black" stroke-width="2"/>
<path d="M74.9945,314.843h -6.46299" fill="none" stroke="black" stroke-width="2"/>
<path d="M81.4575,307.574h -12.926" fill="none" stroke="black" stroke-width="2"/>
<path d="M74.9945,300.306h -6.46299" fill="none" stroke="black" stroke-width="2"/>
<path d="M74.9945,293.037h -6.46299" fill="none" stroke="black" stroke-width="2"/>
<path d="M74.9945,285.769h -6.46299" fill="none" stroke="black" stroke-width="2"/>
<path d="M81.4575,278.5h -12.926" fill="none" stroke="black" stroke-width="2"/>
<path d="M74.9945,271.232h -6.46299" fill="none" stroke="black" stroke-width="2"/>
<path d="M74.9945,263.963h -6.46299" fill="none" stroke="black" stroke-width="2"/>
<path d="M74.9945,256.695h -6.46299" fill="none" stroke="black" stroke-width="2"/>
<path d="M81.4575,249.426h -12.926" fill="none" stroke="black" stroke-width="2"/>
<path d="M74.9945,242.158h -6.46299" fill="none" stroke="black" stroke-width="2"/>
<path d="M74.9945,234.889h -6.46299" fill="none" stroke="black" stroke-width="2"/>
<path d="M74.9945,227.62h -6.46299" fill="none" stroke="black" stroke-width="2"/>
<path d="M81.4575,220.352h -12.926" fill="none" stroke="black" stroke-width="2"/>
<path d="M74.9945,213.083h -6.46299" fill="none" stroke="black" stroke-width="2"/>
<path d="M74.9945,205.815h -6.46299" fill="none" stroke="black" stroke-width="2"/>
<path d="M74.9945,198.546h -6.46299" fill="none" stroke="black" stroke-width="2"/>
<path d="M81.4575,191.278h -12.926" fill="none" stroke="black" stroke-width="2"/>
<path d="M74.9945,184.009h -6.46299" fill="none" stroke="black" stroke-width="2"/>
<path d="M74.9945,176.741h -6.46299" fill="none" stroke="black" stroke-width="2"/>
<path d="M74.9945,169.472h -6.46299" fill="none" stroke="black" stroke-width="2"/>
<path d="M81.4575,162.203h -12.926" fill="none" stroke="black" stroke-width="2"/>
<path d="M74.9945,154.935h -6.46299" fill="none" stroke="black" stroke-width="2"/>
<path d="M74.9945,147.666h -6.46299" fill="none" stroke="black" stroke-width="2"/>
<path d="M74.9945,140.398h -6.46299" fill="none" stroke="black" stroke-width="2"/>
<path d="M81.4575,133.129h -12.926" fill="none" stroke="black" stroke-width="2"/>
<path d="M74.9945,125.861h -6.46299" fill="none" stroke="black" stroke-width="2"/>
<path d="M74.9945,118.592h -6.46299" fill="none" stroke="black" stroke-width="2"/>
<path d="M74.9945,111.324h -6.46299" fill="none" stroke="black" stroke-width="2"/>
<path d="M81.4575,104.055h -12.926" fill="none" stroke="black" stroke-width="2"/>
<path d="M74.9945,96.7865h -6.46299" fill="none" stroke="black" stroke-width="2"/>
<path d="M74.9945,89.5179h -6.46299" fill="none" stroke="black" stroke-width="2"/>
<path d="M74.9945,82.2494h -6.46299" fill="none" stroke="black" stroke-width="2"/>
<path d="M81.4575,74.9808h -12.926" fill="none" stroke="black" stroke-width="2"/>
<path d="M74.9945,67.7123h -6.46299" fill="none" stroke="black" stroke-width="2"/>
<path d="M74.9945,60.4437h -6.46299" fill="none" stroke="black" stroke-width="2"/>
<path d="M74.9945,53.1752h -6.46299" fill="none" stroke="black" stroke-width="2"/>
<path d="M81.4575,45.9066h -12.926" fill="none" stroke="black" stroke-width="2"/>
<text xml:space="preserve" x="45.9843" y="341.944" fill="black" font-size="14.5387" font-family="Helvetica">36</text>
<text xml:space="preserve" x="33.801" y="312.704" fill="black" font-size="14.5387" font-family="Helvetica">36.2</text>
<text xml:space="preserve" x="33.801" y="283.465" fill="black" font-size="14.5387" font-family="Helvetica">36.4</text>
<text xml:space="preserve" x="33.801" y="255.037" fill="black" font-size="14.5387" font-family="Helvetica">36.6</text>
<text xml:space="preserve" x="33.801" y="225.797" fill="black" font-size="14.5387" font-family="Helvetica">36.8</text>
<text xml:space="preserve" x="45.9843" y="196.557" fill="black" font-size="14.5387" font-family="Helvetica">37</text>
<text xml:space="preserve" x="33.801" y="167.317" fill="black" font-size="14.5387" font-family="Helvetica">37.2</text>
<text xml:space="preserve" x="33.801" y="138.077" fill="black" font-size="14.5387" font-family="Helvetica">37.4</text>
<text xml:space="preserve" x="33.801" y="109.65" fill="black" font-size="14.5387" font-family="Helvetica">37.6</text>
<text xml:space="preserve" x="33.801" y="80.4097" fill="black" font-size="14.5387" font-family="Helvetica">37.8</text>
<text xml:space="preserve" x="45.9843" y="51.1698" fill="black" font-size="14.5387" font-family="Helvetica">38</text>
<g transform="rotate(-90,24.8666,63.3531)">
<text xml:space="preserve" x="24.8666" y="63.3531" fill="black" font-size="14.5387" font-family="Helvetica"> C]</text>
</g>
<g transform="rotate(-90,24.8666,69.0387)">
<text xml:space="preserve" x="24.8666" y="69.0387" fill="black" font-size="14.5387" font-family="Times">&#0176;</text>
</g>
<g transform="rotate(-90,24.0544,193.308)">
<text xml:space="preserve" x="24.0544" y="193.308" fill="black" font-size="14.5387" font-family="Helvetica">Body temperature [</text>
</g>
<path d="M482.39,336.649v -290.742" fill="none" stroke="black" stroke-width="2"/>
<path d="M469.464,336.649h 12.926" fill="none" stroke="black" stroke-width="2"/>
<path d="M475.927,329.38h 6.46299" fill="none" stroke="black" stroke-width="2"/>
<path d="M475.927,322.112h 6.46299" fill="none" stroke="black" stroke-width="2"/>
<path d="M475.927,314.843h 6.46299" fill="none" stroke="black" stroke-width="2"/>
<path d="M469.464,307.574h 12.926" fill="none" stroke="black" stroke-width="2"/>
<path d="M475.927,300.306h 6.46299" fill="none" stroke="black" stroke-width="2"/>
<path d="M475.927,293.037h 6.46299" fill="none" stroke="black" stroke-width="2"/>
<path d="M475.927,285.769h 6.46299" fill="none" stroke="black" stroke-width="2"/>
<path d="M469.464,278.5h 12.926" fill="none" stroke="black" stroke-width="2"/>
<path d="M475.927,271.232h 6.46299" fill="none" stroke="black" stroke-width="2"/>
<path d="M475.927,263.963h 6.46299" fill="none" stroke="black" stroke-width="2"/>
<path d="M475.927,256.695h 6.46299" fill="none" stroke="black" stroke-width="2"/>
<path d="M469.464,249.426h 12.926" fill="none" stroke="black" stroke-width="2"/>
<path d="M475.927,242.158h 6.46299" fill="none" stroke="black" stroke-width="2"/>
<path d="M475.927,234.889h 6.46299" fill="none" stroke="black" stroke-width="2"/>
<path d="M475.927,227.62h 6.46299" fill="none" stroke="black" stroke-width="2"/>
<path d="M469.464,220.352h 12.926" fill="none" stroke="black" stroke-width="2"/>
<path d="M475.927,213.083h 6.46299" fill="none" stroke="black" stroke-width="2"/>
<path d="M475.927,205.815h 6.46299" fill="none" stroke="black" stroke-width="2"/>
<path d="M475.927,198.546h 6.46299" fill="none" stroke="black" stroke-width="2"/>
<path d="M469.464,191.278h 12.926" fill="none" stroke="black" stroke-width="2"/>
<path d="M475.927,184.009h 6.46299" fill="none" stroke="black" stroke-width="2"/>
<path d="M475.927,176.741h 6.46299" fill="none" stroke="black" stroke-width="2"/>
<path d="M475.927,169.472h 6.46299" fill="none" stroke="black" stroke-width="2"/>
<path d="M469.464,162.203h 12.926" fill="none" stroke="black" stroke-width="2"/>
<path d="M475.927,154.935h 6.46299" fill="none" stroke="black" stroke-width="2"/>
<path d="M475.927,147.666h 6.46299" fill="none" stroke="black" stroke-width="2"/>
<path d="M475.927,140.398h 6.46299" fill="none" stroke="black" stroke-width="2"/>
<path d="M469.464,133.129h 12.926" fill="none" stroke="black" stroke-width="2"/>
<path d="M475.927,125.861h 6.46299" fill="none" stroke="black" stroke-width="2"/>
<path d="M475.927,118.592h 6.46299" fill="none" stroke="black" stroke-width="2"/>
<path d="M475.927,111.324h 6.46299" fill="none" stroke="black" stroke-width="2"/>
<path d="M469.464,104.055h 12.926" fill="none" stroke="black" stroke-width="2"/>
<path d="M475.927,96.7865h 6.46299" fill="none" stroke="black" stroke-width="2"/>
<path d="M475.927,89.5179h 6.46299" fill="none" stroke="black" stroke-width="2"/>
<path d="M475.927,82.2494h 6.46299" fill="none" stroke="black" stroke-width="2"/>
<path d="M469.464,74.9808h 12.926" fill="none" stroke="black" stroke-width="2"/>
<path d="M475.927,67.7123h 6.46299" fill="none" stroke="black" stroke-width="2"/>
<path d="M475.927,60.4437h 6.46299" fill="none" stroke="black" stroke-width="2"/>
<path d="M475.927,53.1752h 6.46299" fill="none" stroke="black" stroke-width="2"/>
<path d="M469.464,45.9066h 12.926" fill="none" stroke="black" stroke-width="2"/>
<g stroke="black" stroke-width="2" fill="none">
<line x1="70.991" y1="162.203" x2="77.4888" y2="162.203"/><line x1="74.2399" y1="158.955" x2="74.2399" y2="165.452"/>
<line x1="76.6994" y1="162.203" x2="83.1972" y2="162.203"/><line x1="79.9483" y1="158.955" x2="79.9483" y2="165.452"/>
<line x1="82.4078" y1="263.963" x2="88.9055" y2="263.963"/><line x1="85.6567" y1="260.714" x2="85.6567" y2="267.212"/>
<line x1="88.1162" y1="191.278" x2="94.6139" y2="191.278"/><line x1="91.3651" y1="188.029" x2="91.3651" y2="194.527"/>
<line x1="93.8246" y1="176.741" x2="100.322" y2="176.741"/><line x1="97.0734" y1="173.492" x2="97.0734" y2="179.989"/>
<line x1="99.533" y1="176.741" x2="106.031" y2="176.741"/><line x1="102.782" y1="173.492" x2="102.782" y2="179.989"/>
<line x1="105.241" y1="176.741" x2="111.739" y2="176.741"/><line x1="108.49" y1="173.492" x2="108.49" y2="179.989"/>
<line x1="110.95" y1="205.815" x2="117.447" y2="205.815"/><line x1="114.199" y1="202.566" x2="114.199" y2="209.064"/>
<line x1="116.658" y1="263.963" x2="123.156" y2="263.963"/><line x1="119.907" y1="260.714" x2="119.907" y2="267.212"/>
<line x1="122.367" y1="176.741" x2="128.864" y2="176.741"/><line x1="125.615" y1="173.492" x2="125.615" y2="179.989"/>
<line x1="128.075" y1="220.352" x2="134.573" y2="220.352"/><line x1="131.324" y1="217.103" x2="131.324" y2="223.601"/>
<line x1="133.783" y1="191.278" x2="140.281" y2="191.278"/><line x1="137.032" y1="188.029" x2="137.032" y2="194.527"/>
<line x1="139.492" y1="220.352" x2="145.989" y2="220.352"/><line x1="142.741" y1="217.103" x2="142.741" y2="223.601"/>
<line x1="145.2" y1="205.815" x2="151.698" y2="205.815"/><line x1="148.449" y1="202.566" x2="148.449" y2="209.064"/>
<line x1="150.908" y1="220.352" x2="157.406" y2="220.352"/><line x1="154.157" y1="217.103" x2="154.157" y2="223.601"/>
<line x1="156.617" y1="191.278" x2="163.115" y2="191.278"/><line x1="159.866" y1="188.029" x2="159.866" y2="194.527"/>
<line x1="162.325" y1="176.741" x2="168.823" y2="176.741"/><line x1="165.574" y1="173.492" x2="165.574" y2="179.989"/>
<line x1="168.034" y1="176.741" x2="174.531" y2="176.741"/><line x1="171.283" y1="173.492" x2="171.283" y2="179.989"/>
<line x1="173.742" y1="220.352" x2="180.24" y2="220.352"/><line x1="176.991" y1="217.103" x2="176.991" y2="223.601"/>
<line x1="179.45" y1="133.129" x2="185.948" y2="133.129"/><line x1="182.699" y1="129.88" x2="182.699" y2="136.378"/>
<line x1="185.159" y1="162.203" x2="191.657" y2="162.203"/><line x1="188.408" y1="158.955" x2="188.408" y2="165.452"/>
<line x1="190.867" y1="176.741" x2="197.365" y2="176.741"/><line x1="194.116" y1="173.492" x2="194.116" y2="179.989"/>
<line x1="196.576" y1="191.278" x2="203.073" y2="191.278"/><line x1="199.824" y1="188.029" x2="199.824" y2="194.527"/>
<line x1="202.284" y1="176.741" x2="208.782" y2="176.741"/><line x1="205.533" y1="173.492" x2="205.533" y2="179.989"/>
<line x1="207.992" y1="104.055" x2="214.49" y2="104.055"/><line x1="211.241" y1="100.806" x2="211.241" y2="107.304"/>
<line x1="213.701" y1="176.741" x2="220.199" y2="176.741"/><line x1="216.95" y1="173.492" x2="216.95" y2="179.989"/>
<line x1="219.409" y1="133.129" x2="225.907" y2="133.129"/><line x1="222.658" y1="129.88" x2="222.658" y2="136.378"/>
<line x1="225.118" y1="162.203" x2="231.615" y2="162.203"/><line x1="228.366" y1="158.955" x2="228.366" y2="165.452"/>
<line x1="230.826" y1="118.592" x2="237.324" y2="118.592"/><line x1="234.075" y1="115.343" x2="234.075" y2="121.841"/>
<line x1="236.534" y1="234.889" x2="243.032" y2="234.889"/><line x1="239.783" y1="231.64" x2="239.783" y2="238.138"/>
<line x1="242.243" y1="162.203" x2="248.74" y2="162.203"/><line x1="245.492" y1="158.955" x2="245.492" y2="165.452"/>
<line x1="247.951" y1="133.129" x2="254.449" y2="133.129"/><line x1="251.2" y1="129.88" x2="251.2" y2="136.378"/>
<line x1="253.659" y1="104.055" x2="260.157" y2="104.055"/><line x1="256.908" y1="100.806" x2="256.908" y2="107.304"/>
<line x1="259.368" y1="147.666" x2="265.866" y2="147.666"/><line x1="262.617" y1="144.417" x2="262.617" y2="150.915"/>
<line x1="265.076" y1="191.278" x2="271.574" y2="191.278"/><line x1="268.325" y1="188.029" x2="268.325" y2="194.527"/>
<line x1="270.785" y1="147.666" x2="277.282" y2="147.666"/><line x1="274.034" y1="144.417" x2="274.034" y2="150.915"/>
<line x1="276.493" y1="104.055" x2="282.991" y2="104.055"/><line x1="279.742" y1="100.806" x2="279.742" y2="107.304"/>
<line x1="282.201" y1="176.741" x2="288.699" y2="176.741"/><line x1="285.45" y1="173.492" x2="285.45" y2="179.989"/>
<line x1="287.91" y1="118.592" x2="294.408" y2="118.592"/><line x1="291.159" y1="115.343" x2="291.159" y2="121.841"/>
<line x1="293.618" y1="133.129" x2="300.116" y2="133.129"/><line x1="296.867" y1="129.88" x2="296.867" y2="136.378"/>
<line x1="299.327" y1="147.666" x2="305.824" y2="147.666"/><line x1="302.575" y1="144.417" x2="302.575" y2="150.915"/>
<line x1="305.035" y1="118.592" x2="311.533" y2="118.592"/><line x1="308.284" y1="115.343" x2="308.284" y2="121.841"/>
<line x1="310.743" y1="162.203" x2="317.241" y2="162.203"/><line x1="313.992" y1="158.955" x2="313.992" y2="165.452"/>
<line x1="316.452" y1="118.592" x2="322.95" y2="118.592"/><line x1="319.701" y1="115.343" x2="319.701" y2="121.841"/>
<line x1="322.16" y1="89.5179" x2="328.658" y2="89.5179"/><line x1="325.409" y1="86.2691" x2="325.409" y2="92.7668"/>
<line x1="327.869" y1="104.055" x2="334.366" y2="104.055"/><line x1="331.117" y1="100.806" x2="331.117" y2="107.304"/>
<line x1="333.577" y1="118.592" x2="340.075" y2="118.592"/><line x1="336.826" y1="115.343" x2="336.826" y2="121.841"/>
<line x1="339.285" y1="220.352" x2="345.783" y2="220.352"/><line x1="342.534" y1="217.103" x2="342.534" y2="223.601"/>
<line x1="344.994" y1="191.278" x2="351.491" y2="191.278"/><line x1="348.243" y1="188.029" x2="348.243" y2="194.527"/>
<line x1="350.702" y1="191.278" x2="357.2" y2="191.278"/><line x1="353.951" y1="188.029" x2="353.951" y2="194.527"/>
<line x1="356.41" y1="162.203" x2="362.908" y2="162.203"/><line x1="359.659" y1="158.955" x2="359.659" y2="165.452"/>
<line x1="362.119" y1="205.815" x2="368.617" y2="205.815"/><line x1="365.368" y1="202.566" x2="365.368" y2="209.064"/>
<line x1="367.827" y1="205.815" x2="374.325" y2="205.815"/><line x1="371.076" y1="202.566" x2="371.076" y2="209.064"/>
<line x1="373.536" y1="176.741" x2="380.033" y2="176.741"/><line x1="376.785" y1="173.492" x2="376.785" y2="179.989"/>
<line x1="379.244" y1="89.5179" x2="385.742" y2="89.5179"/><line x1="382.493" y1="86.2691" x2="382.493" y2="92.7668"/>
<line x1="384.952" y1="133.129" x2="391.45" y2="133.129"/><line x1="388.201" y1="129.88" x2="388.201" y2="136.378"/>
<line x1="390.661" y1="133.129" x2="397.159" y2="133.129"/><line x1="393.91" y1="129.88" x2="393.91" y2="136.378"/>
<line x1="396.369" y1="191.278" x2="402.867" y2="191.278"/><line x1="399.618" y1="188.029" x2="399.618" y2="194.527"/>
<line x1="402.078" y1="147.666" x2="408.575" y2="147.666"/><line x1="405.327" y1="144.417" x2="405.327" y2="150.915"/>
<line x1="407.786" y1="205.815" x2="414.284" y2="205.815"/><line x1="411.035" y1="202.566" x2="411.035" y2="209.064"/>
<line x1="413.494" y1="205.815" x2="419.992" y2="205.815"/><line x1="416.743" y1="202.566" x2="416.743" y2="209.064"/>
<line x1="419.203" y1="176.741" x2="425.701" y2="176.741"/><line x1="422.452" y1="173.492" x2="422.452" y2="179.989"/>
<line x1="424.911" y1="104.055" x2="431.409" y2="104.055"/><line x1="428.16" y1="100.806" x2="428.16" y2="107.304"/>
<line x1="430.62" y1="118.592" x2="437.117" y2="118.592"/><line x1="433.868" y1="115.343" x2="433.868" y2="121.841"/>
<line x1="436.328" y1="191.278" x2="442.826" y2="191.278"/><line x1="439.577" y1="188.029" x2="439.577" y2="194.527"/>
<line x1="442.036" y1="147.666" x2="448.534" y2="147.666"/><line x1="445.285" y1="144.417" x2="445.285" y2="150.915"/>
</g>
<path d="M68.5315,192.118l 399.587, -52.3827" fill="none" stroke="#ff0000" stroke-width="2"/>
<rect x="85.5394" y="57.3833" width="85.0394" height="38.2555" fill="white"/>
<path d="M85.5394,95.6388h 85.0394" fill="none" stroke="black" stroke-width="2"/>
<path d="M170.579,95.6388v -38.2555" fill="none" stroke="black" stroke-width="2"/>
<path d="M170.579,57.3833h -85.0394" fill="none" stroke="black" stroke-width="2"/>
<path d="M85.5394,57.3833v 38.2555" fill="none" stroke="black" stroke-width="2"/>
<text xml:space="preserve" x="106.089" y="70.6631" fill="black" font-size="11.3862" font-family="Helvetica">Data</text>
<g stroke="black" stroke-width="2" fill="none">
<line x1="92.9204" y1="66.9472" x2="99.4182" y2="66.9472"/><line x1="96.1693" y1="63.6983" x2="96.1693" y2="70.1961"/>
</g>
<text xml:space="preserve" x="106.089" y="90.1563" fill="black" font-size="11.3862" font-family="Helvetica">Fitted line</text>
<path d="M88.7283,86.075h 14.8819" fill="none" stroke="#ff0000" stroke-width="2"/></svg>
