<?xml version="1.0" encoding="utf-8" standalone="no"?>
<!DOCTYPE svg PUBLIC "-//W3C//DTD SVG 1.1//EN"
  "http://www.w3.org/Graphics/SVG/1.1/DTD/svg11.dtd">
<!-- Created with matplotlib (https://matplotlib.org/) -->
<svg height="343.44pt" version="1.1" viewBox="0 0 460.8 343.44" width="460.8pt" xmlns="http://www.w3.org/2000/svg" xmlns:xlink="http://www.w3.org/1999/xlink">
 <defs>
  <style type="text/css">
*{stroke-linecap:butt;stroke-linejoin:round;}
  </style>
 </defs>
 <g id="figure_1">
  <g id="patch_1">
   <path d="M 0 343.44 
L 460.8 343.44 
L 460.8 0 
L 0 0 
z
" style="fill:#ffffff;"/>
  </g>
  <g id="axes_1">
   <g id="patch_2">
    <path d="M 57.6 305.6616 
L 414.72 305.6616 
L 414.72 41.2128 
L 57.6 41.2128 
z
" style="fill:#ffffff;"/>
   </g>
   <g id="patch_3">
    <path clip-path="url(#p96360e2e07)" d="M 57.6 305.6616 
L 57.6 305.6616 
L 93.312 305.6616 
L 93.312 305.6616 
L 129.024 305.6616 
L 129.024 279.150442 
L 164.736 279.150442 
L 164.736 226.128126 
L 200.448 226.128126 
L 200.448 106.827916 
L 236.16 106.827916 
L 236.16 53.8056 
L 271.872 53.8056 
L 271.872 159.850232 
L 307.584 159.850232 
L 307.584 159.850232 
L 343.296 159.850232 
L 343.296 279.150442 
L 379.008 279.150442 
L 379.008 305.6616 
L 414.72 305.6616 
L 414.72 305.6616 
" style="fill:none;stroke:#000000;stroke-linejoin:miter;"/>
   </g>
   <g id="matplotlib.axis_1">
    <g id="xtick_1">
     <g id="line2d_1">
      <defs>
       <path d="M 0 0 
L 0 -7 
" id="md409c599d1" style="stroke:#000000;"/>
      </defs>
      <g>
       <use style="stroke:#000000;" x="93.312" xlink:href="#md409c599d1" y="305.6616"/>
      </g>
     </g>
     <g id="line2d_2">
      <defs>
       <path d="M 0 0 
L 0 7 
" id="m2da0c3851d" style="stroke:#000000;"/>
      </defs>
      <g>
       <use style="stroke:#000000;" x="93.312" xlink:href="#m2da0c3851d" y="41.2128"/>
      </g>
     </g>
     <g id="text_1">
      <!-- 36.25 -->
      <defs>
       <path d="M 37.203125 37.796875 
Q 54.78125 34.625 54.78125 19.96875 
Q 54.78125 11.1875 48.875 5.5625 
Q 42.328125 -0.484375 30.375 -0.484375 
Q 12.453125 -0.484375 4.5 13.765625 
L 11.8125 17.671875 
Q 17.328125 6.890625 30.28125 6.890625 
Q 37.890625 6.890625 42.09375 10.796875 
Q 46.09375 14.5 46.09375 20.171875 
Q 46.09375 26.859375 40.09375 30.90625 
Q 34.625 34.578125 25.6875 34.578125 
L 21.296875 34.578125 
L 21.296875 41.703125 
L 25.875 41.703125 
Q 34.859375 41.703125 39.59375 45.125 
Q 44.671875 48.734375 44.671875 54.828125 
Q 44.671875 61.46875 38.96875 64.65625 
Q 35.296875 66.84375 30.171875 66.84375 
Q 19.34375 66.84375 14.109375 55.90625 
L 6.78125 59.421875 
Q 14.015625 73.828125 30.28125 73.828125 
Q 40.578125 73.828125 46.96875 68.65625 
Q 53.375 63.578125 53.375 55.21875 
Q 53.375 47.3125 47.171875 42.28125 
Q 43.171875 39.0625 37.203125 38.1875 
z
" id="IPAexGothic-51"/>
       <path d="M 16.5 36.375 
Q 23.578125 46.578125 34.90625 46.578125 
Q 45.40625 46.578125 51.8125 39.265625 
Q 57.421875 32.90625 57.421875 23.78125 
Q 57.421875 13.8125 51.125 6.78125 
Q 44.578125 -0.484375 34.03125 -0.484375 
Q 21.484375 -0.484375 14.40625 9.078125 
Q 7.515625 18.40625 7.515625 34.8125 
Q 7.515625 53.515625 15.828125 64.203125 
Q 23.34375 73.828125 35.5 73.828125 
Q 49.859375 73.828125 56.390625 62.890625 
L 49.21875 58.984375 
Q 45.21875 66.65625 35.9375 66.65625 
Q 17.484375 66.65625 16.109375 36.375 
z
M 33.453125 39.796875 
Q 26.3125 39.796875 21.625 34.46875 
Q 17.4375 29.6875 17.4375 24.078125 
Q 17.4375 18.0625 21.140625 13.1875 
Q 26.125 6.6875 33.734375 6.6875 
Q 41.703125 6.6875 45.953125 13.1875 
Q 48.828125 17.625 48.828125 23.484375 
Q 48.828125 30.375 45.015625 34.8125 
Q 40.625 39.796875 33.453125 39.796875 
z
" id="IPAexGothic-54"/>
       <path d="M 18.5 0.984375 
L 7.71875 0.984375 
L 7.71875 11.765625 
L 18.5 11.765625 
z
" id="IPAexGothic-46"/>
       <path d="M 57.171875 0.984375 
L 6.984375 0.984375 
L 6.984375 9.28125 
Q 12.890625 23.046875 29.59375 34.421875 
L 32.375 36.28125 
Q 40.921875 42.140625 43.609375 45.40625 
Q 46.6875 49.265625 46.6875 53.8125 
Q 46.6875 58.9375 43.0625 62.546875 
Q 39.0625 66.546875 32.5625 66.546875 
Q 19.53125 66.546875 15.484375 52 
L 7.765625 54.78125 
Q 13.328125 73.828125 33.0625 73.828125 
Q 43.84375 73.828125 50.25 67.4375 
Q 55.859375 61.671875 55.859375 53.515625 
Q 55.859375 47.46875 52.25 42.53125 
Q 48.921875 37.75 36.96875 30.28125 
L 34.859375 29 
Q 19.625 19.578125 15.28125 8.890625 
L 57.171875 8.890625 
z
" id="IPAexGothic-50"/>
       <path d="M 18.40625 40.671875 
Q 25.53125 46.296875 33.9375 46.296875 
Q 44 46.296875 50.640625 39.5 
Q 56.84375 33.015625 56.84375 23.390625 
Q 56.84375 14.65625 51.515625 8.015625 
Q 44.828125 -0.484375 31.734375 -0.484375 
Q 14.984375 -0.484375 7.328125 12.25 
L 14.65625 16.0625 
Q 20.453125 6.78125 31.453125 6.78125 
Q 38.53125 6.78125 43.265625 11.1875 
Q 48.140625 15.828125 48.140625 23.484375 
Q 48.140625 30.71875 43.84375 35.015625 
Q 39.359375 39.5 32.125 39.5 
Q 21.96875 39.5 16.75 31.6875 
L 9.234375 32.671875 
L 13.8125 72.40625 
L 53.21875 72.40625 
L 53.21875 64.890625 
L 20.953125 64.890625 
L 17.71875 40.671875 
z
" id="IPAexGothic-53"/>
      </defs>
      <g transform="translate(76.610438 318.15035)scale(0.12 -0.12)">
       <use xlink:href="#IPAexGothic-51"/>
       <use x="62.988281" xlink:href="#IPAexGothic-54"/>
       <use x="125.976562" xlink:href="#IPAexGothic-46"/>
       <use x="152.392578" xlink:href="#IPAexGothic-50"/>
       <use x="215.380859" xlink:href="#IPAexGothic-53"/>
      </g>
     </g>
    </g>
    <g id="xtick_2">
     <g id="line2d_3">
      <g>
       <use style="stroke:#000000;" x="137.952" xlink:href="#md409c599d1" y="305.6616"/>
      </g>
     </g>
     <g id="line2d_4">
      <g>
       <use style="stroke:#000000;" x="137.952" xlink:href="#m2da0c3851d" y="41.2128"/>
      </g>
     </g>
     <g id="text_2">
      <!-- 36.50 -->
      <defs>
       <path d="M 31.84375 73.828125 
Q 45.015625 73.828125 52.09375 61.625 
Q 57.71875 51.953125 57.71875 36.625 
Q 57.71875 21.4375 52.09375 11.578125 
Q 45.125 -0.484375 31.5 -0.484375 
Q 17.921875 -0.484375 10.9375 11.578125 
Q 5.328125 21.4375 5.328125 36.71875 
Q 5.328125 58.015625 15.625 67.71875 
Q 22.171875 73.828125 31.84375 73.828125 
z
M 31.5 66.65625 
Q 23.6875 66.65625 19.1875 58.734375 
Q 14.59375 50.734375 14.59375 36.625 
Q 14.59375 22.75 19.09375 14.796875 
Q 23.640625 6.984375 31.5 6.984375 
Q 40.921875 6.984375 45.453125 18.015625 
Q 48.4375 25.34375 48.4375 37.109375 
Q 48.4375 50.875 43.84375 58.734375 
Q 39.203125 66.65625 31.5 66.65625 
z
" id="IPAexGothic-48"/>
      </defs>
      <g transform="translate(121.250438 318.15035)scale(0.12 -0.12)">
       <use xlink:href="#IPAexGothic-51"/>
       <use x="62.988281" xlink:href="#IPAexGothic-54"/>
       <use x="125.976562" xlink:href="#IPAexGothic-46"/>
       <use x="152.392578" xlink:href="#IPAexGothic-53"/>
       <use x="215.380859" xlink:href="#IPAexGothic-48"/>
      </g>
     </g>
    </g>
    <g id="xtick_3">
     <g id="line2d_5">
      <g>
       <use style="stroke:#000000;" x="182.592" xlink:href="#md409c599d1" y="305.6616"/>
      </g>
     </g>
     <g id="line2d_6">
      <g>
       <use style="stroke:#000000;" x="182.592" xlink:href="#m2da0c3851d" y="41.2128"/>
      </g>
     </g>
     <g id="text_3">
      <!-- 36.75 -->
      <defs>
       <path d="M 56.203125 66.609375 
Q 34.96875 32.90625 27.78125 0.984375 
L 17.671875 0.984375 
Q 24.703125 28.65625 46.09375 64.5 
L 6.6875 64.5 
L 6.6875 72.40625 
L 56.203125 72.40625 
z
" id="IPAexGothic-55"/>
      </defs>
      <g transform="translate(165.890438 318.15035)scale(0.12 -0.12)">
       <use xlink:href="#IPAexGothic-51"/>
       <use x="62.988281" xlink:href="#IPAexGothic-54"/>
       <use x="125.976562" xlink:href="#IPAexGothic-46"/>
       <use x="152.392578" xlink:href="#IPAexGothic-55"/>
       <use x="215.380859" xlink:href="#IPAexGothic-53"/>
      </g>
     </g>
    </g>
    <g id="xtick_4">
     <g id="line2d_7">
      <g>
       <use style="stroke:#000000;" x="227.232" xlink:href="#md409c599d1" y="305.6616"/>
      </g>
     </g>
     <g id="line2d_8">
      <g>
       <use style="stroke:#000000;" x="227.232" xlink:href="#m2da0c3851d" y="41.2128"/>
      </g>
     </g>
     <g id="text_4">
      <!-- 37.00 -->
      <g transform="translate(210.530438 318.15035)scale(0.12 -0.12)">
       <use xlink:href="#IPAexGothic-51"/>
       <use x="62.988281" xlink:href="#IPAexGothic-55"/>
       <use x="125.976562" xlink:href="#IPAexGothic-46"/>
       <use x="152.392578" xlink:href="#IPAexGothic-48"/>
       <use x="215.380859" xlink:href="#IPAexGothic-48"/>
      </g>
     </g>
    </g>
    <g id="xtick_5">
     <g id="line2d_9">
      <g>
       <use style="stroke:#000000;" x="271.872" xlink:href="#md409c599d1" y="305.6616"/>
      </g>
     </g>
     <g id="line2d_10">
      <g>
       <use style="stroke:#000000;" x="271.872" xlink:href="#m2da0c3851d" y="41.2128"/>
      </g>
     </g>
     <g id="text_5">
      <!-- 37.25 -->
      <g transform="translate(255.170438 318.15035)scale(0.12 -0.12)">
       <use xlink:href="#IPAexGothic-51"/>
       <use x="62.988281" xlink:href="#IPAexGothic-55"/>
       <use x="125.976562" xlink:href="#IPAexGothic-46"/>
       <use x="152.392578" xlink:href="#IPAexGothic-50"/>
       <use x="215.380859" xlink:href="#IPAexGothic-53"/>
      </g>
     </g>
    </g>
    <g id="xtick_6">
     <g id="line2d_11">
      <g>
       <use style="stroke:#000000;" x="316.512" xlink:href="#md409c599d1" y="305.6616"/>
      </g>
     </g>
     <g id="line2d_12">
      <g>
       <use style="stroke:#000000;" x="316.512" xlink:href="#m2da0c3851d" y="41.2128"/>
      </g>
     </g>
     <g id="text_6">
      <!-- 37.50 -->
      <g transform="translate(299.810438 318.15035)scale(0.12 -0.12)">
       <use xlink:href="#IPAexGothic-51"/>
       <use x="62.988281" xlink:href="#IPAexGothic-55"/>
       <use x="125.976562" xlink:href="#IPAexGothic-46"/>
       <use x="152.392578" xlink:href="#IPAexGothic-53"/>
       <use x="215.380859" xlink:href="#IPAexGothic-48"/>
      </g>
     </g>
    </g>
    <g id="xtick_7">
     <g id="line2d_13">
      <g>
       <use style="stroke:#000000;" x="361.152" xlink:href="#md409c599d1" y="305.6616"/>
      </g>
     </g>
     <g id="line2d_14">
      <g>
       <use style="stroke:#000000;" x="361.152" xlink:href="#m2da0c3851d" y="41.2128"/>
      </g>
     </g>
     <g id="text_7">
      <!-- 37.75 -->
      <g transform="translate(344.450438 318.15035)scale(0.12 -0.12)">
       <use xlink:href="#IPAexGothic-51"/>
       <use x="62.988281" xlink:href="#IPAexGothic-55"/>
       <use x="125.976562" xlink:href="#IPAexGothic-46"/>
       <use x="152.392578" xlink:href="#IPAexGothic-55"/>
       <use x="215.380859" xlink:href="#IPAexGothic-53"/>
      </g>
     </g>
    </g>
    <g id="xtick_8">
     <g id="line2d_15">
      <g>
       <use style="stroke:#000000;" x="405.792" xlink:href="#md409c599d1" y="305.6616"/>
      </g>
     </g>
     <g id="line2d_16">
      <g>
       <use style="stroke:#000000;" x="405.792" xlink:href="#m2da0c3851d" y="41.2128"/>
      </g>
     </g>
     <g id="text_8">
      <!-- 38.00 -->
      <defs>
       <path d="M 39.703125 37.890625 
Q 57.8125 31.734375 57.8125 18.703125 
Q 57.8125 8.453125 48.4375 3.078125 
Q 41.609375 -0.875 31.5 -0.875 
Q 21.34375 -0.875 14.5 3.078125 
Q 5.421875 8.296875 5.421875 18.40625 
Q 5.421875 31.0625 22.015625 37.203125 
L 22.015625 37.5 
Q 7.515625 42.71875 7.515625 54.828125 
Q 7.515625 64.0625 15.328125 69.625 
Q 21.96875 74.3125 31.546875 74.3125 
Q 42.234375 74.3125 48.921875 68.796875 
Q 55.515625 63.578125 55.515625 55.71875 
Q 55.515625 42.28125 39.703125 38.1875 
z
M 31.59375 41.015625 
Q 46.828125 44.625 46.828125 55.125 
Q 46.828125 61.1875 41.796875 64.84375 
Q 37.703125 67.921875 31.5 67.921875 
Q 25.09375 67.921875 20.796875 64.5 
Q 16.40625 60.890625 16.40625 55.03125 
Q 16.40625 49.21875 21.09375 45.703125 
Q 23.34375 43.890625 26.90625 42.53125 
Q 31 40.875 31.59375 41.015625 
z
M 30.90625 34.515625 
Q 14.40625 30.171875 14.40625 19 
Q 14.40625 12.109375 20.515625 8.6875 
Q 25.09375 6.109375 31.390625 6.109375 
Q 40.234375 6.109375 45.015625 10.890625 
Q 48.53125 14.40625 48.53125 19.53125 
Q 48.53125 24.90625 43.65625 28.90625 
Q 40.765625 31.15625 36.71875 32.8125 
Q 31.984375 34.71875 30.90625 34.515625 
z
" id="IPAexGothic-56"/>
      </defs>
      <g transform="translate(389.090438 318.15035)scale(0.12 -0.12)">
       <use xlink:href="#IPAexGothic-51"/>
       <use x="62.988281" xlink:href="#IPAexGothic-56"/>
       <use x="125.976562" xlink:href="#IPAexGothic-46"/>
       <use x="152.392578" xlink:href="#IPAexGothic-48"/>
       <use x="215.380859" xlink:href="#IPAexGothic-48"/>
      </g>
     </g>
    </g>
    <g id="xtick_9">
     <g id="line2d_17">
      <defs>
       <path d="M 0 0 
L 0 -4 
" id="maacea7e08e" style="stroke:#000000;stroke-width:0.6;"/>
      </defs>
      <g>
       <use style="stroke:#000000;stroke-width:0.6;" x="57.6" xlink:href="#maacea7e08e" y="305.6616"/>
      </g>
     </g>
     <g id="line2d_18">
      <defs>
       <path d="M 0 0 
L 0 4 
" id="m2c47a2ee30" style="stroke:#000000;stroke-width:0.6;"/>
      </defs>
      <g>
       <use style="stroke:#000000;stroke-width:0.6;" x="57.6" xlink:href="#m2c47a2ee30" y="41.2128"/>
      </g>
     </g>
    </g>
    <g id="xtick_10">
     <g id="line2d_19">
      <g>
       <use style="stroke:#000000;stroke-width:0.6;" x="66.528" xlink:href="#maacea7e08e" y="305.6616"/>
      </g>
     </g>
     <g id="line2d_20">
      <g>
       <use style="stroke:#000000;stroke-width:0.6;" x="66.528" xlink:href="#m2c47a2ee30" y="41.2128"/>
      </g>
     </g>
    </g>
    <g id="xtick_11">
     <g id="line2d_21">
      <g>
       <use style="stroke:#000000;stroke-width:0.6;" x="75.456" xlink:href="#maacea7e08e" y="305.6616"/>
      </g>
     </g>
     <g id="line2d_22">
      <g>
       <use style="stroke:#000000;stroke-width:0.6;" x="75.456" xlink:href="#m2c47a2ee30" y="41.2128"/>
      </g>
     </g>
    </g>
    <g id="xtick_12">
     <g id="line2d_23">
      <g>
       <use style="stroke:#000000;stroke-width:0.6;" x="84.384" xlink:href="#maacea7e08e" y="305.6616"/>
      </g>
     </g>
     <g id="line2d_24">
      <g>
       <use style="stroke:#000000;stroke-width:0.6;" x="84.384" xlink:href="#m2c47a2ee30" y="41.2128"/>
      </g>
     </g>
    </g>
    <g id="xtick_13">
     <g id="line2d_25">
      <g>
       <use style="stroke:#000000;stroke-width:0.6;" x="102.24" xlink:href="#maacea7e08e" y="305.6616"/>
      </g>
     </g>
     <g id="line2d_26">
      <g>
       <use style="stroke:#000000;stroke-width:0.6;" x="102.24" xlink:href="#m2c47a2ee30" y="41.2128"/>
      </g>
     </g>
    </g>
    <g id="xtick_14">
     <g id="line2d_27">
      <g>
       <use style="stroke:#000000;stroke-width:0.6;" x="111.168" xlink:href="#maacea7e08e" y="305.6616"/>
      </g>
     </g>
     <g id="line2d_28">
      <g>
       <use style="stroke:#000000;stroke-width:0.6;" x="111.168" xlink:href="#m2c47a2ee30" y="41.2128"/>
      </g>
     </g>
    </g>
    <g id="xtick_15">
     <g id="line2d_29">
      <g>
       <use style="stroke:#000000;stroke-width:0.6;" x="120.096" xlink:href="#maacea7e08e" y="305.6616"/>
      </g>
     </g>
     <g id="line2d_30">
      <g>
       <use style="stroke:#000000;stroke-width:0.6;" x="120.096" xlink:href="#m2c47a2ee30" y="41.2128"/>
      </g>
     </g>
    </g>
    <g id="xtick_16">
     <g id="line2d_31">
      <g>
       <use style="stroke:#000000;stroke-width:0.6;" x="129.024" xlink:href="#maacea7e08e" y="305.6616"/>
      </g>
     </g>
     <g id="line2d_32">
      <g>
       <use style="stroke:#000000;stroke-width:0.6;" x="129.024" xlink:href="#m2c47a2ee30" y="41.2128"/>
      </g>
     </g>
    </g>
    <g id="xtick_17">
     <g id="line2d_33">
      <g>
       <use style="stroke:#000000;stroke-width:0.6;" x="146.88" xlink:href="#maacea7e08e" y="305.6616"/>
      </g>
     </g>
     <g id="line2d_34">
      <g>
       <use style="stroke:#000000;stroke-width:0.6;" x="146.88" xlink:href="#m2c47a2ee30" y="41.2128"/>
      </g>
     </g>
    </g>
    <g id="xtick_18">
     <g id="line2d_35">
      <g>
       <use style="stroke:#000000;stroke-width:0.6;" x="155.808" xlink:href="#maacea7e08e" y="305.6616"/>
      </g>
     </g>
     <g id="line2d_36">
      <g>
       <use style="stroke:#000000;stroke-width:0.6;" x="155.808" xlink:href="#m2c47a2ee30" y="41.2128"/>
      </g>
     </g>
    </g>
    <g id="xtick_19">
     <g id="line2d_37">
      <g>
       <use style="stroke:#000000;stroke-width:0.6;" x="164.736" xlink:href="#maacea7e08e" y="305.6616"/>
      </g>
     </g>
     <g id="line2d_38">
      <g>
       <use style="stroke:#000000;stroke-width:0.6;" x="164.736" xlink:href="#m2c47a2ee30" y="41.2128"/>
      </g>
     </g>
    </g>
    <g id="xtick_20">
     <g id="line2d_39">
      <g>
       <use style="stroke:#000000;stroke-width:0.6;" x="173.664" xlink:href="#maacea7e08e" y="305.6616"/>
      </g>
     </g>
     <g id="line2d_40">
      <g>
       <use style="stroke:#000000;stroke-width:0.6;" x="173.664" xlink:href="#m2c47a2ee30" y="41.2128"/>
      </g>
     </g>
    </g>
    <g id="xtick_21">
     <g id="line2d_41">
      <g>
       <use style="stroke:#000000;stroke-width:0.6;" x="191.52" xlink:href="#maacea7e08e" y="305.6616"/>
      </g>
     </g>
     <g id="line2d_42">
      <g>
       <use style="stroke:#000000;stroke-width:0.6;" x="191.52" xlink:href="#m2c47a2ee30" y="41.2128"/>
      </g>
     </g>
    </g>
    <g id="xtick_22">
     <g id="line2d_43">
      <g>
       <use style="stroke:#000000;stroke-width:0.6;" x="200.448" xlink:href="#maacea7e08e" y="305.6616"/>
      </g>
     </g>
     <g id="line2d_44">
      <g>
       <use style="stroke:#000000;stroke-width:0.6;" x="200.448" xlink:href="#m2c47a2ee30" y="41.2128"/>
      </g>
     </g>
    </g>
    <g id="xtick_23">
     <g id="line2d_45">
      <g>
       <use style="stroke:#000000;stroke-width:0.6;" x="209.376" xlink:href="#maacea7e08e" y="305.6616"/>
      </g>
     </g>
     <g id="line2d_46">
      <g>
       <use style="stroke:#000000;stroke-width:0.6;" x="209.376" xlink:href="#m2c47a2ee30" y="41.2128"/>
      </g>
     </g>
    </g>
    <g id="xtick_24">
     <g id="line2d_47">
      <g>
       <use style="stroke:#000000;stroke-width:0.6;" x="218.304" xlink:href="#maacea7e08e" y="305.6616"/>
      </g>
     </g>
     <g id="line2d_48">
      <g>
       <use style="stroke:#000000;stroke-width:0.6;" x="218.304" xlink:href="#m2c47a2ee30" y="41.2128"/>
      </g>
     </g>
    </g>
    <g id="xtick_25">
     <g id="line2d_49">
      <g>
       <use style="stroke:#000000;stroke-width:0.6;" x="236.16" xlink:href="#maacea7e08e" y="305.6616"/>
      </g>
     </g>
     <g id="line2d_50">
      <g>
       <use style="stroke:#000000;stroke-width:0.6;" x="236.16" xlink:href="#m2c47a2ee30" y="41.2128"/>
      </g>
     </g>
    </g>
    <g id="xtick_26">
     <g id="line2d_51">
      <g>
       <use style="stroke:#000000;stroke-width:0.6;" x="245.088" xlink:href="#maacea7e08e" y="305.6616"/>
      </g>
     </g>
     <g id="line2d_52">
      <g>
       <use style="stroke:#000000;stroke-width:0.6;" x="245.088" xlink:href="#m2c47a2ee30" y="41.2128"/>
      </g>
     </g>
    </g>
    <g id="xtick_27">
     <g id="line2d_53">
      <g>
       <use style="stroke:#000000;stroke-width:0.6;" x="254.016" xlink:href="#maacea7e08e" y="305.6616"/>
      </g>
     </g>
     <g id="line2d_54">
      <g>
       <use style="stroke:#000000;stroke-width:0.6;" x="254.016" xlink:href="#m2c47a2ee30" y="41.2128"/>
      </g>
     </g>
    </g>
    <g id="xtick_28">
     <g id="line2d_55">
      <g>
       <use style="stroke:#000000;stroke-width:0.6;" x="262.944" xlink:href="#maacea7e08e" y="305.6616"/>
      </g>
     </g>
     <g id="line2d_56">
      <g>
       <use style="stroke:#000000;stroke-width:0.6;" x="262.944" xlink:href="#m2c47a2ee30" y="41.2128"/>
      </g>
     </g>
    </g>
    <g id="xtick_29">
     <g id="line2d_57">
      <g>
       <use style="stroke:#000000;stroke-width:0.6;" x="280.8" xlink:href="#maacea7e08e" y="305.6616"/>
      </g>
     </g>
     <g id="line2d_58">
      <g>
       <use style="stroke:#000000;stroke-width:0.6;" x="280.8" xlink:href="#m2c47a2ee30" y="41.2128"/>
      </g>
     </g>
    </g>
    <g id="xtick_30">
     <g id="line2d_59">
      <g>
       <use style="stroke:#000000;stroke-width:0.6;" x="289.728" xlink:href="#maacea7e08e" y="305.6616"/>
      </g>
     </g>
     <g id="line2d_60">
      <g>
       <use style="stroke:#000000;stroke-width:0.6;" x="289.728" xlink:href="#m2c47a2ee30" y="41.2128"/>
      </g>
     </g>
    </g>
    <g id="xtick_31">
     <g id="line2d_61">
      <g>
       <use style="stroke:#000000;stroke-width:0.6;" x="298.656" xlink:href="#maacea7e08e" y="305.6616"/>
      </g>
     </g>
     <g id="line2d_62">
      <g>
       <use style="stroke:#000000;stroke-width:0.6;" x="298.656" xlink:href="#m2c47a2ee30" y="41.2128"/>
      </g>
     </g>
    </g>
    <g id="xtick_32">
     <g id="line2d_63">
      <g>
       <use style="stroke:#000000;stroke-width:0.6;" x="307.584" xlink:href="#maacea7e08e" y="305.6616"/>
      </g>
     </g>
     <g id="line2d_64">
      <g>
       <use style="stroke:#000000;stroke-width:0.6;" x="307.584" xlink:href="#m2c47a2ee30" y="41.2128"/>
      </g>
     </g>
    </g>
    <g id="xtick_33">
     <g id="line2d_65">
      <g>
       <use style="stroke:#000000;stroke-width:0.6;" x="325.44" xlink:href="#maacea7e08e" y="305.6616"/>
      </g>
     </g>
     <g id="line2d_66">
      <g>
       <use style="stroke:#000000;stroke-width:0.6;" x="325.44" xlink:href="#m2c47a2ee30" y="41.2128"/>
      </g>
     </g>
    </g>
    <g id="xtick_34">
     <g id="line2d_67">
      <g>
       <use style="stroke:#000000;stroke-width:0.6;" x="334.368" xlink:href="#maacea7e08e" y="305.6616"/>
      </g>
     </g>
     <g id="line2d_68">
      <g>
       <use style="stroke:#000000;stroke-width:0.6;" x="334.368" xlink:href="#m2c47a2ee30" y="41.2128"/>
      </g>
     </g>
    </g>
    <g id="xtick_35">
     <g id="line2d_69">
      <g>
       <use style="stroke:#000000;stroke-width:0.6;" x="343.296" xlink:href="#maacea7e08e" y="305.6616"/>
      </g>
     </g>
     <g id="line2d_70">
      <g>
       <use style="stroke:#000000;stroke-width:0.6;" x="343.296" xlink:href="#m2c47a2ee30" y="41.2128"/>
      </g>
     </g>
    </g>
    <g id="xtick_36">
     <g id="line2d_71">
      <g>
       <use style="stroke:#000000;stroke-width:0.6;" x="352.224" xlink:href="#maacea7e08e" y="305.6616"/>
      </g>
     </g>
     <g id="line2d_72">
      <g>
       <use style="stroke:#000000;stroke-width:0.6;" x="352.224" xlink:href="#m2c47a2ee30" y="41.2128"/>
      </g>
     </g>
    </g>
    <g id="xtick_37">
     <g id="line2d_73">
      <g>
       <use style="stroke:#000000;stroke-width:0.6;" x="370.08" xlink:href="#maacea7e08e" y="305.6616"/>
      </g>
     </g>
     <g id="line2d_74">
      <g>
       <use style="stroke:#000000;stroke-width:0.6;" x="370.08" xlink:href="#m2c47a2ee30" y="41.2128"/>
      </g>
     </g>
    </g>
    <g id="xtick_38">
     <g id="line2d_75">
      <g>
       <use style="stroke:#000000;stroke-width:0.6;" x="379.008" xlink:href="#maacea7e08e" y="305.6616"/>
      </g>
     </g>
     <g id="line2d_76">
      <g>
       <use style="stroke:#000000;stroke-width:0.6;" x="379.008" xlink:href="#m2c47a2ee30" y="41.2128"/>
      </g>
     </g>
    </g>
    <g id="xtick_39">
     <g id="line2d_77">
      <g>
       <use style="stroke:#000000;stroke-width:0.6;" x="387.936" xlink:href="#maacea7e08e" y="305.6616"/>
      </g>
     </g>
     <g id="line2d_78">
      <g>
       <use style="stroke:#000000;stroke-width:0.6;" x="387.936" xlink:href="#m2c47a2ee30" y="41.2128"/>
      </g>
     </g>
    </g>
    <g id="xtick_40">
     <g id="line2d_79">
      <g>
       <use style="stroke:#000000;stroke-width:0.6;" x="396.864" xlink:href="#maacea7e08e" y="305.6616"/>
      </g>
     </g>
     <g id="line2d_80">
      <g>
       <use style="stroke:#000000;stroke-width:0.6;" x="396.864" xlink:href="#m2c47a2ee30" y="41.2128"/>
      </g>
     </g>
    </g>
    <g id="xtick_41">
     <g id="line2d_81">
      <g>
       <use style="stroke:#000000;stroke-width:0.6;" x="414.72" xlink:href="#maacea7e08e" y="305.6616"/>
      </g>
     </g>
     <g id="line2d_82">
      <g>
       <use style="stroke:#000000;stroke-width:0.6;" x="414.72" xlink:href="#m2c47a2ee30" y="41.2128"/>
      </g>
     </g>
    </g>
    <g id="text_9">
     <!-- Body temperature[$^\circ$C] -->
     <defs>
      <path d="M 42 37.890625 
Q 59.625 34.765625 59.625 20.90625 
Q 59.625 8.6875 47.515625 3.46875 
Q 41.75 0.984375 32.71875 0.984375 
L 9.515625 0.984375 
L 9.515625 72.40625 
L 29.9375 72.40625 
Q 38.96875 72.40625 44.828125 70.3125 
Q 56.9375 65.96875 56.9375 54.546875 
Q 56.9375 40.765625 42 38.234375 
z
M 18.109375 41.5 
L 28.8125 41.5 
Q 47.859375 41.5 47.859375 53.609375 
Q 47.859375 65.328125 29.390625 65.328125 
L 18.109375 65.328125 
z
M 18.109375 8.15625 
L 31.5 8.15625 
Q 50.34375 8.15625 50.34375 21.390625 
Q 50.34375 29.640625 41.015625 32.8125 
Q 35.59375 34.71875 29.296875 34.71875 
L 18.109375 34.71875 
z
" id="IPAexGothic-66"/>
      <path d="M 29.984375 52.203125 
Q 40.53125 52.203125 47.75 45.125 
Q 55.171875 37.703125 55.171875 25.59375 
Q 55.171875 13.875 47.90625 6.59375 
Q 40.765625 -0.484375 29.984375 -0.484375 
Q 19.1875 -0.484375 12.203125 6.5 
Q 4.890625 13.765625 4.890625 25.875 
Q 4.890625 37.703125 12.3125 45.125 
Q 19.390625 52.203125 29.984375 52.203125 
z
M 29.984375 45.609375 
Q 23.734375 45.609375 19.390625 41.109375 
Q 13.875 35.59375 13.875 25.78125 
Q 13.875 16.109375 19.28125 10.6875 
Q 23.6875 6.296875 29.984375 6.296875 
Q 36.421875 6.296875 40.765625 10.796875 
Q 46.1875 16.21875 46.1875 26.125 
Q 46.1875 35.453125 40.671875 41.109375 
Q 36.1875 45.609375 29.984375 45.609375 
z
" id="IPAexGothic-111"/>
      <path d="M 52.984375 0.984375 
L 45.171875 0.984375 
L 45.171875 9.671875 
Q 38.140625 -0.484375 27.390625 -0.484375 
Q 18.453125 -0.484375 12.3125 5.8125 
Q 4.890625 13.1875 4.890625 25.984375 
Q 4.890625 38.53125 12.0625 45.90625 
Q 18.265625 52.203125 27.390625 52.203125 
Q 37.25 52.203125 44.484375 43.890625 
L 44.484375 74.90625 
L 52.984375 74.90625 
z
M 44.484375 20.359375 
L 44.484375 32.765625 
Q 44.484375 37.703125 38.375 42.28125 
Q 34.078125 45.40625 28.953125 45.40625 
Q 23.1875 45.40625 19.1875 41.40625 
Q 13.875 36.078125 13.875 26.21875 
Q 13.875 17.328125 18.265625 11.71875 
Q 22.515625 6.390625 28.859375 6.390625 
Q 36.28125 6.390625 41.5 13.671875 
Q 44.484375 17.71875 44.484375 20.359375 
z
" id="IPAexGothic-100"/>
      <path d="M 48.78125 50.78125 
L 24.609375 -7.625 
Q 19.96875 -18.796875 8.59375 -18.796875 
L 7.46875 -18.796875 
L 5.375 -10.984375 
L 6.984375 -10.984375 
Q 15.140625 -10.984375 17.96875 -3.71875 
L 21.1875 4.296875 
L 0.59375 50.78125 
L 10.296875 50.78125 
L 21.296875 22.796875 
Q 23.875 16.015625 25.09375 12.203125 
L 25.390625 12.203125 
Q 27.34375 18.265625 29.109375 22.796875 
L 39.5 50.78125 
z
" id="IPAexGothic-121"/>
      <path id="IPAexGothic-32"/>
      <path d="M 33.203125 3.765625 
Q 27.640625 -0.09375 21.828125 -0.09375 
Q 10.203125 -0.09375 10.203125 12.984375 
L 10.203125 44.671875 
L 3.421875 44.671875 
L 3.421875 50.78125 
L 10.203125 50.78125 
L 10.203125 61.96875 
L 18.40625 66.0625 
L 18.40625 50.78125 
L 32.234375 50.78125 
L 32.234375 44.671875 
L 18.40625 44.671875 
L 18.40625 14.15625 
Q 18.40625 6.5 23.640625 6.5 
Q 27.15625 6.5 30.328125 9.1875 
z
" id="IPAexGothic-116"/>
      <path d="M 13.484375 24.90625 
Q 13.921875 16.265625 18.890625 11.28125 
Q 23.96875 6.203125 31.203125 6.203125 
Q 40.71875 6.203125 46.296875 15.09375 
L 51.90625 11.375 
Q 44.828125 -0.484375 30.171875 -0.484375 
Q 19.09375 -0.484375 11.96875 6.59375 
Q 4.78125 13.8125 4.78125 25.640625 
Q 4.78125 38.1875 12.3125 45.703125 
Q 19 52.390625 29 52.390625 
Q 38.421875 52.390625 44.78125 46.1875 
Q 51.90625 38.96875 51.90625 26.90625 
L 51.90625 24.90625 
z
M 43.0625 31.203125 
Q 42.328125 37.984375 38.28125 41.890625 
Q 34.28125 45.90625 28.8125 45.90625 
Q 22.46875 45.90625 17.96875 40.484375 
Q 14.890625 36.8125 13.96875 31.203125 
z
" id="IPAexGothic-101"/>
      <path d="M 78.46875 0.984375 
L 69.875 0.984375 
L 69.875 32.171875 
Q 69.875 44.828125 60.109375 44.828125 
Q 55.46875 44.828125 51.609375 40.53125 
Q 48.875 37.453125 47.796875 32.859375 
L 47.796875 0.984375 
L 39.203125 0.984375 
L 39.203125 32.28125 
Q 39.203125 44.828125 29.984375 44.828125 
Q 25.09375 44.828125 21.390625 40.53125 
Q 17.390625 36.03125 17.390625 31.890625 
L 17.390625 0.984375 
L 8.796875 0.984375 
L 8.796875 50.78125 
L 16.796875 50.78125 
L 16.796875 42.1875 
Q 21.734375 51.8125 31.6875 51.8125 
Q 42.578125 51.8125 46.1875 41.359375 
Q 51.609375 51.8125 61.765625 51.8125 
Q 69.96875 51.8125 74.5625 46 
Q 78.46875 41.21875 78.46875 32.375 
z
" id="IPAexGothic-109"/>
      <path d="M 16.796875 42 
Q 23.828125 52.203125 34.46875 52.203125 
Q 43.265625 52.203125 49.5625 45.90625 
Q 56.890625 38.578125 56.890625 25.6875 
Q 56.890625 13.140625 49.65625 5.8125 
Q 43.359375 -0.484375 34.375 -0.484375 
Q 24.515625 -0.484375 17.28125 7.765625 
L 17.28125 -19 
L 8.796875 -19 
L 8.796875 50.78125 
L 16.796875 50.78125 
z
M 17.28125 30.46875 
L 17.28125 20.171875 
Q 17.28125 14.015625 23.6875 9.375 
Q 27.984375 6.296875 32.90625 6.296875 
Q 38.578125 6.296875 42.578125 10.296875 
Q 47.90625 15.578125 47.90625 25.484375 
Q 47.90625 34.375 43.5 39.984375 
Q 39.109375 45.3125 32.8125 45.3125 
Q 25.875 45.3125 20.90625 38.8125 
Q 17.28125 34.125 17.28125 30.46875 
z
" id="IPAexGothic-112"/>
      <path d="M 36.078125 51.8125 
L 34.578125 43.265625 
Q 32.90625 43.609375 31.59375 43.609375 
Q 25.828125 43.609375 22.078125 38.1875 
Q 17.390625 31.34375 17.390625 26.171875 
L 17.390625 0.984375 
L 8.796875 0.984375 
L 8.796875 50.78125 
L 16.890625 50.78125 
L 16.5 35.984375 
L 16.703125 35.984375 
Q 22.21875 52.203125 32.765625 52.203125 
Q 34.46875 52.203125 36.078125 51.8125 
z
" id="IPAexGothic-114"/>
      <path d="M 49.3125 0.984375 
L 41.75 0.984375 
Q 39.984375 4.734375 39.546875 8.6875 
L 39.203125 8.6875 
Q 33.546875 -0.390625 22.3125 -0.390625 
Q 14.59375 -0.390625 9.71875 4.5 
Q 5.421875 8.796875 5.421875 14.984375 
Q 5.421875 30.421875 32.03125 31.203125 
L 38.71875 31.390625 
L 38.71875 33.984375 
Q 38.71875 39.203125 35.75 42.1875 
Q 32.625 45.3125 27.734375 45.3125 
Q 19.34375 45.3125 15.140625 37.15625 
L 7.71875 40.578125 
Q 14.65625 52 27.9375 52 
Q 37.109375 52 42.046875 46.875 
Q 46.625 42.28125 46.625 33.890625 
L 46.625 15.578125 
Q 46.625 6.25 49.3125 0.984375 
z
M 38.921875 25.390625 
L 33.453125 25.296875 
Q 14.109375 24.859375 14.109375 14.890625 
Q 14.109375 11.375 16.40625 9.078125 
Q 19.234375 6.296875 23.828125 6.296875 
Q 30.21875 6.296875 34.90625 10.984375 
Q 38.921875 15.140625 38.921875 21 
z
" id="IPAexGothic-97"/>
      <path d="M 51.3125 0.984375 
L 43.3125 0.984375 
L 43.3125 10.0625 
Q 35.9375 0 25.390625 0 
Q 16.75 0 11.921875 5.859375 
Q 8.109375 10.59375 8.109375 19.390625 
L 8.109375 50.78125 
L 16.703125 50.78125 
L 16.703125 19.671875 
Q 16.703125 7.28125 27.09375 7.28125 
Q 37.59375 7.28125 42.71875 20.171875 
L 42.71875 50.78125 
L 51.3125 50.78125 
z
" id="IPAexGothic-117"/>
      <path d="M 26.65625 -15.484375 
L 9.078125 -15.484375 
L 9.078125 74.21875 
L 26.65625 74.21875 
L 26.65625 69.34375 
L 16.0625 69.34375 
L 16.0625 -10.59375 
L 26.65625 -10.59375 
z
" id="IPAexGothic-91"/>
      <path d="M 31.296875 40.671875 
Q 27.390625 40.671875 24.703125 37.953125 
Q 22.015625 35.25 22.015625 31.34375 
Q 22.015625 27.484375 24.703125 24.828125 
Q 27.390625 22.171875 31.296875 22.171875 
Q 35.203125 22.171875 37.890625 24.828125 
Q 40.578125 27.484375 40.578125 31.34375 
Q 40.578125 35.203125 37.859375 37.9375 
Q 35.15625 40.671875 31.296875 40.671875 
z
M 31.296875 46.96875 
Q 34.421875 46.96875 37.296875 45.765625 
Q 40.1875 44.578125 42.28125 42.328125 
Q 44.53125 40.140625 45.65625 37.34375 
Q 46.78125 34.5625 46.78125 31.34375 
Q 46.78125 24.90625 42.265625 20.4375 
Q 37.75 15.96875 31.203125 15.96875 
Q 24.609375 15.96875 20.21875 20.359375 
Q 15.828125 24.75 15.828125 31.34375 
Q 15.828125 37.890625 20.3125 42.421875 
Q 24.8125 46.96875 31.296875 46.96875 
z
" id="DejaVuSans-8728"/>
      <path d="M 68.015625 17 
Q 65.328125 10.84375 60.296875 6.6875 
Q 51.765625 -0.484375 39.984375 -0.484375 
Q 24.8125 -0.484375 14.984375 10.203125 
Q 5.90625 20.21875 5.90625 36.421875 
Q 5.90625 53.21875 15.828125 63.71875 
Q 25.296875 73.828125 39.59375 73.828125 
Q 59.578125 73.828125 67.53125 56.6875 
L 59.515625 52.984375 
Q 53.515625 66.21875 39.703125 66.21875 
Q 29.546875 66.21875 22.703125 58.5 
Q 15.53125 50.25 15.53125 36.28125 
Q 15.53125 24.21875 21.625 16.5 
Q 28.765625 7.375 40.046875 7.375 
Q 54 7.375 60.59375 20.609375 
z
" id="IPAexGothic-67"/>
      <path d="M 20.65625 -15.484375 
L 3.078125 -15.484375 
L 3.078125 -10.59375 
L 13.671875 -10.59375 
L 13.671875 69.34375 
L 3.078125 69.34375 
L 3.078125 74.21875 
L 20.65625 74.21875 
z
" id="IPAexGothic-93"/>
     </defs>
     <g transform="translate(173.1 333.43035)scale(0.12 -0.12)">
      <use transform="translate(0 0.09375)" xlink:href="#IPAexGothic-66"/>
      <use transform="translate(65.917969 0.09375)" xlink:href="#IPAexGothic-111"/>
      <use transform="translate(126.318359 0.09375)" xlink:href="#IPAexGothic-100"/>
      <use transform="translate(188.720703 0.09375)" xlink:href="#IPAexGothic-121"/>
      <use transform="translate(237.939453 0.09375)" xlink:href="#IPAexGothic-32"/>
      <use transform="translate(264.941406 0.09375)" xlink:href="#IPAexGothic-116"/>
      <use transform="translate(299.560547 0.09375)" xlink:href="#IPAexGothic-101"/>
      <use transform="translate(356.445312 0.09375)" xlink:href="#IPAexGothic-109"/>
      <use transform="translate(443.554688 0.09375)" xlink:href="#IPAexGothic-112"/>
      <use transform="translate(505.664062 0.09375)" xlink:href="#IPAexGothic-101"/>
      <use transform="translate(562.548828 0.09375)" xlink:href="#IPAexGothic-114"/>
      <use transform="translate(599.560547 0.09375)" xlink:href="#IPAexGothic-97"/>
      <use transform="translate(654.541016 0.09375)" xlink:href="#IPAexGothic-116"/>
      <use transform="translate(689.160156 0.09375)" xlink:href="#IPAexGothic-117"/>
      <use transform="translate(749.560547 0.09375)" xlink:href="#IPAexGothic-114"/>
      <use transform="translate(786.572266 0.09375)" xlink:href="#IPAexGothic-101"/>
      <use transform="translate(843.457031 0.09375)" xlink:href="#IPAexGothic-91"/>
      <use transform="translate(888.032227 38.375)scale(0.7)" xlink:href="#DejaVuSans-8728"/>
      <use transform="translate(948.222656 0.09375)" xlink:href="#IPAexGothic-67"/>
      <use transform="translate(1020.732422 0.09375)" xlink:href="#IPAexGothic-93"/>
     </g>
    </g>
   </g>
   <g id="matplotlib.axis_2">
    <g id="ytick_1">
     <g id="line2d_83">
      <defs>
       <path d="M 0 0 
L 7 0 
" id="md7c3974146" style="stroke:#000000;"/>
      </defs>
      <g>
       <use style="stroke:#000000;" x="57.6" xlink:href="#md7c3974146" y="305.6616"/>
      </g>
     </g>
     <g id="line2d_84">
      <defs>
       <path d="M 0 0 
L -7 0 
" id="m9d1248890d" style="stroke:#000000;"/>
      </defs>
      <g>
       <use style="stroke:#000000;" x="414.72" xlink:href="#m9d1248890d" y="305.6616"/>
      </g>
     </g>
     <g id="text_10">
      <!-- 0.0 -->
      <g transform="translate(35.813125 310.155975)scale(0.12 -0.12)">
       <use xlink:href="#IPAexGothic-48"/>
       <use x="62.988281" xlink:href="#IPAexGothic-46"/>
       <use x="89.404297" xlink:href="#IPAexGothic-48"/>
      </g>
     </g>
    </g>
    <g id="ytick_2">
     <g id="line2d_85">
      <g>
       <use style="stroke:#000000;" x="57.6" xlink:href="#md7c3974146" y="272.522653"/>
      </g>
     </g>
     <g id="line2d_86">
      <g>
       <use style="stroke:#000000;" x="414.72" xlink:href="#m9d1248890d" y="272.522653"/>
      </g>
     </g>
     <g id="text_11">
      <!-- 2.5 -->
      <g transform="translate(35.813125 277.017028)scale(0.12 -0.12)">
       <use xlink:href="#IPAexGothic-50"/>
       <use x="62.988281" xlink:href="#IPAexGothic-46"/>
       <use x="89.404297" xlink:href="#IPAexGothic-53"/>
      </g>
     </g>
    </g>
    <g id="ytick_3">
     <g id="line2d_87">
      <g>
       <use style="stroke:#000000;" x="57.6" xlink:href="#md7c3974146" y="239.383705"/>
      </g>
     </g>
     <g id="line2d_88">
      <g>
       <use style="stroke:#000000;" x="414.72" xlink:href="#m9d1248890d" y="239.383705"/>
      </g>
     </g>
     <g id="text_12">
      <!-- 5.0 -->
      <g transform="translate(35.813125 243.87808)scale(0.12 -0.12)">
       <use xlink:href="#IPAexGothic-53"/>
       <use x="62.988281" xlink:href="#IPAexGothic-46"/>
       <use x="89.404297" xlink:href="#IPAexGothic-48"/>
      </g>
     </g>
    </g>
    <g id="ytick_4">
     <g id="line2d_89">
      <g>
       <use style="stroke:#000000;" x="57.6" xlink:href="#md7c3974146" y="206.244758"/>
      </g>
     </g>
     <g id="line2d_90">
      <g>
       <use style="stroke:#000000;" x="414.72" xlink:href="#m9d1248890d" y="206.244758"/>
      </g>
     </g>
     <g id="text_13">
      <!-- 7.5 -->
      <g transform="translate(35.813125 210.739133)scale(0.12 -0.12)">
       <use xlink:href="#IPAexGothic-55"/>
       <use x="62.988281" xlink:href="#IPAexGothic-46"/>
       <use x="89.404297" xlink:href="#IPAexGothic-53"/>
      </g>
     </g>
    </g>
    <g id="ytick_5">
     <g id="line2d_91">
      <g>
       <use style="stroke:#000000;" x="57.6" xlink:href="#md7c3974146" y="173.105811"/>
      </g>
     </g>
     <g id="line2d_92">
      <g>
       <use style="stroke:#000000;" x="414.72" xlink:href="#m9d1248890d" y="173.105811"/>
      </g>
     </g>
     <g id="text_14">
      <!-- 10.0 -->
      <defs>
       <path d="M 38.484375 0.984375 
L 29.6875 0.984375 
L 29.6875 64.109375 
Q 21.4375 61.28125 12.3125 59.328125 
L 10.6875 66.109375 
Q 23.734375 69.390625 32.90625 73.921875 
L 38.484375 73.921875 
z
" id="IPAexGothic-49"/>
      </defs>
      <g transform="translate(28.255 177.600186)scale(0.12 -0.12)">
       <use xlink:href="#IPAexGothic-49"/>
       <use x="62.988281" xlink:href="#IPAexGothic-48"/>
       <use x="125.976562" xlink:href="#IPAexGothic-46"/>
       <use x="152.392578" xlink:href="#IPAexGothic-48"/>
      </g>
     </g>
    </g>
    <g id="ytick_6">
     <g id="line2d_93">
      <g>
       <use style="stroke:#000000;" x="57.6" xlink:href="#md7c3974146" y="139.966863"/>
      </g>
     </g>
     <g id="line2d_94">
      <g>
       <use style="stroke:#000000;" x="414.72" xlink:href="#m9d1248890d" y="139.966863"/>
      </g>
     </g>
     <g id="text_15">
      <!-- 12.5 -->
      <g transform="translate(28.255 144.461238)scale(0.12 -0.12)">
       <use xlink:href="#IPAexGothic-49"/>
       <use x="62.988281" xlink:href="#IPAexGothic-50"/>
       <use x="125.976562" xlink:href="#IPAexGothic-46"/>
       <use x="152.392578" xlink:href="#IPAexGothic-53"/>
      </g>
     </g>
    </g>
    <g id="ytick_7">
     <g id="line2d_95">
      <g>
       <use style="stroke:#000000;" x="57.6" xlink:href="#md7c3974146" y="106.827916"/>
      </g>
     </g>
     <g id="line2d_96">
      <g>
       <use style="stroke:#000000;" x="414.72" xlink:href="#m9d1248890d" y="106.827916"/>
      </g>
     </g>
     <g id="text_16">
      <!-- 15.0 -->
      <g transform="translate(28.255 111.322291)scale(0.12 -0.12)">
       <use xlink:href="#IPAexGothic-49"/>
       <use x="62.988281" xlink:href="#IPAexGothic-53"/>
       <use x="125.976562" xlink:href="#IPAexGothic-46"/>
       <use x="152.392578" xlink:href="#IPAexGothic-48"/>
      </g>
     </g>
    </g>
    <g id="ytick_8">
     <g id="line2d_97">
      <g>
       <use style="stroke:#000000;" x="57.6" xlink:href="#md7c3974146" y="73.688968"/>
      </g>
     </g>
     <g id="line2d_98">
      <g>
       <use style="stroke:#000000;" x="414.72" xlink:href="#m9d1248890d" y="73.688968"/>
      </g>
     </g>
     <g id="text_17">
      <!-- 17.5 -->
      <g transform="translate(28.255 78.183343)scale(0.12 -0.12)">
       <use xlink:href="#IPAexGothic-49"/>
       <use x="62.988281" xlink:href="#IPAexGothic-55"/>
       <use x="125.976562" xlink:href="#IPAexGothic-46"/>
       <use x="152.392578" xlink:href="#IPAexGothic-53"/>
      </g>
     </g>
    </g>
    <g id="ytick_9">
     <g id="line2d_99">
      <defs>
       <path d="M 0 0 
L 4 0 
" id="m8059e30aed" style="stroke:#000000;stroke-width:0.6;"/>
      </defs>
      <g>
       <use style="stroke:#000000;stroke-width:0.6;" x="57.6" xlink:href="#m8059e30aed" y="299.033811"/>
      </g>
     </g>
     <g id="line2d_100">
      <defs>
       <path d="M 0 0 
L -4 0 
" id="m103157d5da" style="stroke:#000000;stroke-width:0.6;"/>
      </defs>
      <g>
       <use style="stroke:#000000;stroke-width:0.6;" x="414.72" xlink:href="#m103157d5da" y="299.033811"/>
      </g>
     </g>
    </g>
    <g id="ytick_10">
     <g id="line2d_101">
      <g>
       <use style="stroke:#000000;stroke-width:0.6;" x="57.6" xlink:href="#m8059e30aed" y="292.406021"/>
      </g>
     </g>
     <g id="line2d_102">
      <g>
       <use style="stroke:#000000;stroke-width:0.6;" x="414.72" xlink:href="#m103157d5da" y="292.406021"/>
      </g>
     </g>
    </g>
    <g id="ytick_11">
     <g id="line2d_103">
      <g>
       <use style="stroke:#000000;stroke-width:0.6;" x="57.6" xlink:href="#m8059e30aed" y="285.778232"/>
      </g>
     </g>
     <g id="line2d_104">
      <g>
       <use style="stroke:#000000;stroke-width:0.6;" x="414.72" xlink:href="#m103157d5da" y="285.778232"/>
      </g>
     </g>
    </g>
    <g id="ytick_12">
     <g id="line2d_105">
      <g>
       <use style="stroke:#000000;stroke-width:0.6;" x="57.6" xlink:href="#m8059e30aed" y="279.150442"/>
      </g>
     </g>
     <g id="line2d_106">
      <g>
       <use style="stroke:#000000;stroke-width:0.6;" x="414.72" xlink:href="#m103157d5da" y="279.150442"/>
      </g>
     </g>
    </g>
    <g id="ytick_13">
     <g id="line2d_107">
      <g>
       <use style="stroke:#000000;stroke-width:0.6;" x="57.6" xlink:href="#m8059e30aed" y="265.894863"/>
      </g>
     </g>
     <g id="line2d_108">
      <g>
       <use style="stroke:#000000;stroke-width:0.6;" x="414.72" xlink:href="#m103157d5da" y="265.894863"/>
      </g>
     </g>
    </g>
    <g id="ytick_14">
     <g id="line2d_109">
      <g>
       <use style="stroke:#000000;stroke-width:0.6;" x="57.6" xlink:href="#m8059e30aed" y="259.267074"/>
      </g>
     </g>
     <g id="line2d_110">
      <g>
       <use style="stroke:#000000;stroke-width:0.6;" x="414.72" xlink:href="#m103157d5da" y="259.267074"/>
      </g>
     </g>
    </g>
    <g id="ytick_15">
     <g id="line2d_111">
      <g>
       <use style="stroke:#000000;stroke-width:0.6;" x="57.6" xlink:href="#m8059e30aed" y="252.639284"/>
      </g>
     </g>
     <g id="line2d_112">
      <g>
       <use style="stroke:#000000;stroke-width:0.6;" x="414.72" xlink:href="#m103157d5da" y="252.639284"/>
      </g>
     </g>
    </g>
    <g id="ytick_16">
     <g id="line2d_113">
      <g>
       <use style="stroke:#000000;stroke-width:0.6;" x="57.6" xlink:href="#m8059e30aed" y="246.011495"/>
      </g>
     </g>
     <g id="line2d_114">
      <g>
       <use style="stroke:#000000;stroke-width:0.6;" x="414.72" xlink:href="#m103157d5da" y="246.011495"/>
      </g>
     </g>
    </g>
    <g id="ytick_17">
     <g id="line2d_115">
      <g>
       <use style="stroke:#000000;stroke-width:0.6;" x="57.6" xlink:href="#m8059e30aed" y="232.755916"/>
      </g>
     </g>
     <g id="line2d_116">
      <g>
       <use style="stroke:#000000;stroke-width:0.6;" x="414.72" xlink:href="#m103157d5da" y="232.755916"/>
      </g>
     </g>
    </g>
    <g id="ytick_18">
     <g id="line2d_117">
      <g>
       <use style="stroke:#000000;stroke-width:0.6;" x="57.6" xlink:href="#m8059e30aed" y="226.128126"/>
      </g>
     </g>
     <g id="line2d_118">
      <g>
       <use style="stroke:#000000;stroke-width:0.6;" x="414.72" xlink:href="#m103157d5da" y="226.128126"/>
      </g>
     </g>
    </g>
    <g id="ytick_19">
     <g id="line2d_119">
      <g>
       <use style="stroke:#000000;stroke-width:0.6;" x="57.6" xlink:href="#m8059e30aed" y="219.500337"/>
      </g>
     </g>
     <g id="line2d_120">
      <g>
       <use style="stroke:#000000;stroke-width:0.6;" x="414.72" xlink:href="#m103157d5da" y="219.500337"/>
      </g>
     </g>
    </g>
    <g id="ytick_20">
     <g id="line2d_121">
      <g>
       <use style="stroke:#000000;stroke-width:0.6;" x="57.6" xlink:href="#m8059e30aed" y="212.872547"/>
      </g>
     </g>
     <g id="line2d_122">
      <g>
       <use style="stroke:#000000;stroke-width:0.6;" x="414.72" xlink:href="#m103157d5da" y="212.872547"/>
      </g>
     </g>
    </g>
    <g id="ytick_21">
     <g id="line2d_123">
      <g>
       <use style="stroke:#000000;stroke-width:0.6;" x="57.6" xlink:href="#m8059e30aed" y="199.616968"/>
      </g>
     </g>
     <g id="line2d_124">
      <g>
       <use style="stroke:#000000;stroke-width:0.6;" x="414.72" xlink:href="#m103157d5da" y="199.616968"/>
      </g>
     </g>
    </g>
    <g id="ytick_22">
     <g id="line2d_125">
      <g>
       <use style="stroke:#000000;stroke-width:0.6;" x="57.6" xlink:href="#m8059e30aed" y="192.989179"/>
      </g>
     </g>
     <g id="line2d_126">
      <g>
       <use style="stroke:#000000;stroke-width:0.6;" x="414.72" xlink:href="#m103157d5da" y="192.989179"/>
      </g>
     </g>
    </g>
    <g id="ytick_23">
     <g id="line2d_127">
      <g>
       <use style="stroke:#000000;stroke-width:0.6;" x="57.6" xlink:href="#m8059e30aed" y="186.361389"/>
      </g>
     </g>
     <g id="line2d_128">
      <g>
       <use style="stroke:#000000;stroke-width:0.6;" x="414.72" xlink:href="#m103157d5da" y="186.361389"/>
      </g>
     </g>
    </g>
    <g id="ytick_24">
     <g id="line2d_129">
      <g>
       <use style="stroke:#000000;stroke-width:0.6;" x="57.6" xlink:href="#m8059e30aed" y="179.7336"/>
      </g>
     </g>
     <g id="line2d_130">
      <g>
       <use style="stroke:#000000;stroke-width:0.6;" x="414.72" xlink:href="#m103157d5da" y="179.7336"/>
      </g>
     </g>
    </g>
    <g id="ytick_25">
     <g id="line2d_131">
      <g>
       <use style="stroke:#000000;stroke-width:0.6;" x="57.6" xlink:href="#m8059e30aed" y="166.478021"/>
      </g>
     </g>
     <g id="line2d_132">
      <g>
       <use style="stroke:#000000;stroke-width:0.6;" x="414.72" xlink:href="#m103157d5da" y="166.478021"/>
      </g>
     </g>
    </g>
    <g id="ytick_26">
     <g id="line2d_133">
      <g>
       <use style="stroke:#000000;stroke-width:0.6;" x="57.6" xlink:href="#m8059e30aed" y="159.850232"/>
      </g>
     </g>
     <g id="line2d_134">
      <g>
       <use style="stroke:#000000;stroke-width:0.6;" x="414.72" xlink:href="#m103157d5da" y="159.850232"/>
      </g>
     </g>
    </g>
    <g id="ytick_27">
     <g id="line2d_135">
      <g>
       <use style="stroke:#000000;stroke-width:0.6;" x="57.6" xlink:href="#m8059e30aed" y="153.222442"/>
      </g>
     </g>
     <g id="line2d_136">
      <g>
       <use style="stroke:#000000;stroke-width:0.6;" x="414.72" xlink:href="#m103157d5da" y="153.222442"/>
      </g>
     </g>
    </g>
    <g id="ytick_28">
     <g id="line2d_137">
      <g>
       <use style="stroke:#000000;stroke-width:0.6;" x="57.6" xlink:href="#m8059e30aed" y="146.594653"/>
      </g>
     </g>
     <g id="line2d_138">
      <g>
       <use style="stroke:#000000;stroke-width:0.6;" x="414.72" xlink:href="#m103157d5da" y="146.594653"/>
      </g>
     </g>
    </g>
    <g id="ytick_29">
     <g id="line2d_139">
      <g>
       <use style="stroke:#000000;stroke-width:0.6;" x="57.6" xlink:href="#m8059e30aed" y="133.339074"/>
      </g>
     </g>
     <g id="line2d_140">
      <g>
       <use style="stroke:#000000;stroke-width:0.6;" x="414.72" xlink:href="#m103157d5da" y="133.339074"/>
      </g>
     </g>
    </g>
    <g id="ytick_30">
     <g id="line2d_141">
      <g>
       <use style="stroke:#000000;stroke-width:0.6;" x="57.6" xlink:href="#m8059e30aed" y="126.711284"/>
      </g>
     </g>
     <g id="line2d_142">
      <g>
       <use style="stroke:#000000;stroke-width:0.6;" x="414.72" xlink:href="#m103157d5da" y="126.711284"/>
      </g>
     </g>
    </g>
    <g id="ytick_31">
     <g id="line2d_143">
      <g>
       <use style="stroke:#000000;stroke-width:0.6;" x="57.6" xlink:href="#m8059e30aed" y="120.083495"/>
      </g>
     </g>
     <g id="line2d_144">
      <g>
       <use style="stroke:#000000;stroke-width:0.6;" x="414.72" xlink:href="#m103157d5da" y="120.083495"/>
      </g>
     </g>
    </g>
    <g id="ytick_32">
     <g id="line2d_145">
      <g>
       <use style="stroke:#000000;stroke-width:0.6;" x="57.6" xlink:href="#m8059e30aed" y="113.455705"/>
      </g>
     </g>
     <g id="line2d_146">
      <g>
       <use style="stroke:#000000;stroke-width:0.6;" x="414.72" xlink:href="#m103157d5da" y="113.455705"/>
      </g>
     </g>
    </g>
    <g id="ytick_33">
     <g id="line2d_147">
      <g>
       <use style="stroke:#000000;stroke-width:0.6;" x="57.6" xlink:href="#m8059e30aed" y="100.200126"/>
      </g>
     </g>
     <g id="line2d_148">
      <g>
       <use style="stroke:#000000;stroke-width:0.6;" x="414.72" xlink:href="#m103157d5da" y="100.200126"/>
      </g>
     </g>
    </g>
    <g id="ytick_34">
     <g id="line2d_149">
      <g>
       <use style="stroke:#000000;stroke-width:0.6;" x="57.6" xlink:href="#m8059e30aed" y="93.572337"/>
      </g>
     </g>
     <g id="line2d_150">
      <g>
       <use style="stroke:#000000;stroke-width:0.6;" x="414.72" xlink:href="#m103157d5da" y="93.572337"/>
      </g>
     </g>
    </g>
    <g id="ytick_35">
     <g id="line2d_151">
      <g>
       <use style="stroke:#000000;stroke-width:0.6;" x="57.6" xlink:href="#m8059e30aed" y="86.944547"/>
      </g>
     </g>
     <g id="line2d_152">
      <g>
       <use style="stroke:#000000;stroke-width:0.6;" x="414.72" xlink:href="#m103157d5da" y="86.944547"/>
      </g>
     </g>
    </g>
    <g id="ytick_36">
     <g id="line2d_153">
      <g>
       <use style="stroke:#000000;stroke-width:0.6;" x="57.6" xlink:href="#m8059e30aed" y="80.316758"/>
      </g>
     </g>
     <g id="line2d_154">
      <g>
       <use style="stroke:#000000;stroke-width:0.6;" x="414.72" xlink:href="#m103157d5da" y="80.316758"/>
      </g>
     </g>
    </g>
    <g id="ytick_37">
     <g id="line2d_155">
      <g>
       <use style="stroke:#000000;stroke-width:0.6;" x="57.6" xlink:href="#m8059e30aed" y="67.061179"/>
      </g>
     </g>
     <g id="line2d_156">
      <g>
       <use style="stroke:#000000;stroke-width:0.6;" x="414.72" xlink:href="#m103157d5da" y="67.061179"/>
      </g>
     </g>
    </g>
    <g id="ytick_38">
     <g id="line2d_157">
      <g>
       <use style="stroke:#000000;stroke-width:0.6;" x="57.6" xlink:href="#m8059e30aed" y="60.433389"/>
      </g>
     </g>
     <g id="line2d_158">
      <g>
       <use style="stroke:#000000;stroke-width:0.6;" x="414.72" xlink:href="#m103157d5da" y="60.433389"/>
      </g>
     </g>
    </g>
    <g id="ytick_39">
     <g id="line2d_159">
      <g>
       <use style="stroke:#000000;stroke-width:0.6;" x="57.6" xlink:href="#m8059e30aed" y="53.8056"/>
      </g>
     </g>
     <g id="line2d_160">
      <g>
       <use style="stroke:#000000;stroke-width:0.6;" x="414.72" xlink:href="#m103157d5da" y="53.8056"/>
      </g>
     </g>
    </g>
    <g id="ytick_40">
     <g id="line2d_161">
      <g>
       <use style="stroke:#000000;stroke-width:0.6;" x="57.6" xlink:href="#m8059e30aed" y="47.177811"/>
      </g>
     </g>
     <g id="line2d_162">
      <g>
       <use style="stroke:#000000;stroke-width:0.6;" x="414.72" xlink:href="#m103157d5da" y="47.177811"/>
      </g>
     </g>
    </g>
    <g id="text_18">
     <!-- Frequency -->
     <defs>
      <path d="M 54.203125 64.703125 
L 18.3125 64.703125 
L 18.3125 41.5 
L 50.09375 41.5 
L 50.09375 34.1875 
L 18.3125 34.1875 
L 18.3125 0.984375 
L 9.515625 0.984375 
L 9.515625 72.40625 
L 54.203125 72.40625 
z
" id="IPAexGothic-70"/>
      <path d="M 53.078125 -19 
L 44.484375 -19 
L 44.484375 8.6875 
Q 38.140625 -0.484375 27.484375 -0.484375 
Q 18.453125 -0.484375 12.3125 5.8125 
Q 4.890625 13.1875 4.890625 25.875 
Q 4.890625 38.28125 12.3125 45.703125 
Q 18.796875 52.203125 28.171875 52.203125 
Q 38.625 52.203125 45.359375 43.796875 
L 46.578125 51.171875 
L 53.078125 51.171875 
z
M 44.484375 19.96875 
L 44.484375 32.671875 
Q 44.484375 35.5 41.40625 39.203125 
Q 36.234375 45.40625 29.203125 45.40625 
Q 21.96875 45.40625 17.671875 39.3125 
Q 13.875 33.984375 13.875 26.125 
Q 13.875 17.4375 18.265625 11.8125 
Q 22.609375 6.390625 28.953125 6.390625 
Q 36.46875 6.390625 41.703125 13.671875 
Q 44.484375 17.671875 44.484375 19.96875 
z
" id="IPAexGothic-113"/>
      <path d="M 52 0.984375 
L 43.40625 0.984375 
L 43.40625 31.890625 
Q 43.40625 44.578125 32.90625 44.578125 
Q 22.3125 44.578125 17.390625 31.890625 
L 17.390625 0.984375 
L 8.796875 0.984375 
L 8.796875 50.78125 
L 16.796875 50.78125 
L 16.796875 41.796875 
Q 23.828125 51.8125 34.71875 51.8125 
Q 52 51.8125 52 32.375 
z
" id="IPAexGothic-110"/>
      <path d="M 51.078125 12.25 
Q 44.28125 -0.484375 29.6875 -0.484375 
Q 19.1875 -0.484375 12.3125 6.390625 
Q 4.890625 13.921875 4.890625 25.984375 
Q 4.890625 37.9375 12.3125 45.515625 
Q 19.09375 52.296875 29.390625 52.296875 
Q 43.953125 52.296875 50.09375 39.703125 
L 43.171875 36.078125 
Q 38.8125 45.3125 29.6875 45.3125 
Q 23.6875 45.3125 19.28125 40.921875 
Q 13.765625 35.40625 13.765625 25.78125 
Q 13.765625 16.703125 19.09375 11.375 
Q 23.78125 6.6875 30.5625 6.6875 
Q 39.796875 6.6875 44.484375 15.875 
z
" id="IPAexGothic-99"/>
     </defs>
     <g transform="translate(21.975 203.112825)rotate(-90)scale(0.12 -0.12)">
      <use xlink:href="#IPAexGothic-70"/>
      <use x="57.177734" xlink:href="#IPAexGothic-114"/>
      <use x="94.189453" xlink:href="#IPAexGothic-101"/>
      <use x="151.074219" xlink:href="#IPAexGothic-113"/>
      <use x="213.28125" xlink:href="#IPAexGothic-117"/>
      <use x="273.681641" xlink:href="#IPAexGothic-101"/>
      <use x="330.566406" xlink:href="#IPAexGothic-110"/>
      <use x="390.966797" xlink:href="#IPAexGothic-99"/>
      <use x="445.361328" xlink:href="#IPAexGothic-121"/>
     </g>
    </g>
   </g>
   <g id="line2d_163">
    <path clip-path="url(#p96360e2e07)" d="M 57.6 305.582154 
L 74.776112 305.361673 
L 85.511182 305.01411 
L 93.383567 304.556424 
L 99.824609 303.981648 
L 105.54998 303.258213 
L 110.559679 302.409411 
L 114.853707 301.480921 
L 119.147735 300.327369 
L 122.726092 299.1636 
L 126.304449 297.786911 
L 129.882806 296.167956 
L 133.461162 294.275415 
L 137.039519 292.076295 
L 139.902204 290.07328 
L 142.76489 287.834261 
L 145.627575 285.341255 
L 148.490261 282.576437 
L 151.352946 279.52241 
L 154.215631 276.162509 
L 157.078317 272.481135 
L 159.941002 268.464111 
L 162.803687 264.099058 
L 165.666373 259.375787 
L 168.529058 254.286697 
L 172.107415 247.404194 
L 175.685772 239.941671 
L 179.264128 231.907046 
L 182.842485 223.318651 
L 186.420842 214.206106 
L 190.71487 202.638565 
L 195.724569 188.394275 
L 201.44994 171.3714 
L 220.057395 115.330808 
L 224.351423 103.449853 
L 227.92978 94.195275 
L 230.792465 87.305126 
L 233.65515 80.938225 
L 236.517836 75.152675 
L 238.66485 71.227593 
L 240.811864 67.680773 
L 242.958878 64.53128 
L 245.105892 61.796211 
L 247.252906 59.490535 
L 249.39992 57.626961 
L 250.831263 56.635393 
L 252.262605 55.847411 
L 253.693948 55.26497 
L 255.125291 54.889517 
L 256.556633 54.721986 
L 257.987976 54.762794 
L 259.419319 55.011839 
L 260.850661 55.468503 
L 262.282004 56.131648 
L 263.713347 56.999628 
L 265.144689 58.070292 
L 266.576032 59.340994 
L 268.723046 61.615138 
L 270.87006 64.319671 
L 273.017074 67.439781 
L 275.164088 70.958521 
L 277.311102 74.856963 
L 280.173788 80.609444 
L 283.036473 86.946309 
L 285.899158 93.809664 
L 289.477515 103.035548 
L 293.055872 112.862971 
L 297.3499 125.268962 
L 303.790942 144.669409 
L 316.673026 183.744078 
L 321.682725 198.20761 
L 325.976754 210.0089 
L 330.270782 221.148138 
L 333.849138 229.867249 
L 337.427495 238.03873 
L 341.005852 245.641574 
L 344.584208 252.66542 
L 348.162565 259.109554 
L 351.025251 263.852471 
L 353.887936 268.236688 
L 356.750621 272.272264 
L 359.613307 275.97147 
L 362.475992 279.348396 
L 365.338677 282.418573 
L 368.201363 285.198616 
L 371.064048 287.705891 
L 373.926733 289.958208 
L 376.789419 291.973546 
L 380.367776 294.186717 
L 383.946132 296.09185 
L 387.524489 297.721997 
L 391.102846 299.108561 
L 394.681202 300.280977 
L 398.97523 301.443423 
L 403.269259 302.379355 
L 408.278958 303.235238 
L 414.004329 303.964978 
L 414.72 304.040693 
L 414.72 304.040693 
" style="fill:none;stroke:#ff0000;stroke-linecap:square;stroke-width:1.5;"/>
   </g>
   <g id="patch_4">
    <path d="M 57.6 305.6616 
L 57.6 41.2128 
" style="fill:none;stroke:#000000;stroke-linecap:square;stroke-linejoin:miter;"/>
   </g>
   <g id="patch_5">
    <path d="M 414.72 305.6616 
L 414.72 41.2128 
" style="fill:none;stroke:#000000;stroke-linecap:square;stroke-linejoin:miter;"/>
   </g>
   <g id="patch_6">
    <path d="M 57.6 305.6616 
L 414.72 305.6616 
" style="fill:none;stroke:#000000;stroke-linecap:square;stroke-linejoin:miter;"/>
   </g>
   <g id="patch_7">
    <path d="M 57.6 41.2128 
L 414.72 41.2128 
" style="fill:none;stroke:#000000;stroke-linecap:square;stroke-linejoin:miter;"/>
   </g>
   <g id="legend_1">
    <g id="patch_8">
     <path d="M 66 94.21455 
L 192.24375 94.21455 
Q 194.64375 94.21455 194.64375 91.81455 
L 194.64375 49.6128 
Q 194.64375 47.2128 192.24375 47.2128 
L 66 47.2128 
Q 63.6 47.2128 63.6 49.6128 
L 63.6 91.81455 
Q 63.6 94.21455 66 94.21455 
z
" style="fill:#ffffff;opacity:0.8;stroke:#cccccc;stroke-linejoin:miter;"/>
    </g>
    <g id="patch_9">
     <path d="M 68.4 75.20805 
L 92.4 75.20805 
L 92.4 66.80805 
L 68.4 66.80805 
z
" style="fill:none;stroke:#000000;stroke-linejoin:miter;"/>
    </g>
    <g id="text_19">
     <!-- Entries 66 -->
     <defs>
      <path d="M 55.421875 0.984375 
L 9.515625 0.984375 
L 9.515625 72.40625 
L 54.203125 72.40625 
L 54.203125 64.796875 
L 18.21875 64.796875 
L 18.21875 41.40625 
L 50.09375 41.40625 
L 50.09375 34.234375 
L 18.21875 34.234375 
L 18.21875 8.6875 
L 55.421875 8.6875 
z
" id="IPAexGothic-69"/>
      <path d="M 18.40625 61.375 
L 8.59375 61.375 
L 8.59375 71.390625 
L 18.40625 71.390625 
z
M 17.78125 0.984375 
L 9.1875 0.984375 
L 9.1875 50.78125 
L 17.78125 50.78125 
z
" id="IPAexGothic-105"/>
      <path d="M 34.90625 39.796875 
Q 30.28125 45.796875 23.1875 45.796875 
Q 13.921875 45.796875 13.921875 38.671875 
Q 13.921875 33.640625 23.921875 30.375 
L 27.203125 29.296875 
Q 41.40625 24.65625 41.40625 13.96875 
Q 41.40625 6.78125 35.5 2.6875 
Q 30.8125 -0.484375 23.390625 -0.484375 
Q 11.96875 -0.484375 4 7.859375 
L 9.421875 12.796875 
Q 15.578125 6.203125 23.6875 6.203125 
Q 33.296875 6.203125 33.296875 13.671875 
Q 33.296875 19.34375 22.703125 23.09375 
L 19.28125 24.265625 
Q 5.90625 28.953125 5.90625 37.984375 
Q 5.90625 43.703125 9.8125 47.609375 
Q 14.5 52.296875 22.703125 52.296875 
Q 33.6875 52.296875 40.71875 44.671875 
z
" id="IPAexGothic-115"/>
     </defs>
     <g transform="translate(102 61.00155)scale(0.12 -0.12)">
      <use xlink:href="#IPAexGothic-69"/>
      <use x="59.521484" xlink:href="#IPAexGothic-110"/>
      <use x="119.921875" xlink:href="#IPAexGothic-116"/>
      <use x="154.541016" xlink:href="#IPAexGothic-114"/>
      <use x="191.552734" xlink:href="#IPAexGothic-105"/>
      <use x="218.554688" xlink:href="#IPAexGothic-101"/>
      <use x="275.439453" xlink:href="#IPAexGothic-115"/>
      <use x="321.630859" xlink:href="#IPAexGothic-32"/>
      <use x="348.632812" xlink:href="#IPAexGothic-54"/>
      <use x="411.621094" xlink:href="#IPAexGothic-54"/>
     </g>
     <!-- Mean 37.17 -->
     <defs>
      <path d="M 80.421875 0.984375 
L 71.828125 0.984375 
L 71.828125 39.59375 
Q 71.828125 51.265625 72.40625 64.59375 
L 72.015625 64.59375 
Q 68.0625 53.265625 63.53125 41.796875 
L 47.90625 3.265625 
L 41.40625 3.265625 
L 25.640625 42.578125 
Q 20.75 54.78125 17.625 64.703125 
L 17.234375 64.703125 
Q 17.828125 48.921875 17.828125 39.890625 
L 17.828125 0.984375 
L 9.515625 0.984375 
L 9.515625 72.40625 
L 22.125 72.40625 
L 39.109375 30.375 
Q 42.140625 23 44.828125 14.15625 
L 45.125 14.15625 
Q 47.3125 22.125 50.53125 30.171875 
L 67.4375 72.40625 
L 80.421875 72.40625 
z
" id="IPAexGothic-77"/>
     </defs>
     <g transform="translate(102 74.06805)scale(0.12 -0.12)">
      <use xlink:href="#IPAexGothic-77"/>
      <use x="90.185547" xlink:href="#IPAexGothic-101"/>
      <use x="147.070312" xlink:href="#IPAexGothic-97"/>
      <use x="202.050781" xlink:href="#IPAexGothic-110"/>
      <use x="262.451172" xlink:href="#IPAexGothic-32"/>
      <use x="289.453125" xlink:href="#IPAexGothic-51"/>
      <use x="352.441406" xlink:href="#IPAexGothic-55"/>
      <use x="415.429688" xlink:href="#IPAexGothic-46"/>
      <use x="441.845703" xlink:href="#IPAexGothic-49"/>
      <use x="504.833984" xlink:href="#IPAexGothic-55"/>
     </g>
     <!-- Std Dev 0.2782 -->
     <defs>
      <path d="M 45.609375 56.890625 
Q 40.046875 66.546875 28.953125 66.546875 
Q 22.703125 66.546875 18.953125 62.640625 
Q 16.0625 59.421875 16.0625 55.21875 
Q 16.0625 50.59375 19.78125 47.609375 
Q 22.5625 45.515625 31 42 
L 34.375 40.578125 
Q 45.703125 36.03125 49.859375 30.515625 
Q 53.46875 25.6875 53.46875 19.671875 
Q 53.46875 10.0625 46.390625 4.5 
Q 39.984375 -0.484375 30.171875 -0.484375 
Q 13.765625 -0.484375 4.890625 11.96875 
L 11.765625 17.1875 
Q 18.796875 7.171875 30.28125 7.171875 
Q 35.75 7.171875 39.59375 9.765625 
Q 44.390625 13.234375 44.390625 19 
Q 44.390625 23.484375 40.875 27 
Q 37.109375 30.609375 27 34.46875 
L 24.078125 35.59375 
Q 7.078125 42.09375 7.078125 54.390625 
Q 7.078125 62.59375 12.59375 67.921875 
Q 18.796875 73.828125 29.109375 73.828125 
Q 44.390625 73.828125 52.484375 61.8125 
z
" id="IPAexGothic-83"/>
      <path d="M 9.515625 72.40625 
L 31 72.40625 
Q 49.359375 72.40625 59.234375 63.28125 
Q 69.625 53.8125 69.625 36.8125 
Q 69.625 16.359375 54.9375 6.890625 
Q 45.703125 0.984375 30.328125 0.984375 
L 9.515625 0.984375 
z
M 18.3125 8.6875 
L 29.59375 8.6875 
Q 60.203125 8.6875 60.203125 36.8125 
Q 60.203125 64.796875 30.125 64.796875 
L 18.3125 64.796875 
z
" id="IPAexGothic-68"/>
      <path d="M 48.484375 50.78125 
L 27.296875 0.09375 
L 21.484375 0.09375 
L 0.390625 50.78125 
L 9.8125 50.78125 
L 20.90625 21.6875 
L 23.78125 13.1875 
L 24.515625 10.984375 
L 24.8125 10.984375 
Q 25.640625 13.8125 28.46875 21.6875 
L 39.3125 50.78125 
z
" id="IPAexGothic-118"/>
     </defs>
     <g transform="translate(102 87.13455)scale(0.12 -0.12)">
      <use xlink:href="#IPAexGothic-83"/>
      <use x="58.496094" xlink:href="#IPAexGothic-116"/>
      <use x="93.115234" xlink:href="#IPAexGothic-100"/>
      <use x="155.517578" xlink:href="#IPAexGothic-32"/>
      <use x="182.519531" xlink:href="#IPAexGothic-68"/>
      <use x="258.203125" xlink:href="#IPAexGothic-101"/>
      <use x="315.087891" xlink:href="#IPAexGothic-118"/>
      <use x="363.671875" xlink:href="#IPAexGothic-32"/>
      <use x="390.673828" xlink:href="#IPAexGothic-48"/>
      <use x="453.662109" xlink:href="#IPAexGothic-46"/>
      <use x="480.078125" xlink:href="#IPAexGothic-50"/>
      <use x="543.066406" xlink:href="#IPAexGothic-55"/>
      <use x="606.054688" xlink:href="#IPAexGothic-56"/>
      <use x="669.042969" xlink:href="#IPAexGothic-50"/>
     </g>
    </g>
   </g>
  </g>
 </g>
 <defs>
  <clipPath id="p96360e2e07">
   <rect height="264.4488" width="357.12" x="57.6" y="41.2128"/>
  </clipPath>
 </defs>
</svg>
